<svg xmlns="http://www.w3.org/2000/svg" xmlns:xlink="http://www.w3.org/1999/xlink" xmlns:svgjs="http://svgjs.com/svgjs" width="80" height="80" x="0" y="0" viewBox="0 0 512 512" style="enable-background:new 0 0 512 512" xml:space="preserve"><g><path xmlns="http://www.w3.org/2000/svg" d="m438.875 15.453125v411.460937c0 8.53125-6.914062 15.453126-15.453125 15.453126h-407.96875c-8.53125 0-15.453125-6.921876-15.453125-15.453126v-411.460937c0-8.53125 6.921875-15.453125 15.453125-15.453125h407.96875c8.539063 0 15.453125 6.921875 15.453125 15.453125zm0 0" fill="#FFE9CC" data-original="#ffe9cc"></path><path xmlns="http://www.w3.org/2000/svg" d="m438.875 15.453125v411.460937c0 8.53125-6.914062 15.453126-15.453125 15.453126h-204.242187v-442.367188h204.242187c8.539063 0 15.453125 6.921875 15.453125 15.453125zm0 0" fill="#FFD399" data-original="#ffd399"></path><path xmlns="http://www.w3.org/2000/svg" d="m60.785156 85.5625h81.386719c8.535156 0 15.453125-6.917969 15.453125-15.453125s-6.917969-15.453125-15.453125-15.453125h-81.386719c-8.535156 0-15.453125 6.917969-15.453125 15.453125s6.917969 15.453125 15.453125 15.453125zm0 0" fill="#FF5B5B" data-original="#ff5b5b"></path><path xmlns="http://www.w3.org/2000/svg" d="m392.515625 70.109375c0-8.535156-6.917969-15.453125-15.453125-15.453125h-175.136719c-8.535156 0-15.453125 6.917969-15.453125 15.453125s6.917969 15.453125 15.453125 15.453125h175.136719c8.535156 0 15.453125-6.917969 15.453125-15.453125zm0 0" fill="#00CC76" data-original="#00cc76"></path><path xmlns="http://www.w3.org/2000/svg" d="m172 156.507812v-16.019531c0-3.140625 2.035156-5.328125 3.863281-5.328125 8.535157 0 15.453125-6.921875 15.453125-15.453125 0-8.535156-6.917968-15.453125-15.453125-15.453125-19.171875 0-34.769531 16.253906-34.769531 36.230469v9.953125l-24.535156 26.394531c-5.511719 5.929688-5.511719 15.109375 0 21.042969l24.535156 26.394531v17.710938c0 19.980469 15.597656 36.234375 34.769531 36.234375 8.535157 0 15.453125-6.917969 15.453125-15.453125 0-8.535157-6.917968-15.453125-15.453125-15.453125-1.828125 0-3.863281-2.1875-3.863281-5.328125v-23.785157c0-3.902343-1.476562-7.660156-4.132812-10.519531l-18.890626-20.324219 18.890626-20.320312c2.65625-2.859375 4.132812-6.621094 4.132812-10.523438zm0 0" fill="#00C7CE" data-original="#00c7ce"></path><path xmlns="http://www.w3.org/2000/svg" d="m322.316406 184.59375-24.535156-26.394531v-17.710938c0-19.980469-15.597656-36.234375-34.765625-36.234375-8.535156 0-15.457031 6.917969-15.457031 15.453125 0 8.53125 6.921875 15.453125 15.457031 15.453125 1.824219 0 3.859375 2.1875 3.859375 5.328125l.003906 23.78125c0 3.90625 1.476563 7.664063 4.132813 10.519531l18.890625 20.324219-18.890625 20.324219c-2.660157 2.859375-4.136719 6.617188-4.136719 10.519531v16.023438c0 3.136719-2.035156 5.328125-3.859375 5.328125-8.535156 0-15.457031 6.917968-15.457031 15.453125 0 8.53125 6.921875 15.453125 15.457031 15.453125 19.167969 0 34.765625-16.257813 34.765625-36.234375l.003906-9.949219 24.53125-26.398438c5.511719-5.929687 5.511719-15.109374 0-21.039062zm0 0" fill="#00B6BD" data-original="#00b6bd"></path><path xmlns="http://www.w3.org/2000/svg" d="m60.785156 148.894531h52.558594c8.535156 0 15.453125-6.917969 15.453125-15.453125s-6.917969-15.453125-15.453125-15.453125h-52.558594c-8.535156 0-15.453125 6.917969-15.453125 15.453125s6.917969 15.453125 15.453125 15.453125zm0 0" fill="#FF9100" data-original="#ff9100"></path><path xmlns="http://www.w3.org/2000/svg" d="m60.785156 210.121094h26.277344c8.535156 0 15.453125-6.917969 15.453125-15.453125 0-8.535157-6.917969-15.453125-15.453125-15.453125h-26.277344c-8.535156 0-15.453125 6.917968-15.453125 15.453125 0 8.535156 6.917969 15.453125 15.453125 15.453125zm0 0" fill="#FF5B5B" data-original="#ff5b5b"></path><path xmlns="http://www.w3.org/2000/svg" d="m113.34375 240.441406h-52.558594c-8.535156 0-15.453125 6.917969-15.453125 15.453125 0 8.535157 6.917969 15.453125 15.453125 15.453125h52.558594c8.535156 0 15.453125-6.917968 15.453125-15.453125 0-8.535156-6.917969-15.453125-15.453125-15.453125zm0 0" fill="#00CC76" data-original="#00cc76"></path><path xmlns="http://www.w3.org/2000/svg" d="m377.0625 117.988281h-39.835938c-8.535156 0-15.453124 6.917969-15.453124 15.453125s6.917968 15.453125 15.453124 15.453125h39.835938c8.535156 0 15.453125-6.917969 15.453125-15.453125s-6.917969-15.453125-15.453125-15.453125zm0 0" fill="#FF5B5B" data-original="#ff5b5b"></path><path xmlns="http://www.w3.org/2000/svg" d="m377.0625 179.214844h-25.753906c-8.535156 0-15.453125 6.917968-15.453125 15.453125 0 8.535156 6.917969 15.453125 15.453125 15.453125h25.753906c8.535156 0 15.453125-6.917969 15.453125-15.453125 0-8.535157-6.917969-15.453125-15.453125-15.453125zm0 0" fill="#00CC76" data-original="#00cc76"></path><path xmlns="http://www.w3.org/2000/svg" d="m377.0625 240.441406h-39.835938c-8.535156 0-15.453124 6.917969-15.453124 15.453125 0 8.535157 6.917968 15.453125 15.453124 15.453125h39.835938c8.535156 0 15.453125-6.917968 15.453125-15.453125 0-8.535156-6.917969-15.453125-15.453125-15.453125zm0 0" fill="#FF9100" data-original="#ff9100"></path><path xmlns="http://www.w3.org/2000/svg" d="m479.074219 377.792969v59.339843c0 41.28125-33.585938 74.867188-74.875 74.867188h-231.441407c-41.28125 0-74.867187-33.585938-74.867187-74.867188v-59.339843c0-41.292969 33.585937-74.875 74.867187-74.875h231.441407c41.289062 0 74.875 33.582031 74.875 74.875zm0 0" fill="#00B6BD" data-original="#00b6bd"></path><path xmlns="http://www.w3.org/2000/svg" d="m479.074219 377.792969v59.339843c0 41.28125-33.585938 74.867188-74.875 74.867188h-116.3125v-209.082031h116.3125c41.289062 0 74.875 33.582031 74.875 74.875zm0 0" fill="#007579" data-original="#007579"></path><path xmlns="http://www.w3.org/2000/svg" d="m276.164062 384.828125h42.492188c8.535156 0 15.453125-6.921875 15.453125-15.457031 0-8.53125-6.917969-15.453125-15.453125-15.453125h-42.492188c-19.023437 0-34.496093 15.476562-34.496093 34.496093 0 19.023438 15.472656 34.496094 34.496093 34.496094h23.449219c1.980469 0 3.589844 1.613282 3.589844 3.589844 0 1.980469-1.609375 3.589844-3.589844 3.589844h-42.492187c-8.535156 0-15.453125 6.917968-15.453125 15.453125 0 8.535156 6.917969 15.453125 15.453125 15.453125h42.492187c19.019531 0 34.496094-15.472656 34.496094-34.496094 0-19.019531-15.476563-34.496094-34.496094-34.496094h-23.449219c-1.980468 0-3.589843-1.609375-3.589843-3.589844 0-1.976562 1.609375-3.585937 3.589843-3.585937zm0 0" fill="#BDFDFF" data-original="#bdfdff"></path><g xmlns="http://www.w3.org/2000/svg" fill="#9BFBFF"><path d="m334.113281 426.5c0 19.019531-15.476562 34.492188-34.503906 34.492188h-11.722656v-30.90625h11.722656c1.976563 0 3.59375-1.605469 3.59375-3.585938 0-1.976562-1.617187-3.582031-3.59375-3.582031h-11.722656v-30.90625h11.722656c19.027344 0 34.503906 15.472656 34.503906 34.488281zm0 0" fill="#9BFBFF" data-original="#9bfbff"></path><path d="m318.65625 384.828125h-30.769531v-30.90625h30.769531c8.53125 0 15.457031 6.914063 15.457031 15.453125 0 8.53125-6.925781 15.453125-15.457031 15.453125zm0 0" fill="#9BFBFF" data-original="#9bfbff"></path><path d="m399.496094 392.007812h-23.453125c-1.980469 0-3.589844-1.613281-3.589844-3.589843 0-1.980469 1.613281-3.589844 3.589844-3.589844h42.492187c8.535156 0 15.453125-6.917969 15.453125-15.453125s-6.917969-15.453125-15.453125-15.453125h-42.492187c-19.019531 0-34.496094 15.472656-34.496094 34.496094 0 19.019531 15.476563 34.496093 34.496094 34.496093h23.453125c1.976562 0 3.585937 1.609376 3.585937 3.585938 0 1.980469-1.609375 3.589844-3.585937 3.589844h-42.496094c-8.535156 0-15.453125 6.921875-15.453125 15.453125 0 8.535156 6.917969 15.453125 15.453125 15.453125h42.496094c19.019531 0 34.492187-15.472656 34.492187-34.496094 0-19.019531-15.472656-34.492188-34.492187-34.492188zm0 0" fill="#9BFBFF" data-original="#9bfbff"></path></g><path xmlns="http://www.w3.org/2000/svg" d="m189.195312 384.828125h30.769532c8.535156 0 15.453125-6.921875 15.453125-15.457031 0-8.53125-6.917969-15.453125-15.453125-15.453125h-30.769532c-25.484374 0-46.21875 20.734375-46.21875 46.222656v14.636719c0 25.484375 20.734376 46.21875 46.21875 46.21875h30.769532c8.535156 0 15.453125-6.917969 15.453125-15.453125 0-8.535157-6.917969-15.453125-15.453125-15.453125h-30.769532c-8.441406 0-15.3125-6.871094-15.3125-15.3125v-14.636719c0-8.445313 6.871094-15.3125 15.3125-15.3125zm0 0" fill="#BDFDFF" data-original="#bdfdff"></path></g></svg>