<svg xmlns="http://www.w3.org/2000/svg" xmlns:xlink="http://www.w3.org/1999/xlink" xmlns:svgjs="http://svgjs.com/svgjs" width="80" height="80" x="0" y="0" viewBox="0 0 512 512" style="enable-background:new 0 0 512 512" xml:space="preserve"><g><path xmlns="http://www.w3.org/2000/svg" d="m488.917969 431.960938h-465.835938v-280.050782c0-24.214844 19.628907-43.84375 43.839844-43.84375h378.152344c24.214843 0 43.84375 19.628906 43.84375 43.84375zm0 0" fill="#707487" data-original="#707487"></path><path xmlns="http://www.w3.org/2000/svg" d="m454.492188 24.417969v398.605469h-397.460938v-398.605469c0-13.484375 10.921875-24.4101565 24.398438-24.4101565h348.667968c13.472656 0 24.394532 10.9257815 24.394532 24.4101565zm0 0" fill="#E4EAF7" data-original="#e4eaf7"></path><path xmlns="http://www.w3.org/2000/svg" d="m454.496094 24.417969v398.605469h-46.101563v-398.605469c0-13.480469-10.921875-24.417969-24.390625-24.417969h46.089844c13.46875 0 24.402344 10.941406 24.402344 24.417969zm0 0" fill="#D2DCF0" data-original="#d2dcf0"></path><path xmlns="http://www.w3.org/2000/svg" d="m454.492188 24.417969v45.15625h-397.460938v-45.15625c0-13.484375 10.921875-24.4101565 24.398438-24.4101565h348.667968c13.472656 0 24.394532 10.9257815 24.394532 24.4101565zm0 0" fill="#54A1FF" data-original="#54a1ff"></path><path xmlns="http://www.w3.org/2000/svg" d="m454.496094 24.417969v45.152343h-46.101563v-45.152343c0-13.480469-10.921875-24.417969-24.390625-24.417969h46.089844c13.46875 0 24.402344 10.941406 24.402344 24.417969zm0 0" fill="#4A7FDD" data-original="#4a7fdd"></path><path xmlns="http://www.w3.org/2000/svg" d="m57.03125 39.394531h73.714844c6.214844 0 12.105468-2.757812 16.089844-7.527343l20.308593-24.332032c3.984375-4.769531 9.878907-7.5273435 16.089844-7.5273435h52.710937c6.257813 0 12.1875 2.7968755 16.171876 7.6289065l19.894531 24.128906c3.984375 4.832031 9.914062 7.628906 16.171875 7.628906h166.308594v58.222657h-397.460938zm0 0" fill="#AFB9D2" data-original="#afb9d2"></path><path xmlns="http://www.w3.org/2000/svg" d="m408.394531 39.390625h46.101563v58.230469h-46.101563zm0 0" fill="#99A6BF" data-original="#99a6bf"></path><path xmlns="http://www.w3.org/2000/svg" d="m353.085938 77.449219h-199.246094c-4.34375 0-7.867188-3.527344-7.867188-7.875 0-4.347657 3.523438-7.875 7.867188-7.875h199.246094c4.347656 0 7.867187 3.527343 7.867187 7.875 0 4.347656-3.519531 7.875-7.867187 7.875zm0 0" fill="#FFFFFF" data-original="#ffffff"></path><g xmlns="http://www.w3.org/2000/svg" fill="#464655"><path d="m224.007812 33.1875h-28.6875c-4.347656 0-7.871093-3.527344-7.871093-7.875s3.523437-7.875 7.871093-7.875h28.6875c4.347657 0 7.871094 3.527344 7.871094 7.875s-3.523437 7.875-7.871094 7.875zm0 0" fill="#464655" data-original="#464655"></path><path d="m88.609375 81.960938c-1.914063 0-3.828125-.695313-5.34375-2.09375l-4.683594-4.339844c-1.570312-1.453125-2.480469-3.484375-2.523437-5.625-.042969-2.140625.789062-4.207032 2.304687-5.722656l4.683594-4.6875c3.074219-3.074219 8.054687-3.074219 11.128906 0 2.742188 2.746093 3.035157 7.011718.882813 10.082031 2.082031 2.96875 1.890625 7.085937-.671875 9.859375-1.550781 1.675781-3.660157 2.527344-5.777344 2.527344zm0 0" fill="#464655" data-original="#464655"></path><path d="m116.375 81.960938c-2.117188 0-4.226562-.851563-5.777344-2.527344-2.5625-2.773438-2.753906-6.890625-.675781-9.859375-2.152344-3.070313-1.855469-7.335938.886719-10.082031 3.074218-3.074219 8.054687-3.074219 11.128906 0l4.683594 4.6875c1.511718 1.515624 2.34375 3.582031 2.304687 5.722656-.042969 2.140625-.953125 4.171875-2.523437 5.625l-4.6875 4.339844c-1.511719 1.398437-3.429688 2.09375-5.339844 2.09375zm0 0" fill="#464655" data-original="#464655"></path></g><path xmlns="http://www.w3.org/2000/svg" d="m433.804688 68.507812c0 4.34375-3.523438 7.867188-7.867188 7.867188-4.347656 0-7.871094-3.523438-7.871094-7.867188 0-4.347656 3.523438-7.871093 7.871094-7.871093 4.34375 0 7.867188 3.523437 7.867188 7.871093zm0 0" fill="#54A1FF" data-original="#54a1ff"></path><path xmlns="http://www.w3.org/2000/svg" d="m342.613281 174.921875v38.390625h-31.761719v82.242188h-109.710937v-82.242188h-31.746094v-38.390625c0-36.316406 57.871094-39.683594 57.871094-39.683594 5.152344 10.6875 16.085937 18.066407 28.738281 18.066407 12.683594 0 23.628906-7.414063 28.765625-18.140626 0 0 57.84375 0 57.84375 39.757813zm0 0" fill="#A7D16C" data-original="#a7d16c"></path><path xmlns="http://www.w3.org/2000/svg" d="m209 192.671875v20.640625c0 4.34375-3.515625 7.863281-7.859375 7.871094v-7.871094h-7.878906v-20.640625c0-4.347656 3.523437-7.875 7.867187-7.875 4.34375.003906 7.871094 3.527344 7.871094 7.875zm0 0" fill="#87B45F" data-original="#87b45f"></path><path xmlns="http://www.w3.org/2000/svg" d="m318.742188 192.671875v20.640625h-7.890626v7.871094c-4.332031-.007813-7.847656-3.535156-7.847656-7.871094v-20.640625c0-4.347656 3.527344-7.875 7.871094-7.875 4.34375.003906 7.867188 3.527344 7.867188 7.875zm0 0" fill="#87B45F" data-original="#87b45f"></path><path xmlns="http://www.w3.org/2000/svg" d="m337.898438 382.242188h-164.277344c-2.46875 0-4.46875-2.003907-4.46875-4.472657v-38.023437c0-2.46875 2-4.46875 4.46875-4.46875h164.277344c2.46875 0 4.472656 2 4.472656 4.46875v38.023437c0 2.46875-2.003906 4.472657-4.472656 4.472657zm0 0" fill="#A09BFF" data-original="#a09bff"></path><path xmlns="http://www.w3.org/2000/svg" d="m337.902344 335.273438h-13.367188c0 18.691406-15.144531 33.84375-33.824218 33.84375h-121.558594v8.652343c0 2.46875 2 4.472657 4.46875 4.472657h164.28125c2.46875 0 4.46875-2.003907 4.46875-4.472657v-38.023437c0-2.46875-2-4.472656-4.46875-4.472656zm0 0" fill="#8080E5" data-original="#8080e5"></path><path xmlns="http://www.w3.org/2000/svg" d="m475.738281 474.449219h-439.476562c-20.027344 0-36.261719-16.234375-36.261719-36.261719v-12.777344c0-1.902344 1.546875-3.449218 3.449219-3.449218h505.101562c1.902344 0 3.449219 1.546874 3.449219 3.449218v12.777344c0 20.027344-16.234375 36.261719-36.261719 36.261719zm0 0" fill="#BEC8DC" data-original="#bec8dc"></path><path xmlns="http://www.w3.org/2000/svg" d="m508.550781 421.960938h-77.277343c1.90625 0 3.449218 1.546874 3.449218 3.449218v12.769532c0 20.03125-16.230468 36.273437-36.25 36.273437h77.277344c20.019531 0 36.25-16.242187 36.25-36.273437v-12.769532c0-1.902344-1.542969-3.449218-3.449219-3.449218zm0 0" fill="#AFB9D2" data-original="#afb9d2"></path></g></svg>