<svg xmlns="http://www.w3.org/2000/svg" xmlns:xlink="http://www.w3.org/1999/xlink" xmlns:svgjs="http://svgjs.com/svgjs" width="80" height="80" x="0" y="0" viewBox="0 0 512 512" style="enable-background:new 0 0 512 512" xml:space="preserve"><g><path xmlns="http://www.w3.org/2000/svg" d="m512 31.441406v336.445313c0 17.355469-14.078125 31.441406-31.425781 31.441406h-449.148438c-17.347656 0-31.425781-14.085937-31.425781-31.441406v-336.445313c0-17.355468 14.078125-31.441406 31.425781-31.441406h449.144531c17.351563 0 31.429688 14.085938 31.429688 31.441406zm0 0" fill="#E4EAF7" data-original="#e4eaf7"></path><path xmlns="http://www.w3.org/2000/svg" d="m512 31.441406v336.445313c0 17.355469-14.078125 31.441406-31.425781 31.441406h-63.523438c17.347657 0 31.425781-14.085937 31.425781-31.441406v-336.445313c0-17.355468-14.078124-31.441406-31.425781-31.441406h63.523438c17.347656 0 31.425781 14.085938 31.425781 31.441406zm0 0" fill="#D2DCF0" data-original="#d2dcf0"></path><path xmlns="http://www.w3.org/2000/svg" d="m41.730469 26.761719c0 4.332031-3.511719 7.84375-7.84375 7.84375s-7.84375-3.511719-7.84375-7.84375 3.511719-7.84375 7.84375-7.84375 7.84375 3.511719 7.84375 7.84375zm0 0" fill="#FF6469" data-original="#ff6469"></path><path xmlns="http://www.w3.org/2000/svg" d="m68.859375 26.761719c0 4.332031-3.511719 7.84375-7.84375 7.84375s-7.84375-3.511719-7.84375-7.84375 3.511719-7.84375 7.84375-7.84375 7.84375 3.511719 7.84375 7.84375zm0 0" fill="#FFB96A" data-original="#ffb96a"></path><path xmlns="http://www.w3.org/2000/svg" d="m95.984375 26.761719c0 4.332031-3.511719 7.84375-7.84375 7.84375s-7.84375-3.511719-7.84375-7.84375 3.511719-7.84375 7.84375-7.84375 7.84375 3.511719 7.84375 7.84375zm0 0" fill="#A7D16C" data-original="#a7d16c"></path><path xmlns="http://www.w3.org/2000/svg" d="m.00390625 50.734375h94.33203175c8.003906 0 15.597656-3.554687 20.726562-9.699219l26.164062-31.335937c5.132813-6.144531 12.722657-9.69531275 20.726563-9.69531275h67.898437c8.0625 0 15.703126 3.60156275 20.832032 9.82421875l25.632812 31.082031c5.128906 6.21875 12.769532 9.824219 20.828125 9.824219h214.847657v64.175781h-511.98828175zm0 0" fill="#BEC8DC" data-original="#bec8dc"></path><path xmlns="http://www.w3.org/2000/svg" d="m448.476562 50.738281h63.511719v64.171875h-63.511719zm0 0" fill="#AFBBD0" data-original="#afbbd0"></path><path xmlns="http://www.w3.org/2000/svg" d="m459.414062 83.296875c0 4.332031-3.511718 7.84375-7.84375 7.84375-4.332031 0-7.84375-3.511719-7.84375-7.84375 0-4.335937 3.511719-7.847656 7.84375-7.847656 4.332032 0 7.84375 3.511719 7.84375 7.847656zm0 0" fill="#54A1FF" data-original="#54a1ff"></path><path xmlns="http://www.w3.org/2000/svg" d="m490.789062 83.296875c0 4.332031-3.511718 7.84375-7.84375 7.84375-4.332031 0-7.84375-3.511719-7.84375-7.84375 0-4.335937 3.511719-7.847656 7.84375-7.847656 4.332032 0 7.84375 3.511719 7.84375 7.847656zm0 0" fill="#54A1FF" data-original="#54a1ff"></path><path xmlns="http://www.w3.org/2000/svg" d="m356.421875 91.144531h-256.664063c-4.332031 0-7.84375-3.515625-7.84375-7.847656 0-4.335937 3.511719-7.851563 7.84375-7.851563h256.664063c4.332031 0 7.84375 3.515626 7.84375 7.851563 0 4.332031-3.511719 7.847656-7.84375 7.847656zm0 0" fill="#FFFFFF" data-original="#ffffff"></path><path xmlns="http://www.w3.org/2000/svg" d="m225.648438 40.445312h-59.304688c-4.332031 0-7.84375-3.515624-7.84375-7.847656 0-4.335937 3.511719-7.851562 7.84375-7.851562h59.304688c4.332031 0 7.84375 3.515625 7.84375 7.851562 0 4.332032-3.511719 7.847656-7.84375 7.847656zm0 0" fill="#5B5C6C" data-original="#5b5c6c"></path><path xmlns="http://www.w3.org/2000/svg" d="m36.003906 96.957031c-1.90625 0-3.816406-.691406-5.324218-2.089843l-6.039063-5.585938c-1.566406-1.449219-2.472656-3.472656-2.511719-5.609375-.042968-2.132813.785156-4.191406 2.292969-5.699219l6.035156-6.039062c3.0625-3.066406 8.03125-3.066406 11.09375 0 3.0625 3.0625 3.0625 8.03125 0 11.097656l-.269531.269531.050781.046875c3.179688 2.945313 3.371094 7.910156.429688 11.089844-1.546875 1.671875-3.648438 2.519531-5.757813 2.519531zm0 0" fill="#5B5C6C" data-original="#5b5c6c"></path><path xmlns="http://www.w3.org/2000/svg" d="m60.957031 96.957031c-2.109375 0-4.214843-.847656-5.761719-2.519531-2.941406-3.179688-2.746093-8.144531.433594-11.089844l.050782-.046875-.273438-.269531c-3.0625-3.066406-3.0625-8.035156 0-11.097656 3.066406-3.066406 8.03125-3.066406 11.09375 0l6.035156 6.039062c1.511719 1.507813 2.339844 3.566406 2.296875 5.699219-.042969 2.136719-.949219 4.160156-2.515625 5.609375l-6.035156 5.585938c-1.507812 1.398437-3.421875 2.089843-5.324219 2.089843zm0 0" fill="#5B5C6C" data-original="#5b5c6c"></path><path xmlns="http://www.w3.org/2000/svg" d="m512 114.910156v252.976563c0 17.355469-14.078125 31.441406-31.425781 31.441406h-224.574219v-284.417969zm0 0" fill="#FF8D95" data-original="#ff8d95"></path><path xmlns="http://www.w3.org/2000/svg" d="m512 114.910156v252.976563c0 17.355469-14.078125 31.441406-31.425781 31.441406h-63.523438c17.347657 0 31.425781-14.085937 31.425781-31.441406v-252.976563zm0 0" fill="#FF6469" data-original="#ff6469"></path><path xmlns="http://www.w3.org/2000/svg" d="m69.847656 157.914062h-36.859375c-4.332031 0-7.84375-3.511718-7.84375-7.847656 0-4.335937 3.511719-7.847656 7.84375-7.847656h36.859375c4.332032 0 7.84375 3.511719 7.84375 7.847656 0 4.335938-3.511718 7.847656-7.84375 7.847656zm0 0" fill="#AFB9D2" data-original="#afb9d2"></path><path xmlns="http://www.w3.org/2000/svg" d="m82.648438 371.390625h-46.734376c-4.332031 0-7.84375-3.511719-7.84375-7.847656 0-4.335938 3.511719-7.847657 7.84375-7.847657h46.734376c4.332031 0 7.84375 3.511719 7.84375 7.847657 0 4.335937-3.511719 7.847656-7.84375 7.847656zm0 0" fill="#AFB9D2" data-original="#afb9d2"></path><path xmlns="http://www.w3.org/2000/svg" d="m136.3125 188.410156h-84.894531c-4.332031 0-7.84375-3.511718-7.84375-7.847656s3.511719-7.847656 7.84375-7.847656h84.898437c4.332032 0 7.84375 3.511718 7.84375 7.847656s-3.515625 7.847656-7.847656 7.847656zm0 0" fill="#F9A1FF" data-original="#f9a1ff"></path><path xmlns="http://www.w3.org/2000/svg" d="m123.496094 340.894531h-72.078125c-4.332031 0-7.84375-3.511719-7.84375-7.847656s3.511719-7.847656 7.84375-7.847656h72.078125c4.332031 0 7.847656 3.511719 7.847656 7.847656s-3.515625 7.847656-7.847656 7.847656zm0 0" fill="#F9A1FF" data-original="#f9a1ff"></path><path xmlns="http://www.w3.org/2000/svg" d="m77.023438 218.90625h-25.605469c-4.332031 0-7.84375-3.511719-7.84375-7.847656 0-4.332032 3.511719-7.847656 7.84375-7.847656h25.605469c4.332031 0 7.84375 3.515624 7.84375 7.847656 0 4.335937-3.511719 7.847656-7.84375 7.847656zm0 0" fill="#AFB9D2" data-original="#afb9d2"></path><path xmlns="http://www.w3.org/2000/svg" d="m165.894531 218.90625h-62.6875c-4.332031 0-7.84375-3.511719-7.84375-7.847656 0-4.332032 3.511719-7.847656 7.84375-7.847656h62.6875c4.332031 0 7.84375 3.515624 7.84375 7.847656 0 4.335937-3.511719 7.847656-7.84375 7.847656zm0 0" fill="#A0DCF0" data-original="#a0dcf0"></path><path xmlns="http://www.w3.org/2000/svg" d="m116.007812 310.398438h-64.589843c-4.332031 0-7.84375-3.511719-7.84375-7.847657 0-4.335937 3.511719-7.847656 7.84375-7.847656h64.59375c4.332031 0 7.84375 3.511719 7.84375 7.847656 0 4.335938-3.515625 7.847657-7.847657 7.847657zm0 0" fill="#A7D16C" data-original="#a7d16c"></path><path xmlns="http://www.w3.org/2000/svg" d="m181.121094 310.398438h-39.023438c-4.332031 0-7.84375-3.511719-7.84375-7.847657 0-4.335937 3.511719-7.847656 7.84375-7.847656h39.023438c4.332031 0 7.84375 3.511719 7.84375 7.847656 0 4.335938-3.511719 7.847657-7.84375 7.847657zm0 0" fill="#AFB9D2" data-original="#afb9d2"></path><path xmlns="http://www.w3.org/2000/svg" d="m123.496094 249.40625h-39.566406c-4.332032 0-7.84375-3.515625-7.84375-7.847656 0-4.335938 3.511718-7.847656 7.84375-7.847656h39.566406c4.332031 0 7.847656 3.511718 7.847656 7.847656 0 4.332031-3.515625 7.847656-7.847656 7.847656zm0 0" fill="#AFB9D2" data-original="#afb9d2"></path><path xmlns="http://www.w3.org/2000/svg" d="m230.34375 249.40625h-79.003906c-4.332032 0-7.847656-3.515625-7.847656-7.847656 0-4.335938 3.515624-7.847656 7.847656-7.847656h79.003906c4.332031 0 7.84375 3.511718 7.84375 7.847656 0 4.332031-3.511719 7.847656-7.84375 7.847656zm0 0" fill="#A7D16C" data-original="#a7d16c"></path><path xmlns="http://www.w3.org/2000/svg" d="m148.089844 279.902344h-64.160156c-4.332032 0-7.84375-3.515625-7.84375-7.847656 0-4.335938 3.511718-7.851563 7.84375-7.851563h64.160156c4.332031 0 7.84375 3.515625 7.84375 7.851563 0 4.332031-3.511719 7.847656-7.84375 7.847656zm0 0" fill="#A0DCF0" data-original="#a0dcf0"></path><path xmlns="http://www.w3.org/2000/svg" d="m187.847656 279.902344h-13.453125c-4.332031 0-7.84375-3.515625-7.84375-7.847656 0-4.335938 3.511719-7.851563 7.84375-7.851563h13.453125c4.332032 0 7.84375 3.515625 7.84375 7.851563 0 4.332031-3.511718 7.847656-7.84375 7.847656zm0 0" fill="#AFB9D2" data-original="#afb9d2"></path><path xmlns="http://www.w3.org/2000/svg" d="m463.988281 223.980469h-207.992187v-73.234375h207.992187c2.707031 0 4.902344 2.195312 4.902344 4.902344v63.429687c0 2.707031-2.195313 4.902344-4.902344 4.902344zm0 0" fill="#FFFFFF" data-original="#ffffff"></path><path xmlns="http://www.w3.org/2000/svg" d="m468.890625 399.328125h-73.195313v-136.527344c0-2.398437 1.945313-4.34375 4.34375-4.34375h64.507813c2.398437 0 4.34375 1.945313 4.34375 4.34375zm0 0" fill="#C3B4FA" data-original="#c3b4fa"></path><path xmlns="http://www.w3.org/2000/svg" d="m356.421875 399.328125h-100.425781v-140.871094h96.082031c2.398437 0 4.34375 1.945313 4.34375 4.34375zm0 0" fill="#FFCD74" data-original="#ffcd74"></path><path xmlns="http://www.w3.org/2000/svg" d="m294.828125 223.980469 39.082031-39.101563c1.136719-1.136718 2.976563-1.136718 4.113282 0l38.886718 38.90625zm0 0" fill="#3879E3" data-original="#3879e3"></path><path xmlns="http://www.w3.org/2000/svg" d="m335.871094 223.980469 39.078125-39.101563c1.136719-1.136718 2.976562-1.136718 4.113281 0l38.886719 38.90625zm0 0" fill="#3879E3" data-original="#3879e3"></path><path xmlns="http://www.w3.org/2000/svg" d="m364.738281 171.164062c0 4.335938-3.511719 7.847657-7.84375 7.847657s-7.84375-3.511719-7.84375-7.847657c0-4.332031 3.511719-7.84375 7.84375-7.84375s7.84375 3.511719 7.84375 7.84375zm0 0" fill="#FF9650" data-original="#ff9650"></path><path xmlns="http://www.w3.org/2000/svg" d="m407.714844 481.476562h-303.433594c-10.238281 0-18.539062-8.296874-18.539062-18.535156v-111.355468c0-10.238282 8.300781-18.539063 18.539062-18.539063h303.433594c10.238281 0 18.539062 8.300781 18.539062 18.539063v111.355468c0 10.238282-8.300781 18.535156-18.539062 18.535156zm0 0" fill="#B4E173" data-original="#b4e173"></path><path xmlns="http://www.w3.org/2000/svg" d="m407.71875 333.046875h-30.601562c10.238281 0 18.535156 8.300781 18.535156 18.542969v111.347656c0 10.238281-8.296875 18.539062-18.535156 18.539062h30.601562c10.234375 0 18.535156-8.300781 18.535156-18.539062v-111.347656c0-10.242188-8.300781-18.542969-18.535156-18.542969zm0 0" fill="#A7D16C" data-original="#a7d16c"></path><g xmlns="http://www.w3.org/2000/svg" fill="#40A279"><path d="m130.527344 446.328125v-76.214844c0-1.5625.742187-2.734375 2.230468-3.515625 1.480469-.78125 3.28125-1.171875 5.390626-1.171875 2.109374 0 3.90625.390625 5.390624 1.171875 1.480469.78125 2.226563 1.953125 2.226563 3.515625v30.601563h26.367187v-30.601563c0-1.5625.742188-2.734375 2.226563-3.515625s3.28125-1.171875 5.390625-1.171875 3.90625.390625 5.390625 1.171875 2.226563 1.953125 2.226563 3.515625v76.214844c0 1.484375-.761719 2.65625-2.285157 3.515625-1.523437.859375-3.300781 1.289062-5.332031 1.289062-2.109375 0-3.90625-.425781-5.390625-1.289062-1.484375-.859375-2.226563-2.03125-2.226563-3.515625v-33.652344h-26.367187v33.652344c0 1.484375-.761719 2.65625-2.285156 3.515625-1.523438.859375-3.300781 1.289062-5.332031 1.289062-2.109376 0-3.910157-.425781-5.390626-1.289062-1.488281-.859375-2.230468-2.03125-2.230468-3.515625zm0 0" fill="#40A279" data-original="#40a279"></path><path d="m195.804688 372.050781c0-1.75.410156-3.292969 1.230468-4.625.820313-1.335937 2.011719-2.003906 3.574219-2.003906h49.574219c1.5625 0 2.753906.667969 3.574218 2.003906.820313 1.332031 1.230469 2.871094 1.230469 4.625 0 1.828125-.429687 3.40625-1.289062 4.738281-.859375 1.335938-2.03125 2-3.515625 2h-17.109375v67.511719c0 1.496094-.761719 2.671875-2.285157 3.539063-1.523437.863281-3.300781 1.292968-5.332031 1.292968-2.109375 0-3.910156-.429687-5.390625-1.292968-1.488281-.867188-2.226562-2.042969-2.226562-3.539063v-67.511719h-17.230469c-1.484375 0-2.65625-.644531-3.515625-1.941406-.859375-1.292968-1.289062-2.894531-1.289062-4.796875zm0 0" fill="#40A279" data-original="#40a279"></path><path d="m263.308594 446.328125v-73.28125c0-2.582031.722656-4.496094 2.167968-5.746094 1.445313-1.25 3.261719-1.875 5.449219-1.875 2.890625 0 5.117188.507813 6.679688 1.523438s3.28125 3.203125 5.15625 6.566406l14.414062 26.261719 14.417969-26.261719c1.875-3.363281 3.609375-5.550781 5.214844-6.566406 1.597656-1.015625 3.84375-1.523438 6.738281-1.523438 2.183594 0 4 .625 5.449219 1.875 1.445312 1.25 2.167968 3.164063 2.167968 5.746094v73.28125c0 1.484375-.761718 2.65625-2.285156 3.515625-1.523437.859375-3.300781 1.289062-5.332031 1.289062-2.109375 0-3.910156-.425781-5.390625-1.289062-1.484375-.859375-2.226562-2.03125-2.226562-3.515625v-50.417969l-13.710938 24.386719c-1.097656 2.03125-2.816406 3.046875-5.160156 3.046875-2.265625 0-3.945313-1.015625-5.039063-3.046875l-13.476562-25.324219v51.355469c0 1.484375-.761719 2.65625-2.285157 3.515625-1.523437.859375-3.300781 1.289062-5.332031 1.289062-2.109375 0-3.90625-.425781-5.390625-1.289062-1.484375-.859375-2.226562-2.03125-2.226562-3.515625zm0 0" fill="#40A279" data-original="#40a279"></path><path d="m345.226562 446.328125v-76.214844c0-1.5625.738282-2.734375 2.226563-3.515625 1.480469-.78125 3.28125-1.171875 5.390625-1.171875s3.90625.390625 5.390625 1.171875 2.226563 1.953125 2.226563 3.515625v67.652344h28.59375c1.40625 0 2.519531.667969 3.339843 1.996094.820313 1.328125 1.234375 2.890625 1.234375 4.6875 0 1.800781-.414062 3.363281-1.234375 4.691406-.820312 1.328125-1.933593 1.992187-3.339843 1.992187h-37.148438c-1.800781 0-3.359375-.425781-4.6875-1.289062-1.332031-.859375-1.992188-2.03125-1.992188-3.515625zm0 0" fill="#40A279" data-original="#40a279"></path></g></g></svg>