<svg xmlns="http://www.w3.org/2000/svg" xmlns:xlink="http://www.w3.org/1999/xlink" xmlns:svgjs="http://svgjs.com/svgjs" width="80" height="80" x="0" y="0" viewBox="0 0 256 256" style="enable-background:new 0 0 512 512" xml:space="preserve"><g><g xmlns="http://www.w3.org/2000/svg"><g><path d="m32.035 200.374c-7.535 0-13.665-6.13-13.665-13.665v-123.777c0-7.535 6.13-13.665 13.665-13.665h191.931c7.535 0 13.665 6.13 13.665 13.665v123.776c0 7.535-6.13 13.665-13.665 13.665h-191.931z" fill="#CECECE" data-original="#cecece"></path><g><path d="m33.036 186.709v-123.776c0-7.535 6.13-13.665 13.665-13.665h-14.666c-7.534 0-13.665 6.13-13.665 13.665v123.776c0 7.535 6.13 13.665 13.665 13.665h14.667c-7.535 0-13.666-6.131-13.666-13.665z" fill="#AFAFAF" data-original="#afafaf"></path></g><g><path d="m222.964 186.709v-123.776c0-7.535-6.13-13.665-13.665-13.665h14.667c7.534 0 13.665 6.13 13.665 13.665v123.776c0 7.535-6.13 13.665-13.665 13.665h-14.667c7.534 0 13.665-6.131 13.665-13.665z" fill="#E2E2E2" data-original="#e2e2e2"></path></g><path d="m229.221 174.709c0 2.891-2.365 5.256-5.256 5.256h-191.93c-2.891 0-5.256-2.365-5.256-5.256v-111.777c0-2.891 2.365-5.256 5.256-5.256h191.931c2.891 0 5.256 2.365 5.256 5.256v111.777z" fill="#63BCE7" data-original="#63bce7"></path><g><path d="m41.446 174.709v-111.777c0-2.891 2.365-5.256 5.256-5.256h-14.667c-2.891 0-5.256 2.365-5.256 5.256v111.777c0 2.891 2.365 5.256 5.256 5.256h14.667c-2.891 0-5.256-2.366-5.256-5.256z" fill="#6377E7" data-original="#6377e7"></path></g><g><path d="m214.554 174.709v-111.777c0-2.891-2.365-5.256-5.256-5.256h14.667c2.891 0 5.256 2.365 5.256 5.256v111.777c0 2.891-2.365 5.256-5.256 5.256h-14.667c2.891 0 5.256-2.366 5.256-5.256z" fill="#63E2E7" data-original="#63e2e7"></path></g><path d="m89.809 222.532h76.383v9.197h-76.383z" fill="#9E9E9E" data-original="#9e9e9e"></path><path d="m100.67 200.374h54.659v22.158h-54.659z" fill="#CECECE" data-original="#cecece"></path><g><path d="m100.67 200.374h14.667v22.158h-14.667z" fill="#AFAFAF" data-original="#afafaf"></path></g><g><path d="m89.809 222.532h14.667v9.197h-14.667z" fill="#707070" data-original="#707070"></path></g><circle cx="128" cy="190.169" fill="#9E9E9E" r="4.5" data-original="#9e9e9e"></circle></g><g><path d="m188.836 40.627-27.329-27.329h-94.343v166.667h121.672z" fill="#F8AF23" data-original="#f8af23"></path><path d="m67.164 130.947h121.673v49.018h-121.673z" fill="#F46275" data-original="#f46275"></path><g fill="#3F3679"><g fill="#3F3679"><path d="m27.323 241.202h-18.003c-.829 0-1.5.671-1.5 1.5s.671 1.5 1.5 1.5h18.003c.829 0 1.5-.671 1.5-1.5s-.671-1.5-1.5-1.5z" fill="#000000" data-original="#000000"></path><path d="m246.68 241.202h-18.003c-.828 0-1.5.671-1.5 1.5s.672 1.5 1.5 1.5h18.003c.828 0 1.5-.671 1.5-1.5s-.672-1.5-1.5-1.5z" fill="#000000" data-original="#000000"></path><path d="m218.479 241.202h-180.958c-.829 0-1.5.671-1.5 1.5s.671 1.5 1.5 1.5h180.959c.828 0 1.5-.671 1.5-1.5s-.672-1.5-1.501-1.5z" fill="#000000" data-original="#000000"></path><path d="m9.32 233.229h80.489 76.383 80.488c.828 0 1.5-.671 1.5-1.5s-.672-1.5-1.5-1.5h-78.988v-7.697c0-.829-.672-1.5-1.5-1.5h-9.362v-19.158h67.137c8.361 0 15.164-6.803 15.164-15.165v-123.776c0-8.362-6.803-15.165-15.164-15.165h-33.63v-7.14c0-.398-.158-.779-.439-1.061l-27.329-27.33c-.281-.281-.663-.439-1.061-.439h-94.344c-.829 0-1.5.671-1.5 1.5v34.47h-33.629c-8.362 0-15.165 6.803-15.165 15.165v123.776c0 8.362 6.803 15.165 15.165 15.165h67.135v19.158h-9.362c-.829 0-1.5.671-1.5 1.5v7.697h-78.988c-.829 0-1.5.671-1.5 1.5s.671 1.5 1.5 1.5zm22.715-54.765c-2.071 0-3.756-1.685-3.756-3.755v-111.777c0-2.071 1.685-3.755 3.756-3.755h33.629v71.77 47.518h-33.629zm36.629-46.017h118.672v46.018h-118.672zm94.343-115.528 22.208 22.208h-22.208zm27.329 114.028v-71.77h33.63c2.07 0 3.755 1.685 3.755 3.755v111.777c0 2.071-1.685 3.755-3.755 3.755h-33.63zm-30.329-116.149v25.83c0 .829.672 1.5 1.5 1.5h25.829v87.319h-118.672v-114.649zm-140.137 171.911v-123.776c0-6.708 5.457-12.165 12.165-12.165h33.629v5.409h-33.629c-3.725 0-6.756 3.03-6.756 6.755v111.777c0 3.725 3.031 6.755 6.756 6.755h35.129 121.672 35.13c3.725 0 6.755-3.03 6.755-6.755v-111.777c0-3.725-3.03-6.755-6.755-6.755h-33.63v-5.409h33.63c6.707 0 12.164 5.457 12.164 12.165v123.776c0 6.708-5.457 12.165-12.164 12.165h-68.637-54.659-68.635c-6.708 0-12.165-5.457-12.165-12.165zm82.3 15.165h51.659v19.158h-51.659zm-10.861 22.158h9.362 54.659 9.362v6.197h-73.383z" fill="#000000" data-original="#000000"></path><path d="m128 196.169c3.309 0 6-2.691 6-6s-2.691-6-6-6-6 2.691-6 6 2.691 6 6 6zm0-9c1.654 0 3 1.346 3 3s-1.346 3-3 3-3-1.346-3-3 1.346-3 3-3z" fill="#000000" data-original="#000000"></path><path d="m86.047 79.78h3.701c1.172 0 2.201 1.531 2.201 3.276v10.587c0 3.46 2.28 6.276 5.082 6.276h3.582c.829 0 1.5-.671 1.5-1.5s-.671-1.5-1.5-1.5h-3.582c-.985 0-2.082-1.345-2.082-3.276v-10.587c0-1.912-.714-3.624-1.835-4.776 1.121-1.152 1.835-2.864 1.835-4.776v-10.586c0-1.931 1.097-3.276 2.082-3.276h3.582c.829 0 1.5-.671 1.5-1.5s-.671-1.5-1.5-1.5h-3.582c-2.802 0-5.082 2.815-5.082 6.276v10.586c0 1.745-1.029 3.276-2.201 3.276h-3.701c-.829 0-1.5.671-1.5 1.5s.672 1.5 1.5 1.5z" fill="#000000" data-original="#000000"></path><path d="m161.05 93.643c0 1.931-1.098 3.276-2.082 3.276h-3.582c-.828 0-1.5.671-1.5 1.5s.672 1.5 1.5 1.5h3.582c2.802 0 5.082-2.815 5.082-6.276v-10.587c0-1.745 1.028-3.276 2.201-3.276h3.702c.828 0 1.5-.671 1.5-1.5s-.672-1.5-1.5-1.5h-3.702c-1.173 0-2.201-1.531-2.201-3.276v-10.586c0-3.46-2.28-6.276-5.082-6.276h-3.582c-.828 0-1.5.671-1.5 1.5s.672 1.5 1.5 1.5h3.582c.984 0 2.082 1.345 2.082 3.276v10.586c0 1.912.714 3.624 1.835 4.776-1.121 1.152-1.835 2.864-1.835 4.776z" fill="#000000" data-original="#000000"></path><path d="m127.918 94.374c.829 0 1.5-.671 1.5-1.5v-18.666c0-.829-.671-1.5-1.5-1.5s-1.5.671-1.5 1.5v18.667c0 .828.671 1.499 1.5 1.499z" fill="#000000" data-original="#000000"></path></g><circle cx="127.918" cy="66.249" r="2.563" fill="#3F3679" data-original="#3f3679"></circle></g><g><path d="m154.186 168.514c-.956 1.578-2.365 2.835-4.227 3.774-1.862.94-4.118 1.409-6.768 1.409-3.993 0-7.28-.973-9.863-2.919-2.204-1.659-3.553-3.88-4.048-6.663-.138-.777.482-1.489 1.271-1.489h6.642c.586 0 1.089.404 1.236.972.23.891.652 1.624 1.264 2.198.822.772 1.87 1.158 3.145 1.158 1.107 0 1.979-.302 2.617-.906.637-.604.956-1.409.956-2.415 0-.906-.294-1.661-.881-2.264-.587-.604-1.317-1.099-2.189-1.485-.873-.386-2.081-.847-3.623-1.384-2.248-.771-4.085-1.517-5.51-2.239-1.426-.721-2.651-1.794-3.674-3.22-1.024-1.426-1.534-3.279-1.534-5.561 0-2.113.536-3.941 1.61-5.485 1.073-1.543 2.558-2.725 4.454-3.548 1.895-.822 4.067-1.233 6.516-1.233 3.958 0 7.103.94 9.435 2.818 1.955 1.576 3.197 3.647 3.725 6.214.163.792-.458 1.536-1.266 1.536h-6.793c-.574 0-1.063-.389-1.23-.938-.226-.743-.585-1.362-1.078-1.855-.688-.687-1.619-1.032-2.793-1.032-1.006 0-1.82.269-2.44.805-.621.537-.931 1.326-.931 2.365 0 .839.276 1.552.83 2.139.553.587 1.249 1.065 2.088 1.434s2.046.839 3.623 1.409c2.281.772 4.143 1.535 5.586 2.29 1.442.755 2.684 1.854 3.724 3.296 1.039 1.443 1.56 3.321 1.56 5.636 0 1.879-.478 3.606-1.434 5.183z" fill="#3F3679" data-original="#3f3679"></path></g><g><path d="m123.088 137.768c.708 0 1.283.574 1.283 1.283v23.022c0 3.724-1.015 6.592-3.044 8.605-2.03 2.013-4.839 3.019-8.429 3.019-3.892 0-6.978-1.098-9.259-3.296-2.02-1.945-3.146-4.646-3.377-8.104-.05-.744.539-1.381 1.285-1.381h5.96c.663 0 1.202.512 1.274 1.171.276 2.54 1.514 3.81 3.715 3.81 2.18 0 3.271-1.275 3.271-3.825v-23.022c0-.708.574-1.283 1.283-1.283h6.038z" fill="#3F3679" data-original="#3f3679"></path></g></g></g></g></svg>