<svg xmlns="http://www.w3.org/2000/svg" xmlns:xlink="http://www.w3.org/1999/xlink" xmlns:svgjs="http://svgjs.com/svgjs" width="80" height="80" x="0" y="0" viewBox="0 0 48 58" style="enable-background:new 0 0 512 512" xml:space="preserve"><g><g xmlns="http://www.w3.org/2000/svg" id="Page-1" fill="none" fill-rule="evenodd"><g id="012---Mobile-Code-Lines" fill-rule="nonzero" fill="none"><path id="Shape" d="m7 47.87v7.13c0 1.6568542 1.34314575 3 3 3h28c1.6568542 0 3-1.3431458 3-3v-52c0-1.65685425-1.3431458-3-3-3h-28c-1.65685425 0-3 1.34314575-3 3z" fill="#B0D3F0" data-original="#b0d3f0"></path><path id="Shape" d="m34 0-2.861 3.052c-.5672653.60498515-1.3596648.94815313-2.189.948h-9.9c-.8293352.00015313-1.6217347-.34301485-2.189-.948l-2.861-3.052z" fill="#3F5C6C" data-original="#3f5c6c"></path><path id="Shape" d="m41 50v5c0 1.6568542-1.3431458 3-3 3h-28c-1.65685425 0-3-1.3431458-3-3v-5c0 1.6568542 1.34314575 3 3 3h28c1.6568542 0 3-1.3431458 3-3z" fill="#3F5C6C" data-original="#3f5c6c"></path><rect id="Rectangle-path" fill="#547580" height="40" rx="3" width="48" y="8" data-original="#547580"></rect><path id="Shape" d="m7 21h-2c-.55228475 0-1-.4477153-1-1s.44771525-1 1-1h2c.55228475 0 1 .4477153 1 1s-.44771525 1-1 1z" fill="#FB7B76" data-original="#fb7b76"></path><path id="Shape" d="m22 21h-11c-.5522847 0-1-.4477153-1-1s.4477153-1 1-1h11c.5522847 0 1 .4477153 1 1s-.4477153 1-1 1z" fill="#D1D4D1" data-original="#d1d4d1"></path><path id="Shape" d="m7 25h-2c-.55228475 0-1-.4477153-1-1s.44771525-1 1-1h2c.55228475 0 1 .4477153 1 1s-.44771525 1-1 1z" fill="#FB7B76" data-original="#fb7b76"></path><path id="Shape" d="m27 25h-16c-.5522847 0-1-.4477153-1-1s.4477153-1 1-1h16c.5522847 0 1 .4477153 1 1s-.4477153 1-1 1z" fill="#D1D4D1" data-original="#d1d4d1"></path><path id="Shape" d="m7 29h-2c-.55228475 0-1-.4477153-1-1s.44771525-1 1-1h2c.55228475 0 1 .4477153 1 1s-.44771525 1-1 1z" fill="#FB7B76" data-original="#fb7b76"></path><path id="Shape" d="m17 29h-6c-.5522847 0-1-.4477153-1-1s.4477153-1 1-1h6c.5522847 0 1 .4477153 1 1s-.4477153 1-1 1z" fill="#F0C419" data-original="#f0c419"></path><path id="Shape" d="m7 33h-2c-.55228475 0-1-.4477153-1-1s.44771525-1 1-1h2c.55228475 0 1 .4477153 1 1s-.44771525 1-1 1z" fill="#FB7B76" data-original="#fb7b76"></path><path id="Shape" d="m22 33h-11c-.5522847 0-1-.4477153-1-1s.4477153-1 1-1h11c.5522847 0 1 .4477153 1 1s-.4477153 1-1 1z" fill="#D1D4D1" data-original="#d1d4d1"></path><path id="Shape" d="m7 37h-2c-.55228475 0-1-.4477153-1-1s.44771525-1 1-1h2c.55228475 0 1 .4477153 1 1s-.44771525 1-1 1z" fill="#FB7B76" data-original="#fb7b76"></path><path id="Shape" d="m27 37h-16c-.5522847 0-1-.4477153-1-1s.4477153-1 1-1h16c.5522847 0 1 .4477153 1 1s-.4477153 1-1 1z" fill="#F0C419" data-original="#f0c419"></path><path id="Shape" d="m7 41h-2c-.55228475 0-1-.4477153-1-1s.44771525-1 1-1h2c.55228475 0 1 .4477153 1 1s-.44771525 1-1 1z" fill="#FB7B76" data-original="#fb7b76"></path><path id="Shape" d="m34 41h-23c-.5522847 0-1-.4477153-1-1s.4477153-1 1-1h23c.5522847 0 1 .4477153 1 1s-.4477153 1-1 1z" fill="#D1D4D1" data-original="#d1d4d1"></path><path id="Shape" d="m7 45h-2c-.55228475 0-1-.4477153-1-1s.44771525-1 1-1h2c.55228475 0 1 .4477153 1 1s-.44771525 1-1 1z" fill="#FB7B76" data-original="#fb7b76"></path><g fill="#F0C419"><path id="Shape" d="m20 45h-9c-.5522847 0-1-.4477153-1-1s.4477153-1 1-1h9c.5522847 0 1 .4477153 1 1s-.4477153 1-1 1z" fill="#F0C419" data-original="#f0c419"></path><path id="Shape" d="m34 25h-3c-.5522847 0-1-.4477153-1-1s.4477153-1 1-1h3c.5522847 0 1 .4477153 1 1s-.4477153 1-1 1z" fill="#F0C419" data-original="#f0c419"></path><path id="Shape" d="m43 25h-5c-.5522847 0-1-.4477153-1-1s.4477153-1 1-1h5c.5522847 0 1 .4477153 1 1s-.4477153 1-1 1z" fill="#F0C419" data-original="#f0c419"></path></g><path id="Shape" d="m36 33h-10c-.5522847 0-1-.4477153-1-1s.4477153-1 1-1h10c.5522847 0 1 .4477153 1 1s-.4477153 1-1 1z" fill="#D1D4D1" data-original="#d1d4d1"></path><path id="Shape" d="m43 33h-3c-.5522847 0-1-.4477153-1-1s.4477153-1 1-1h3c.5522847 0 1 .4477153 1 1s-.4477153 1-1 1z" fill="#D1D4D1" data-original="#d1d4d1"></path><path id="Shape" d="m43 37h-12c-.5522847 0-1-.4477153-1-1s.4477153-1 1-1h12c.5522847 0 1 .4477153 1 1s-.4477153 1-1 1z" fill="#F0C419" data-original="#f0c419"></path><path id="Shape" d="m41 41h-3c-.5522847 0-1-.4477153-1-1s.4477153-1 1-1h3c.5522847 0 1 .4477153 1 1s-.4477153 1-1 1z" fill="#D1D4D1" data-original="#d1d4d1"></path><path id="Shape" d="m39 45h-15c-.5522847 0-1-.4477153-1-1s.4477153-1 1-1h15c.5522847 0 1 .4477153 1 1s-.4477153 1-1 1z" fill="#D1D4D1" data-original="#d1d4d1"></path><path id="Shape" d="m48 11v5h-48v-5c0-1.65685425 1.34314575-3 3-3h42c1.6568542 0 3 1.34314575 3 3z" fill="#4482C3" data-original="#4482c3"></path><path id="Shape" d="m44 13h-8c-.5522847 0-1-.4477153-1-1s.4477153-1 1-1h8c.5522847 0 1 .4477153 1 1s-.4477153 1-1 1z" fill="#FFFFFF" data-original="#ffffff"></path><circle id="Oval" cx="4" cy="12" fill="#F3D55B" r="1" data-original="#f3d55b"></circle><circle id="Oval" cx="8" cy="12" fill="#FF5364" r="1" data-original="#ff5364"></circle><circle id="Oval" cx="12" cy="12" fill="#65DDB9" r="1" data-original="#65ddb9"></circle></g></g></g></svg>