<svg xmlns="http://www.w3.org/2000/svg" xmlns:xlink="http://www.w3.org/1999/xlink" xmlns:svgjs="http://svgjs.com/svgjs" width="80" height="79.99990156262112" x="0" y="0" viewBox="0 0 512.00063 512" style="enable-background:new 0 0 512 512" xml:space="preserve"><g><path xmlns="http://www.w3.org/2000/svg" d="m510.25 230.082031-121.476562 210.507813c-2.332032 4.042968-6.628907 6.519531-11.296876 6.519531h-242.960937c-4.65625 0-8.957031-2.476563-11.289063-6.519531l-9.664062-16.753906c18.316406-2.25 36.121094-6.121094 53.285156-11.46875h195.160156c1.820313 0 3.503907-.972657 4.414063-2.554688l106.015625-183.707031c.910156-1.570313.910156-3.515625 0-5.097657l-98.738281-171.085937c-4.035157-17.25-9.539063-33.941406-16.359375-49.921875h20.136718c4.664063 0 8.964844 2.492188 11.296876 6.53125l121.476562 210.507812c2.332031 4.03125 2.332031 9.003907 0 13.042969zm0 0" fill="#5B5C6C" data-original="#5b5c6c"></path><path xmlns="http://www.w3.org/2000/svg" d="m381.765625 120.039062c0 137.335938-90.398437 253.554688-214.917969 292.328126-17.167968 5.347656-34.96875 9.21875-53.285156 11.46875l-111.8125-193.753907c-2.332031-4.039062-2.332031-9.011719 0-13.039062l121.476562-210.511719c2.332032-4.039062 6.632813-6.53125 11.289063-6.53125h222.824219c6.820312 15.980469 12.324218 32.675781 16.359375 49.921875 5.273437 22.519531 8.066406 45.992187 8.066406 70.117187zm0 0" fill="#707384" data-original="#707384"></path><path xmlns="http://www.w3.org/2000/svg" d="m472.4375 226.105469-106.015625 183.707031c-.910156 1.582031-2.59375 2.554688-4.414063 2.554688h-195.160156c124.519532-38.773438 214.917969-154.992188 214.917969-292.328126 0-24.125-2.792969-47.597656-8.066406-70.117187l98.738281 171.085937c.910156 1.582032.910156 3.527344 0 5.097657zm0 0" fill="#464655" data-original="#464655"></path><path xmlns="http://www.w3.org/2000/svg" d="m381.765625 120.039062c0 137.335938-90.398437 253.554688-214.917969 292.328126h-16.863281c-1.820313 0-3.503906-.972657-4.414063-2.554688l-106.003906-183.707031c-.910156-1.570313-.910156-3.515625 0-5.097657l106.003906-183.699218c.910157-1.578125 2.59375-2.554688 4.414063-2.554688h212.023437c1.820313 0 3.503907.972656 4.414063 2.554688l7.277344 12.613281c5.273437 22.519531 8.066406 45.992187 8.066406 70.117187zm0 0" fill="#5B5C6C" data-original="#5b5c6c"></path><path xmlns="http://www.w3.org/2000/svg" d="m400.023438 503.667969h-288.050782c-10.238281 0-18.539062-8.300781-18.539062-18.539063v-111.378906c0-10.238281 8.300781-18.539062 18.539062-18.539062h288.050782c10.242187 0 18.542968 8.300781 18.542968 18.539062v111.375c0 10.242188-8.300781 18.542969-18.542968 18.542969zm0 0" fill="#C3B4FA" data-original="#c3b4fa"></path><path xmlns="http://www.w3.org/2000/svg" d="m400.027344 355.210938h-29.652344c10.238281 0 18.535156 8.300781 18.535156 18.542968v111.367188c0 10.242187-8.296875 18.546875-18.535156 18.546875h29.652344c10.238281 0 18.539062-8.304688 18.539062-18.546875v-111.363282c0-10.246093-8.300781-18.546874-18.539062-18.546874zm0 0" fill="#A09BFF" data-original="#a09bff"></path><g xmlns="http://www.w3.org/2000/svg" fill="#8080E5"><path d="m128.585938 468.507812v-76.222656c0-1.25.46875-2.347656 1.40625-3.285156.941406-.9375 2.113281-1.40625 3.519531-1.40625h23.207031c18.519531 0 27.78125 8.167969 27.78125 24.507812 0 6.414063-1.386719 11.574219-4.160156 15.480469-2.773438 3.910157-6.507813 6.566407-11.195313 7.976563l15.355469 28.496094c.390625.46875.585938 1.09375.585938 1.875 0 1.957031-1.015626 3.773437-3.046876 5.453124-2.035156 1.679688-4.183593 2.519532-6.449218 2.519532s-4.023438-1.210938-5.273438-3.632813l-16.644531-32.367187h-9.847656v30.605468c0 1.488282-.742188 2.660157-2.226563 3.519532-1.484375.863281-3.28125 1.289062-5.390625 1.289062-2.035156 0-3.808593-.425781-5.335937-1.289062-1.519532-.859375-2.285156-2.03125-2.285156-3.519532zm15.238281-42.566406h12.894531c8.363281 0 12.542969-4.144531 12.542969-12.433594 0-8.363281-4.179688-12.546874-12.542969-12.546874h-12.894531zm0 0" fill="#8080E5" data-original="#8080e5"></path><path d="m190.710938 450.332031v-9.96875c0-6.40625 2.5-11.921875 7.503906-16.535156 5-4.609375 11.054687-6.917969 18.167968-6.917969 6.640626 0 12.324219 2.101563 17.054688 6.304688 4.726562 4.199218 7.089844 9.480468 7.089844 15.84375 0 2.324218-.292969 4.238281-.878906 5.746094-.585938 1.511718-1.484376 2.574218-2.695313 3.195312s-2.328125 1.007812-3.339844 1.164062c-1.015625.152344-2.34375.230469-3.984375.230469h-23.796875v1.761719c0 3.359375 1.25 6.078125 3.75 8.148438 2.5 2.070312 5.824219 3.105468 9.964844 3.105468 2.96875 0 5.898437-.742187 8.789063-2.226562 2.890624-1.484375 4.765624-2.226563 5.628906-2.226563 1.640625 0 3.007812.761719 4.101562 2.285157 1.09375 1.523437 1.640625 2.988281 1.640625 4.398437 0 2.1875-1.972656 4.359375-5.917969 6.507813-3.949218 2.152343-8.851562 3.222656-14.710937 3.222656-8.363281 0-15.179687-2.207032-20.453125-6.625-5.277344-4.414063-7.914062-10.21875-7.914062-17.414063zm15.121093-9.851562h17.113281c1.25 0 2.128907-.199219 2.640626-.601563.503906-.402344.761718-1.1875.761718-2.355468 0-2.554688-.996094-4.636719-2.988281-6.242188s-4.4375-2.410156-7.328125-2.410156c-2.734375 0-5.117188.789062-7.148438 2.355468-2.035156 1.570313-3.050781 3.632813-3.050781 6.1875zm0 0" fill="#8080E5" data-original="#8080e5"></path><path d="m246.273438 458.292969c0-6.15625 2.34375-10.484375 7.03125-12.996094 4.6875-2.503906 11.445312-3.757813 20.277343-3.757813h4.808594v-1.570312c0-2.972656-.84375-5.566406-2.523437-7.777344-1.679688-2.214844-4.277344-3.320312-7.792969-3.320312s-6.527344.667968-9.027344 1.996094c-2.5 1.328124-3.945313 1.992187-4.335937 1.992187-1.5625 0-2.8125-.78125-3.75-2.347656-.9375-1.5625-1.40625-3.28125-1.40625-5.15625 0-2.269531 2.007812-4.242188 6.035156-5.925781 4.023437-1.679688 8.261718-2.519532 12.71875-2.519532 8.515625 0 14.84375 2.171875 18.988281 6.507813 4.140625 4.339843 6.210937 9.792969 6.210937 16.359375v28.730468c0 1.332032-.703124 2.464844-2.109374 3.402344s-3.164063 1.40625-5.277344 1.40625c-1.953125 0-3.574219-.5-4.863282-1.503906-1.289062-1.003906-1.933593-2.214844-1.933593-3.632812v-3.636719c-5.390625 6.554687-11.332031 9.832031-17.816407 9.832031-4.453124 0-8.109374-1.371094-10.960937-4.109375-2.851563-2.742187-4.273437-6.730469-4.273437-11.972656zm15.117187-1.890625c0 2.007812.566406 3.507812 1.699219 4.507812 1.132812 1.003906 2.640625 1.5 4.515625 1.5 2.5 0 4.921875-1.109375 7.265625-3.335937 2.34375-2.222657 3.519531-4.671875 3.519531-7.34375v-2.335938h-1.761719c-4.765625 0-8.496094.464844-11.191406 1.390625-2.699219.929688-4.046875 2.800782-4.046875 5.617188zm0 0" fill="#8080E5" data-original="#8080e5"></path><path d="m302.886719 450.332031v-9.378906c0-7.195313 2.109375-13 6.328125-17.417969 4.21875-4.414062 10.550781-6.625 18.988281-6.625 5.3125 0 9.769531.9375 13.363281 2.816406 3.59375 1.875 5.390625 3.984376 5.390625 6.332032 0 1.640625-.585937 3.28125-1.757812 4.921875-1.171875 1.644531-2.578125 2.464843-4.21875 2.464843-.46875 0-1.855469-.527343-4.160157-1.582031-2.304687-1.058593-4.789062-1.582031-7.445312-1.582031-7.578125 0-11.367188 3.566406-11.367188 10.703125v9.3125c0 7.140625 3.828126 10.707031 11.484376 10.707031 2.65625 0 5.117187-.566406 7.386718-1.699218 2.265625-1.132813 3.710938-1.703126 4.335938-1.703126 1.875 0 3.417968.785157 4.632812 2.347657 1.210938 1.5625 1.816406 3.164062 1.816406 4.808593 0 2.421876-1.898437 4.632813-5.6875 6.625-3.789062 1.992188-8.339843 2.988282-13.65625 2.988282-8.515624 0-14.882812-2.1875-19.105468-6.566406-4.21875-4.375-6.328125-10.199219-6.328125-17.472657zm0 0" fill="#8080E5" data-original="#8080e5"></path><path d="m355.515625 454.542969v-56.214844c0-1.3125.777344-2.414063 2.34375-3.304687 1.558594-.886719 3.28125-1.332032 5.15625-1.332032 2.03125 0 3.808594.433594 5.332031 1.296875 1.523438.867188 2.285156 1.9375 2.285156 3.214844v19.410156h13.832032c1.171875 0 2.109375.597657 2.8125 1.785157s1.054687 2.585937 1.054687 4.195312c0 1.613281-.351562 3.011719-1.054687 4.199219s-1.640625 1.78125-2.8125 1.78125h-13.832032v24.457031c0 2.15625.488282 3.683594 1.46875 4.578125.972657.894531 2.675782 1.339844 5.097657 1.339844h4.570312c2.03125 0 3.613281.652343 4.75 1.960937 1.128907 1.308594 1.695313 2.863282 1.695313 4.664063 0 1.878906-.566406 3.472656-1.695313 4.78125-1.136719 1.308593-2.71875 1.960937-4.75 1.960937h-4.570312c-14.457031 0-21.683594-6.257812-21.683594-18.773437zm0 0" fill="#8080E5" data-original="#8080e5"></path></g><path xmlns="http://www.w3.org/2000/svg" d="m272.902344 199.917969c0-9.335938-7.570313-16.910157-16.902344-16.910157-9.335938 0-16.902344 7.574219-16.902344 16.910157 0 9.339843 7.566406 16.910156 16.902344 16.910156 9.332031 0 16.902344-7.570313 16.902344-16.910156zm0 0" fill="#A0DCF0" data-original="#a0dcf0"></path><path xmlns="http://www.w3.org/2000/svg" d="m304.644531 316.304688c-12.234375 0-26.539062-5.898438-41.753906-17.4375-20.695313-15.6875-41.324219-40.324219-58.085937-69.375-16.765626-29.050782-27.777344-59.246094-31.011719-85.019532-3.523438-28.089844 2.667969-48.261718 17.4375-56.792968 14.765625-8.53125 35.320312-3.808594 57.875 13.289062 20.695312 15.691406 41.324219 40.328125 58.085937 69.378906 16.765625 29.050782 27.777344 59.242188 31.011719 85.015625 3.527344 28.09375-2.667969 48.265625-17.433594 56.792969-4.804687 2.777344-10.226562 4.148438-16.125 4.148438zm-97.148437-217.089844c-3.195313 0-6.027344.679687-8.421875 2.0625-8.824219 5.09375-12.363281 20.125-9.714844 41.242187 2.980469 23.742188 13.289063 51.84375 29.03125 79.121094 15.742187 27.28125 34.914063 50.261719 53.976563 64.714844 16.953124 12.851562 31.734374 17.300781 40.554687 12.207031 8.824219-5.097656 12.363281-20.128906 9.714844-41.242188-2.980469-23.746093-13.289063-51.84375-29.03125-79.125-15.742188-27.277343-34.910157-50.261718-53.976563-64.714843-12.351562-9.363281-23.550781-14.265625-32.132812-14.265625zm0 0" fill="#54A1FF" data-original="#54a1ff"></path><path xmlns="http://www.w3.org/2000/svg" d="m207.351562 316.304688c-5.898437 0-11.316406-1.371094-16.121093-4.148438-14.769531-8.527344-20.960938-28.699219-17.4375-56.792969 3.234375-25.773437 14.246093-55.964843 31.011719-85.015625 16.761718-29.050781 37.390624-53.6875 58.085937-69.378906 22.554687-17.097656 43.109375-21.820312 57.878906-13.289062 14.765625 8.53125 20.960938 28.703124 17.433594 56.792968-3.234375 25.773438-14.246094 55.96875-31.011719 85.019532-16.761718 29.046874-37.390625 53.6875-58.085937 69.375-15.214844 11.535156-29.519531 17.4375-41.753907 17.4375zm97.148438-217.089844c-8.582031 0-19.777344 4.902344-32.132812 14.265625-19.0625 14.453125-38.234376 37.4375-53.972657 64.714843-15.742187 27.28125-26.054687 55.378907-29.03125 79.125-2.652343 21.113282.890625 36.144532 9.710938 41.242188 8.824219 5.097656 23.605469.644531 40.558593-12.207031 19.0625-14.453125 38.230469-37.433594 53.972657-64.714844 15.742187-27.277344 26.050781-55.375 29.03125-79.121094 2.648437-21.117187-.890625-36.148437-9.714844-41.242187-2.390625-1.382813-5.226563-2.0625-8.421875-2.0625zm0 0" fill="#54A1FF" data-original="#54a1ff"></path><path xmlns="http://www.w3.org/2000/svg" d="m256 259.0625c-33.527344 0-65.171875-5.554688-89.097656-15.640625-26.082032-10.992187-40.445313-26.441406-40.445313-43.503906s14.363281-32.507813 40.445313-43.503907c23.925781-10.082031 55.570312-15.636718 89.097656-15.636718s65.167969 5.554687 89.097656 15.636718c26.078125 10.996094 40.441406 26.441407 40.441406 43.503907s-14.363281 32.511719-40.441406 43.503906c-23.929687 10.085937-55.570312 15.640625-89.097656 15.640625zm0-102.585938c-67.09375 0-113.851562 22.894532-113.851562 43.441407 0 20.550781 46.757812 43.445312 113.851562 43.445312 67.089844 0 113.847656-22.894531 113.847656-43.445312 0-20.546875-46.757812-43.441407-113.847656-43.441407zm0 0" fill="#54A1FF" data-original="#54a1ff"></path></g></svg>