<svg xmlns="http://www.w3.org/2000/svg" xmlns:xlink="http://www.w3.org/1999/xlink" xmlns:svgjs="http://svgjs.com/svgjs" width="80" height="80" x="0" y="0" viewBox="0 0 512 512" style="enable-background:new 0 0 512 512" xml:space="preserve"><g><path xmlns="http://www.w3.org/2000/svg" d="m505.824219 30.933594v336.824218c0 17.074219-13.851563 30.929688-30.925781 30.929688h-441.941407c-17.070312 0-30.925781-13.855469-30.925781-30.929688v-336.824218c0-17.078125 13.851562-30.92968775 30.925781-30.92968775h441.945313c17.070312 0 30.921875 13.85156275 30.921875 30.92968775zm0 0" fill="#E4EAF7" data-original="#e4eaf7"></path><path xmlns="http://www.w3.org/2000/svg" d="m505.824219 30.929688v336.824218c0 17.074219-13.851563 30.929688-30.921875 30.929688h-55.550782c17.074219 0 30.921876-13.855469 30.921876-30.929688v-336.824218c0-17.074219-13.847657-30.929688-30.921876-30.929688h55.550782c17.070312 0 30.921875 13.855469 30.921875 30.929688zm0 0" fill="#D2DCF0" data-original="#d2dcf0"></path><path xmlns="http://www.w3.org/2000/svg" d="m43.097656 26.332031c0 4.261719-3.457031 7.71875-7.71875 7.71875-4.261718 0-7.71875-3.457031-7.71875-7.71875s3.457032-7.71875 7.71875-7.71875c4.261719 0 7.71875 3.457031 7.71875 7.71875zm0 0" fill="#D2555F" data-original="#d2555f"></path><path xmlns="http://www.w3.org/2000/svg" d="m69.789062 26.332031c0 4.261719-3.453124 7.71875-7.71875 7.71875-4.261718 0-7.714843-3.457031-7.714843-7.71875s3.453125-7.71875 7.714843-7.71875c4.265626 0 7.71875 3.457031 7.71875 7.71875zm0 0" fill="#FF9650" data-original="#ff9650"></path><path xmlns="http://www.w3.org/2000/svg" d="m2.039062 49.910156h92.820313c7.875 0 15.34375-3.496094 20.394531-9.539062l25.742188-30.824219c5.050781-6.046875 12.519531-9.5390625 20.394531-9.5390625h66.8125c7.929687 0 15.449219 3.5429685 20.496094 9.6640625l25.21875 30.574219c5.050781 6.121094 12.566406 9.664062 20.496093 9.664062h211.40625v63.128906h-503.78125" fill="#BEC8DC" data-original="#bec8dc"></path><path xmlns="http://www.w3.org/2000/svg" d="m450.273438 49.910156h55.550781v63.125h-55.550781zm0 0" fill="#AFBBD0" data-original="#afbbd0"></path><path xmlns="http://www.w3.org/2000/svg" d="m96.480469 26.332031c0 4.261719-3.453125 7.71875-7.714844 7.71875-4.265625 0-7.71875-3.457031-7.71875-7.71875s3.453125-7.71875 7.71875-7.71875c4.261719 0 7.714844 3.457031 7.714844 7.71875zm0 0" fill="#87B45F" data-original="#87b45f"></path><path xmlns="http://www.w3.org/2000/svg" d="m454.082031 81.941406c0 4.261719-3.453125 7.71875-7.71875 7.71875-4.261719 0-7.714843-3.457031-7.714843-7.71875 0-4.261718 3.453124-7.71875 7.714843-7.71875 4.265625 0 7.71875 3.457032 7.71875 7.71875zm0 0" fill="#54A1FF" data-original="#54a1ff"></path><path xmlns="http://www.w3.org/2000/svg" d="m484.953125 81.941406c0 4.261719-3.453125 7.71875-7.714844 7.71875-4.265625 0-7.71875-3.457031-7.71875-7.71875 0-4.261718 3.453125-7.71875 7.71875-7.71875 4.261719 0 7.714844 3.457032 7.714844 7.71875zm0 0" fill="#54A1FF" data-original="#54a1ff"></path><path xmlns="http://www.w3.org/2000/svg" d="m352.742188 89.660156h-252.546876c-4.261718 0-7.71875-3.457031-7.71875-7.71875 0-4.265625 3.457032-7.71875 7.71875-7.71875h252.546876c4.265624 0 7.71875 3.453125 7.71875 7.71875 0 4.261719-3.453126 7.71875-7.71875 7.71875zm0 0" fill="#FFFFFF" data-original="#ffffff"></path><path xmlns="http://www.w3.org/2000/svg" d="m224.070312 39.789062h-58.355468c-4.265625 0-7.71875-3.457031-7.71875-7.722656 0-4.261718 3.453125-7.71875 7.71875-7.71875h58.355468c4.261719 0 7.714844 3.457032 7.714844 7.71875 0 4.265625-3.453125 7.722656-7.714844 7.722656zm0 0" fill="#5B5C6C" data-original="#5b5c6c"></path><path xmlns="http://www.w3.org/2000/svg" d="m37.460938 95.378906c-1.875 0-3.753907-.679687-5.238282-2.054687l-5.941406-5.496094c-1.539062-1.425781-2.433594-3.417969-2.472656-5.515625-.042969-2.097656.773437-4.125 2.257812-5.609375l5.941406-5.941406c3.011719-3.011719 7.898438-3.011719 10.914063.003906 3.011719 3.011719 3.011719 7.902344 0 10.914063l-.265625.265624.050781.046876c3.128907 2.894531 3.316407 7.777343.421875 10.90625-1.519531 1.648437-3.589844 2.480468-5.667968 2.480468zm0 0" fill="#5B5C6C" data-original="#5b5c6c"></path><path xmlns="http://www.w3.org/2000/svg" d="m62.015625 95.378906c-2.078125 0-4.148437-.832031-5.667969-2.476562-2.894531-3.128906-2.703125-8.015625.421875-10.910156l.050781-.046876-.265624-.261718c-3.011719-3.015625-3.011719-7.90625 0-10.917969 3.015624-3.015625 7.898437-3.015625 10.914062 0l5.941406 5.9375c1.484375 1.484375 2.300782 3.511719 2.257813 5.609375-.039063 2.097656-.933594 4.089844-2.476563 5.515625l-5.9375 5.496094c-1.484375 1.375-3.363281 2.054687-5.238281 2.054687zm0 0" fill="#5B5C6C" data-original="#5b5c6c"></path><g xmlns="http://www.w3.org/2000/svg" fill="#A0DCF0"><path d="m317.523438 163.449219h-274.914063c-4.261719 0-7.71875-3.457031-7.71875-7.722657 0-4.261718 3.457031-7.71875 7.71875-7.71875h274.914063c4.261718 0 7.714843 3.457032 7.714843 7.71875 0 4.265626-3.453125 7.722657-7.714843 7.722657zm0 0" fill="#A0DCF0" data-original="#a0dcf0"></path><path d="m180.066406 194.839844h-137.457031c-4.261719 0-7.71875-3.453125-7.71875-7.71875s3.457031-7.71875 7.71875-7.71875h137.457031c4.261719 0 7.714844 3.453125 7.714844 7.71875.003906 4.265625-3.453125 7.71875-7.714844 7.71875zm0 0" fill="#A0DCF0" data-original="#a0dcf0"></path><path d="m317.523438 249.394531h-274.914063c-4.261719 0-7.71875-3.457031-7.71875-7.722656 0-4.261719 3.457031-7.71875 7.71875-7.71875h274.914063c4.261718 0 7.714843 3.457031 7.714843 7.71875 0 4.265625-3.453125 7.722656-7.714843 7.722656zm0 0" fill="#A0DCF0" data-original="#a0dcf0"></path><path d="m180.066406 280.785156h-137.457031c-4.261719 0-7.71875-3.457031-7.71875-7.71875 0-4.265625 3.457031-7.71875 7.71875-7.71875h137.457031c4.261719 0 7.714844 3.453125 7.714844 7.71875 0 4.261719-3.453125 7.71875-7.714844 7.71875zm0 0" fill="#A0DCF0" data-original="#a0dcf0"></path><path d="m317.523438 332.273438h-274.914063c-4.261719 0-7.71875-3.457032-7.71875-7.722657 0-4.261719 3.457031-7.71875 7.71875-7.71875h274.914063c4.261718 0 7.714843 3.457031 7.714843 7.71875 0 4.265625-3.453125 7.722657-7.714843 7.722657zm0 0" fill="#A0DCF0" data-original="#a0dcf0"></path><path d="m180.066406 363.664062h-137.457031c-4.261719 0-7.71875-3.453124-7.71875-7.71875 0-4.265624 3.457031-7.71875 7.71875-7.71875h137.457031c4.261719 0 7.714844 3.453126 7.714844 7.71875.003906 4.265626-3.453125 7.71875-7.714844 7.71875zm0 0" fill="#A0DCF0" data-original="#a0dcf0"></path></g><path xmlns="http://www.w3.org/2000/svg" d="m357.816406 355.945312h106.632813c2.800781 0 5.070312-2.269531 5.070312-5.070312v-190.078125c0-2.800781-2.269531-5.070313-5.070312-5.070313h-106.632813c-2.800781 0-5.074218 2.269532-5.074218 5.070313v190.078125c0 2.800781 2.273437 5.070312 5.074218 5.070312zm0 0" fill="#AFB9D2" data-original="#afb9d2"></path><path xmlns="http://www.w3.org/2000/svg" d="m420.289062 423.15625-22.492187 22.496094-49.46875-49.480469 22.488281-22.496094zm0 0" fill="#FFD764" data-original="#ffd764"></path><path xmlns="http://www.w3.org/2000/svg" d="m479.789062 503.695312-1.460937 1.464844c-9.117187 9.121094-23.902344 9.121094-33.019531 0l-65.914063-65.925781c-.832031-.832031-.832031-2.179687 0-3.007813l31.46875-31.476562c.832031-.832031 2.175781-.832031 3.007813 0l65.917968 65.933594c9.117188 9.117187 9.117188 23.894531 0 33.011718zm0 0" fill="#FF9650" data-original="#ff9650"></path><path xmlns="http://www.w3.org/2000/svg" d="m479.789062 470.679688-65.917968-65.929688c-.832032-.832031-2.175782-.832031-3.007813 0l-10.726562 10.726562 62.546875 62.558594c9.117187 9.117188 9.117187 23.902344 0 33.019532l-.945313.945312c6.003907.019531 12.007813-2.257812 16.585938-6.835938l1.464843-1.464843c9.113282-9.117188 9.113282-23.902344 0-33.019531zm0 0" fill="#FF7A17" data-original="#ff7a17"></path><path xmlns="http://www.w3.org/2000/svg" d="m363.144531 214.023438c48.382813 48.394531 48.382813 126.855468 0 175.25-48.382812 48.394531-126.828125 48.394531-175.210937 0-48.382813-48.394532-48.382813-126.855469 0-175.25 48.382812-48.390626 126.828125-48.390626 175.210937 0zm0 0" fill="#FFCD74" data-original="#ffcd74"></path><path xmlns="http://www.w3.org/2000/svg" d="m363.144531 214.027344c-41.175781-41.1875-104.125-47.3125-151.789062-18.394532 43.71875-20.972656 105.15625-14.398437 141.390625 21.84375 45.898437 45.90625 45.898437 120.339844 0 166.25-36.230469 36.238282-97.671875 44.914063-141.390625 23.941407 47.664062 28.917969 110.613281 22.792969 151.789062-18.394531 48.382813-48.390626 48.382813-126.855469 0-175.246094zm0 0" fill="#FFB442" data-original="#ffb442"></path><path xmlns="http://www.w3.org/2000/svg" d="m340.976562 367.105469c-36.140624 36.148437-94.734374 36.148437-130.886718 0-16.371094-16.375-25.324219-37.363281-26.867188-58.78125-.371094-5.136719-.308594-10.304688.175782-15.441407.511718-5.414062 1.5-10.796874 2.960937-16.074218 1.453125-5.230469 3.375-10.355469 5.765625-15.316406 4.394531-9.152344 10.382812-17.714844 17.964844-25.300782 36.152344-36.148437 94.746094-36.148437 130.886718 0 36.152344 36.148438 36.152344 94.765625 0 130.914063zm0 0" fill="#D2DCF0" data-original="#d2dcf0"></path><path xmlns="http://www.w3.org/2000/svg" d="m340.980469 236.191406c-11.164063-11.164062-24.472657-18.871094-38.597657-23.140625 6.039063 3.71875 11.753907 8.171875 16.988282 13.410157 36.144531 36.148437 36.144531 94.761718 0 130.910156-24.976563 24.984375-60.679688 32.691406-92.285156 23.144531 35.667968 21.960937 82.988281 17.507813 113.894531-13.40625 36.144531-36.152344 36.144531-94.765625 0-130.917969zm0 0" fill="#E4EAF7" data-original="#e4eaf7"></path><path xmlns="http://www.w3.org/2000/svg" d="m256.566406 494.0625c0 4.261719-3.457031 7.71875-7.71875 7.71875-4.261718 0-7.71875-3.457031-7.71875-7.71875s3.457032-7.71875 7.71875-7.71875c4.261719 0 7.71875 3.457031 7.71875 7.71875zm0 0" fill="#A09BFF" data-original="#a09bff"></path><path xmlns="http://www.w3.org/2000/svg" d="m283.257812 494.0625c0 4.261719-3.457031 7.71875-7.71875 7.71875-4.261718 0-7.71875-3.457031-7.71875-7.71875s3.457032-7.71875 7.71875-7.71875c4.261719 0 7.71875 3.457031 7.71875 7.71875zm0 0" fill="#A09BFF" data-original="#a09bff"></path><path xmlns="http://www.w3.org/2000/svg" d="m309.949219 494.0625c0 4.261719-3.457031 7.71875-7.71875 7.71875s-7.71875-3.457031-7.71875-7.71875 3.457031-7.71875 7.71875-7.71875 7.71875 3.457031 7.71875 7.71875zm0 0" fill="#A09BFF" data-original="#a09bff"></path><path xmlns="http://www.w3.org/2000/svg" d="m275.539062 269.210938c0 4.261718-3.457031 7.71875-7.71875 7.71875h-80.109374c-.464844 0-.917969-.039063-1.351563-.121094 1.453125-5.230469 3.375-10.355469 5.765625-15.316406h75.695312c4.261719 0 7.71875 3.445312 7.71875 7.71875zm0 0" fill="#78B9C8" data-original="#78b9c8"></path><path xmlns="http://www.w3.org/2000/svg" d="m235.476562 300.605469c0 4.257812-3.445312 7.71875-7.714843 7.71875h-44.539063c-.371094-5.136719-.308594-10.304688.175782-15.4375h44.363281c4.269531-.003907 7.714843 3.445312 7.714843 7.71875zm0 0" fill="#78B9C8" data-original="#78b9c8"></path><path xmlns="http://www.w3.org/2000/svg" d="m0 495.5625c0-1.765625.671875-3.554688 2.019531-5.363281 1.34375-1.804688 2.863281-2.710938 4.554688-2.710938.996093 0 2.132812.480469 3.402343 1.4375 1.265626.960938 2.496094 2.019531 3.6875 3.175781 1.191407 1.160157 2.902344 2.214844 5.132813 3.175782 2.226563.957031 4.6875 1.4375 7.378906 1.4375 3.691407 0 6.765625-.84375 9.226563-2.539063 2.457031-1.691406 3.6875-4.1875 3.6875-7.496093 0-2.304688-.671875-4.363282-2.015625-6.167969-1.347657-1.808594-3.113281-3.308594-5.304688-4.5-2.191406-1.191407-4.59375-2.34375-7.207031-3.460938-2.613281-1.113281-5.246094-2.363281-7.898438-3.746093-2.652343-1.386719-5.074218-2.941407-7.265624-4.671876-2.191407-1.730468-3.960938-4.039062-5.304688-6.921874-1.347656-2.882813-2.019531-6.171876-2.019531-9.859376 0-4.136718.828125-7.789062 2.480469-10.949218 1.652343-3.160156 3.863281-5.617188 6.632812-7.375 2.765625-1.753906 5.722656-3.042969 8.878906-3.863282 3.152344-.816406 6.492188-1.226562 10.03125-1.226562 1.996094 0 4.113282.136719 6.339844.414062 2.230469.277344 4.59375.730469 7.09375 1.363282 2.496094.628906 4.535156 1.617187 6.113281 2.960937 1.574219 1.339844 2.363281 2.917969 2.363281 4.734375 0 1.710938-.539062 3.484375-1.613281 5.3125-1.078125 1.828125-2.539062 2.746094-4.382812 2.746094-.691407 0-2.578125-.734375-5.652344-2.195312-3.074219-1.457032-6.496094-2.1875-10.261719-2.1875-4.152344 0-7.363281.785156-9.628906 2.363281-2.269531 1.574219-3.402344 3.746093-3.402344 6.515625 0 2.230468.925782 4.171875 2.769532 5.824218 1.84375 1.65625 4.132812 2.996094 6.859374 4.035157 2.730469 1.039062 5.691407 2.347656 8.878907 3.921875 3.191406 1.578125 6.148437 3.289062 8.878906 5.132812s5.015625 4.519532 6.863281 8.015625c1.84375 3.5 2.765625 7.59375 2.765625 12.285157 0 7.886718-2.519531 13.972656-7.550781 18.253906-5.039062 4.289062-11.667969 6.429687-19.894531 6.429687-7.300781 0-13.566407-1.5-18.792969-4.5-5.230469-2.996093-7.84375-6.261719-7.84375-9.800781zm0 0" fill="#3879E3" data-original="#3879e3"></path><path xmlns="http://www.w3.org/2000/svg" d="m64.34375 504.097656v-74.855468c0-1.460938.652344-2.613282 1.960938-3.460938 1.304687-.84375 2.839843-1.265625 4.609374-1.265625h41.054688c1.535156 0 2.710938.652344 3.515625 1.957031.808594 1.308594 1.210937 2.808594 1.210937 4.5 0 1.84375-.421874 3.421875-1.269531 4.726563-.847656 1.3125-2 1.960937-3.457031 1.960937h-32.632812v23.070313h17.527343c1.457031 0 2.613281.597656 3.457031 1.785156.847657 1.195313 1.269532 2.597656 1.269532 4.210937 0 1.464844-.402344 2.789063-1.210938 3.980469-.804687 1.191407-1.980468 1.785157-3.515625 1.785157h-17.527343v23.183593h32.632812c1.457031 0 2.609375.65625 3.457031 1.960938.847657 1.308593 1.269531 2.886719 1.269531 4.730469 0 1.691406-.402343 3.191406-1.210937 4.496093-.804687 1.308594-1.980469 1.960938-3.515625 1.960938h-41.054688c-1.769531 0-3.304687-.421875-4.609374-1.265625-1.308594-.84375-1.960938-2-1.960938-3.460938zm0 0" fill="#3879E3" data-original="#3879e3"></path><path xmlns="http://www.w3.org/2000/svg" d="m123.613281 483.105469v-32.179688c0-9.148437 2.441407-15.835937 7.324219-20.066406 4.878906-4.230469 11.433594-6.34375 19.660156-6.34375 8.226563 0 14.796875 2.113281 19.71875 6.34375 4.917969 4.230469 7.378906 10.917969 7.378906 20.066406v32.179688c0 9.152343-2.460937 15.839843-7.378906 20.070312-4.921875 4.230469-11.492187 6.34375-19.71875 6.34375-8.226562 0-14.78125-2.113281-19.660156-6.34375-4.882812-4.230469-7.324219-10.917969-7.324219-20.070312zm14.992188 0c0 8.84375 3.996093 13.265625 11.992187 13.265625 8.074219 0 12.109375-4.421875 12.109375-13.265625v-32.179688c0-8.839843-4.035156-13.261719-12.109375-13.261719-7.996094 0-11.992187 4.421876-11.992187 13.261719zm0 0" fill="#3879E3" data-original="#3879e3"></path></g></svg>