<svg xmlns="http://www.w3.org/2000/svg" xmlns:xlink="http://www.w3.org/1999/xlink" xmlns:svgjs="http://svgjs.com/svgjs" width="80" height="80" x="0" y="0" viewBox="0 0 512 512" style="enable-background:new 0 0 512 512" xml:space="preserve" class=""><g transform="matrix(1,0,0,1,80,0)"><path xmlns="http://www.w3.org/2000/svg" d="m230.972656 329.523438h149.59375l-190.285156-329.523438-190.27734375 329.523438h149.58593775" fill="#AFB9D2" data-original="#afb9d2"></path><path xmlns="http://www.w3.org/2000/svg" d="m230.972656 329.523438h72.960938l-113.644532-188.757813-113.660156 188.757813h72.960938" fill="#E4EAF7" data-original="#e4eaf7"></path><path xmlns="http://www.w3.org/2000/svg" d="m380.566406 329.527344h-380.56249975l60.11718775-104.125 50.183594-86.894532 79.976562-138.50390575 79.996094 138.52734375 50.171875 86.882812zm0 0" fill="#BEC8DC" data-original="#bec8dc" class=""></path><path xmlns="http://www.w3.org/2000/svg" d="m303.933594 329.527344h-227.304688l22.269532-36.980469 51.226562-85.074219 40.164062-66.707031 40.164063 66.71875 51.21875 85.074219zm0 0" fill="#E4EAF7" data-original="#e4eaf7"></path><path xmlns="http://www.w3.org/2000/svg" d="m320.449219 225.414062-60.117188 104.113282h-140.082031l-60.128906-104.125 50.183594-86.894532 79.984374 138.527344 79.988282-138.503906zm0 0" fill="#95A5B9" data-original="#95a5b9" class=""></path><path xmlns="http://www.w3.org/2000/svg" d="m281.671875 292.558594-21.339844 36.96875h-140.082031l-21.351562-36.980469 51.226562-85.074219 40.164062 69.5625 40.164063-69.550781zm0 0" fill="#BEC8DC" data-original="#bec8dc" class=""></path><path xmlns="http://www.w3.org/2000/svg" d="m380.566406 70.289062-190.277344 329.527344-190.28515575-329.527344h76.63671875l113.648437 196.824219 113.652344-196.824219zm0 0" fill="#7DE6C4" data-original="#7de6c4" class=""></path><path xmlns="http://www.w3.org/2000/svg" d="m303.941406 70.289062-113.652344 196.824219-113.648437-196.824219h72.957031l40.691406 70.476563 40.695313-70.476563zm0 0" fill="#707384" data-original="#707384" class=""></path><path xmlns="http://www.w3.org/2000/svg" d="m362.234375 512h-343.894531c-10.128906 0-18.339844-8.210938-18.339844-18.335938v-110.105468c0-10.128906 8.210938-18.335938 18.339844-18.335938h343.894531c10.128906 0 18.335937 8.207032 18.335937 18.335938v110.105468c0 10.125-8.207031 18.335938-18.335937 18.335938zm0 0" fill="#B9EBFF" data-original="#b9ebff"></path><path xmlns="http://www.w3.org/2000/svg" d="m362.234375 365.21875h-33.5c10.128906 0 18.339844 8.210938 18.339844 18.335938v110.109374c0 10.125-8.210938 18.335938-18.339844 18.335938h33.5c10.128906 0 18.335937-8.210938 18.335937-18.335938v-110.109374c0-10.125-8.210937-18.335938-18.335937-18.335938zm0 0" fill="#A0DCF0" data-original="#a0dcf0"></path><g xmlns="http://www.w3.org/2000/svg" fill="#54A1FF"><path d="m39.996094 403.496094c0-1.773438 1.023437-3.261719 3.070312-4.460938 2.050782-1.199218 4.195313-1.800781 6.4375-1.800781 2.859375 0 4.5625 1.007813 5.101563 3.015625l17.742187 62.84375 17.628906-62.84375c.539063-2.007812 2.242188-3.015625 5.101563-3.015625 2.164063 0 4.292969.621094 6.378906 1.855469 2.085938 1.238281 3.132813 2.707031 3.132813 4.40625 0 .15625-.078125.542968-.234375 1.160156l-22.265625 72.929688c-.460938 1.625-1.621094 2.882812-3.476563 3.769531s-3.945312 1.332031-6.261719 1.332031c-5.335937 0-8.582031-1.699219-9.742187-5.101562l-22.382813-72.929688c-.15625-.617188-.230468-1.003906-.230468-1.160156zm0 0" fill="#54A1FF" data-original="#54a1ff"></path><path d="m106.90625 459.5v-27.828125c0-1.160156.753906-2.242187 2.261719-3.246094 1.507812-1.003906 3.265625-1.507812 5.277343-1.507812 1.933594 0 3.652344.5 5.160157 1.503906 1.507812 1.003906 2.261719 2.082031 2.261719 3.234375v27.753906c0 2.699219 1.003906 5.109375 3.015624 7.226563 2.011719 2.121093 4.40625 3.179687 7.191407 3.179687 2.78125 0 5.160156-1.058594 7.128906-3.179687 1.972656-2.117188 2.957031-4.527344 2.957031-7.226563v-27.867187c0-1.230469.753906-2.3125 2.261719-3.238281 1.507813-.925782 3.265625-1.386719 5.277344-1.386719 2.164062 0 3.945312.464843 5.335937 1.390625 1.390625.925781 2.085938 2.011718 2.085938 3.246094v27.941406c0 6.261718-2.476563 11.753906-7.421875 16.464844-4.949219 4.71875-10.824219 7.074218-17.628907 7.074218-6.800781 0-12.695312-2.355468-17.683593-7.074218-4.984375-4.710938-7.480469-10.199219-7.480469-16.460938zm0 0" fill="#54A1FF" data-original="#54a1ff"></path><path d="m166.164062 459.269531v-9.859375c0-6.335937 2.476563-11.785156 7.425782-16.347656 4.945312-4.558594 10.9375-6.839844 17.972656-6.839844 6.570312 0 12.195312 2.078125 16.875 6.230469 4.675781 4.15625 7.015625 9.375 7.015625 15.667969 0 2.296875-.289063 4.1875-.871094 5.683594-.578125 1.492187-1.46875 2.542968-2.667969 3.15625-1.199218.613281-2.300781.996093-3.304687 1.148437-1.003906.15625-2.320313.230469-3.941406.230469h-23.542969v1.738281c0 3.324219 1.238281 6.011719 3.710938 8.058594 2.476562 2.046875 5.761718 3.074219 9.859374 3.074219 2.9375 0 5.835938-.734376 8.695313-2.203126s4.714844-2.203124 5.566406-2.203124c1.625 0 2.976563.753906 4.058594 2.257812 1.082031 1.507812 1.625 2.957031 1.625 4.347656 0 2.164063-1.953125 4.3125-5.855469 6.4375-3.90625 2.125-8.757812 3.1875-14.554687 3.1875-8.273438 0-15.019531-2.183594-20.238281-6.550781s-7.828126-10.105469-7.828126-17.214844zm14.960938-9.742187h16.929688c1.238281 0 2.105468-.199219 2.609374-.59375.503907-.398438.753907-1.171875.753907-2.328125 0-2.527344-.984375-4.585938-2.957031-6.171875-1.972657-1.589844-4.390626-2.382813-7.246094-2.382813-2.707032 0-5.066406.773438-7.074219 2.328125-2.011719 1.550782-3.015625 3.589844-3.015625 6.117188zm0 0" fill="#54A1FF" data-original="#54a1ff"></path><path d="m220.089844 459.617188c0-2.785157.578125-4.695313 1.738281-5.738282 1.160156-1.042968 3.09375-1.566406 5.800781-1.566406 4.714844 0 7.226563 1.585938 7.535156 4.753906.308594 8.273438 4.292969 12.40625 11.945313 12.40625 8.195313 0 12.292969-4.445312 12.292969-13.335937v-45.683594h-11.828125c-1.46875 0-2.628907-.65625-3.480469-1.96875s-1.273438-2.898437-1.273438-4.753906c0-1.777344.40625-3.304688 1.214844-4.578125.8125-1.277344 1.992188-1.914063 3.539063-1.914063h20.292969c1.777343 0 3.324218.425781 4.640624 1.273438 1.3125.851562 1.96875 2.011719 1.96875 3.480469v54.144531c0 9.121093-2.453124 15.828125-7.363281 20.117187-4.910156 4.289063-11.34375 6.433594-19.308593 6.433594-8.195313 0-14.863282-2.066406-20.003907-6.203125-5.140625-4.132813-7.710937-9.757813-7.710937-16.867187zm0 0" fill="#54A1FF" data-original="#54a1ff"></path><path d="m283.871094 468.660156c0-1.777344.675781-3.574218 2.027344-5.394531 1.351562-1.8125 2.878906-2.722656 4.582031-2.722656 1.003906 0 2.144531.480469 3.421875 1.445312 1.273437.964844 2.507812 2.03125 3.710937 3.191407 1.195313 1.164062 2.914063 2.230468 5.160157 3.191406 2.242187.964844 4.714843 1.445312 7.421874 1.445312 3.710938 0 6.800782-.847656 9.277344-2.546875 2.472656-1.703125 3.710938-4.214843 3.710938-7.539062 0-2.316407-.679688-4.382813-2.03125-6.203125-1.351563-1.8125-3.128906-3.320313-5.332032-4.519532-2.203124-1.199218-4.621093-2.359374-7.25-3.480468-2.628906-1.121094-5.277343-2.375-7.941406-3.765625-2.667968-1.394531-5.105468-2.957031-7.308594-4.699219-2.203124-1.738281-3.980468-4.054688-5.332031-6.957031-1.355469-2.898438-2.03125-6.203125-2.03125-9.914063 0-4.15625.832031-7.824218 2.492188-11.003906 1.664062-3.175781 3.886719-5.648438 6.667969-7.414062 2.785156-1.761719 5.761718-3.058594 8.929687-3.882813 3.171875-.824219 6.53125-1.234375 10.089844-1.234375 2.011719 0 4.136719.140625 6.378906.414062 2.242187.28125 4.617187.738282 7.132813 1.371094 2.507812.636719 4.558593 1.628906 6.144531 2.976563 1.585937 1.351562 2.378906 2.9375 2.378906 4.761719 0 1.722656-.542969 3.503906-1.625 5.339843-1.082031 1.839844-2.550781 2.757813-4.40625 2.757813-.695313 0-2.589844-.730469-5.683594-2.203125-3.09375-1.464844-6.53125-2.203125-10.320312-2.203125-4.171875 0-7.402344.792968-9.683594 2.378906s-3.421875 3.769531-3.421875 6.550781c0 2.242188.929688 4.195313 2.785156 5.855469 1.855469 1.664062 4.15625 3.015625 6.898438 4.058594 2.746094 1.042968 5.722656 2.359375 8.929687 3.941406 3.207031 1.585938 6.183594 3.304688 8.929688 5.160156 2.746093 1.855469 5.046875 4.542969 6.902343 8.058594 1.855469 3.515625 2.78125 7.632812 2.78125 12.347656 0 7.929688-2.53125 14.046875-7.59375 18.351563-5.066406 4.308593-11.734374 6.460937-20.007812 6.460937-7.34375 0-13.644531-1.507812-18.898438-4.523437-5.261718-3.011719-7.886718-6.296875-7.886718-9.851563zm0 0" fill="#54A1FF" data-original="#54a1ff"></path></g></g></svg>