<svg xmlns="http://www.w3.org/2000/svg" xmlns:xlink="http://www.w3.org/1999/xlink" xmlns:svgjs="http://svgjs.com/svgjs" width="512" height="512" x="0" y="0" viewBox="0 0 512 512" style="enable-background:new 0 0 512 512" xml:space="preserve" class=""><defs><linearGradient xmlns="http://www.w3.org/2000/svg" id="SVGID_1_" gradientUnits="userSpaceOnUse" x1="81.092" x2="430.907" y1="430.88" y2="81.065"><stop stop-opacity="1" stop-color="#0ba4cd" offset="0"></stop><stop stop-opacity="1" stop-color="#242278" offset="1"></stop></linearGradient></defs><g><linearGradient xmlns="http://www.w3.org/2000/svg" id="SVGID_1_" gradientUnits="userSpaceOnUse" x1="81.092" x2="430.907" y1="430.88" y2="81.065"><stop stop-opacity="1" stop-color="#0ba4cd" offset="0"></stop><stop stop-opacity="1" stop-color="#242278" offset="1"></stop></linearGradient><g xmlns="http://www.w3.org/2000/svg" id="_x31_6_Distributed_ledger"><path d="m475.606 183.474c1.65-.95 2.668-2.712 2.668-4.618v-48.256c0-1.835-1.19-3.767-2.668-4.618l-41.704-24.039c-1.65-.953-3.676-.953-5.326 0l-39.049 22.508-86.492-49.847v-45.126c0-1.851-1.207-3.777-2.668-4.618l-41.704-24.039c-1.65-.953-3.676-.953-5.326 0l-41.704 24.039c-1.44.828-2.668 2.771-2.668 4.618v45.125l-86.492 49.847-39.049-22.508c-1.65-.953-3.676-.953-5.326 0l-41.704 24.039c-1.604.924-2.668 2.946-2.668 4.618v48.256c0 1.905 1.018 3.668 2.668 4.618l39.041 22.503v99.95l-39.041 22.507c-1.594.919-2.668 2.929-2.668 4.618v48.253c0 1.905 1.018 3.668 2.668 4.618l41.706 24.04c1.512.872 3.548 1.026 5.326 0l38.958-22.456 86.581 49.905v45.112c0 1.905 1.018 3.668 2.668 4.618l41.704 24.039c1.512.872 3.548 1.026 5.326 0l41.704-24.039c1.65-.95 2.668-2.712 2.668-4.618v-45.112l86.581-49.905 38.96 22.456c1.581.912 3.741.915 5.326 0l41.704-24.039c1.65-.95 2.668-2.712 2.668-4.618v-48.253c0-1.831-1.186-3.765-2.668-4.618l-39.041-22.507v-99.949zm-219.606 232.908 31.039 17.891-31.039 17.89-31.039-17.891zm41.759 11.764-36.428-20.998v-28.532c0-2.944-2.387-5.331-5.331-5.331s-5.331 2.387-5.331 5.331v28.532l-36.428 20.998-86.443-49.825v-41.975l24.836-14.37c2.548-1.476 3.418-4.738 1.945-7.286-1.476-2.548-4.735-3.415-7.286-1.944l-24.643 14.259-36.552-21.071v-99.959l36.492-21.035 24.701 14.315c2.554 1.479 5.813.6 7.286-1.939 1.476-2.548.609-5.81-1.939-7.286l-24.839-14.395v-41.946l86.453-49.826 36.417 20.992v28.532c0 2.944 2.387 5.331 5.331 5.331s5.331-2.387 5.331-5.331v-28.532l36.417-20.992 86.453 49.826v41.946l-24.839 14.395c-2.548 1.476-3.415 4.738-1.939 7.286 1.476 2.544 4.736 3.416 7.286 1.939l24.701-14.315 36.492 21.034v99.961l-36.552 21.071-24.643-14.259c-2.551-1.479-5.81-.604-7.286 1.944-1.473 2.548-.604 5.81 1.944 7.286l24.836 14.37v41.975zm-211.662-270.418 31.039-17.892v35.94l-31.039 17.891zm-5.336 157.436 31.039 17.892-31.037 17.89-31.039-17.89zm5.334 45.312 31.042-17.961v35.711l-31.042 17.892zm164.574-303.868v35.939l-31.042-17.892v-35.94zm10.662 0 31.042-17.893v35.94l-31.042 17.892zm133.533 83.228 31.039 17.891v35.939l-31.039-17.89zm0 202.679 31.044 17.963v35.641l-31.044-17.893zm36.375 8.43-31.039-17.89 31.039-17.892 31.037 17.892zm5.331-157.276v-35.939l31.042-17.893v35.94zm-5.331-80.955 31.039 17.891-31.001 17.869-31.046-17.888zm-175.239-101.121 31.039 17.891-31.039 17.891-31.039-17.891zm-175.239 101.121 31.009 17.872-31.045 17.887-31.002-17.869zm-36.373 27.122 31.044 17.894v35.939l-31.044-17.893zm0 202.449 31.044 17.894v35.939l-31.044-17.893zm175.239 101.272 31.042 17.893v35.887l-31.042-17.892zm72.746 35.887-31.042 17.892v-35.887l31.042-17.893zm144.197-83.326v-35.939l31.042-17.893v35.94zm-180.57-246.721c-58.775 0-106.593 47.839-106.593 106.64 0 58.775 47.819 106.593 106.593 106.593s106.593-47.819 106.593-106.593c0-58.801-47.818-106.64-106.593-106.64zm0 202.571c-52.897 0-95.931-43.034-95.931-95.931 0-52.923 43.034-95.978 95.931-95.978s95.931 43.055 95.931 95.978c0 52.897-43.034 95.931-95.931 95.931zm37.687-117.872c0-12.792-8.888-23.477-20.791-26.401v-7.824c0-2.944-2.387-5.331-5.331-5.331s-5.331 2.387-5.331 5.331v6.963h-10.462v-6.963c0-2.944-2.387-5.331-5.331-5.331s-5.331 2.387-5.331 5.331v6.963c-1.273 0-18.419 0-17.467 0-2.944 0-5.331 2.387-5.331 5.331s2.387 5.331 5.331 5.331h4.001v77.056h-4.001c-2.944 0-5.331 2.387-5.331 5.331s2.387 5.331 5.331 5.331c1.511 0 18.128 0 17.467 0v6.942c0 2.944 2.387 5.331 5.331 5.331s5.331-2.387 5.331-5.331v-6.942h10.462v6.942c0 2.944 2.387 5.331 5.331 5.331s5.331-2.387 5.331-5.331v-7.803c11.903-2.924 20.791-13.609 20.791-26.401 0-9.016-4.452-16.963-11.219-21.928 6.767-4.965 11.219-12.912 11.219-21.928zm-10.662 43.857c0 9.152-7.447 16.6-16.6 16.6h-28.118v-33.197h28.118c9.153-.001 16.6 7.444 16.6 16.597zm-16.6-27.26h-28.118v-33.197c9.134 0 28.91 0 28.118 0 9.152 0 16.6 7.447 16.6 16.6s-7.447 16.597-16.6 16.597z" fill="url(&quot;#SVGID_1_&quot;)" data-original="url(#SVGID_1_)"></path></g></g></svg>