<svg xmlns="http://www.w3.org/2000/svg" xmlns:xlink="http://www.w3.org/1999/xlink" xmlns:svgjs="http://svgjs.com/svgjs" width="512" height="512" x="0" y="0" viewBox="0 0 512 512" style="enable-background:new 0 0 512 512" xml:space="preserve" class=""><defs><linearGradient xmlns="http://www.w3.org/2000/svg" id="a" gradientUnits="userSpaceOnUse" x1="21.888" x2="512.09" y1="485.418" y2="-4.784" data-name="New Gradient Swatch 1"><stop stop-opacity="1" stop-color="#0ba4cd" offset="0"></stop><stop stop-opacity="1" stop-color="#242278" offset="1"></stop></linearGradient><linearGradient xmlns="http://www.w3.org/2000/svg" xmlns:xlink="http://www.w3.org/1999/xlink" id="b" x1="26.235" x2="516.437" xlink:href="#a" y1="489.765" y2="-.437"></linearGradient><linearGradient xmlns="http://www.w3.org/2000/svg" xmlns:xlink="http://www.w3.org/1999/xlink" id="c" x1="10.235" x2="500.437" xlink:href="#a" y1="473.765" y2="-16.437"></linearGradient><linearGradient xmlns="http://www.w3.org/2000/svg" xmlns:xlink="http://www.w3.org/1999/xlink" id="d" x1="42.235" x2="532.437" xlink:href="#a" y1="505.765" y2="15.563"></linearGradient><linearGradient xmlns="http://www.w3.org/2000/svg" xmlns:xlink="http://www.w3.org/1999/xlink" id="e" x1="24.21" x2="514.413" xlink:href="#a" y1="487.79" y2="-2.413"></linearGradient><linearGradient xmlns="http://www.w3.org/2000/svg" xmlns:xlink="http://www.w3.org/1999/xlink" id="f" x1="-175.765" x2="314.437" xlink:href="#a" y1="287.765" y2="-202.437"></linearGradient><linearGradient xmlns="http://www.w3.org/2000/svg" xmlns:xlink="http://www.w3.org/1999/xlink" id="g" x1="-155.765" x2="334.437" xlink:href="#a" y1="307.765" y2="-182.437"></linearGradient><linearGradient xmlns="http://www.w3.org/2000/svg" xmlns:xlink="http://www.w3.org/1999/xlink" id="h" x1="-135.765" x2="354.437" xlink:href="#a" y1="327.765" y2="-162.437"></linearGradient><linearGradient xmlns="http://www.w3.org/2000/svg" xmlns:xlink="http://www.w3.org/1999/xlink" id="i" x1="28.235" x2="518.437" xlink:href="#a" y1="491.765" y2="1.563"></linearGradient><linearGradient xmlns="http://www.w3.org/2000/svg" xmlns:xlink="http://www.w3.org/1999/xlink" id="j" x1="-99.765" x2="390.437" xlink:href="#a" y1="363.765" y2="-126.437"></linearGradient><linearGradient xmlns="http://www.w3.org/2000/svg" xmlns:xlink="http://www.w3.org/1999/xlink" id="k" x1="102.235" x2="592.437" xlink:href="#a" y1="565.765" y2="75.563"></linearGradient><linearGradient xmlns="http://www.w3.org/2000/svg" xmlns:xlink="http://www.w3.org/1999/xlink" id="l" x1="90.235" x2="580.437" xlink:href="#a" y1="553.765" y2="63.563"></linearGradient><linearGradient xmlns="http://www.w3.org/2000/svg" xmlns:xlink="http://www.w3.org/1999/xlink" id="m" x1="74.235" x2="564.437" xlink:href="#a" y1="537.765" y2="47.563"></linearGradient><linearGradient xmlns="http://www.w3.org/2000/svg" xmlns:xlink="http://www.w3.org/1999/xlink" id="n" x1="-29.765" x2="460.437" xlink:href="#a" y1="433.765" y2="-56.437"></linearGradient><linearGradient xmlns="http://www.w3.org/2000/svg" xmlns:xlink="http://www.w3.org/1999/xlink" id="o" x1="-67.765" x2="422.437" xlink:href="#a" y1="395.765" y2="-94.437"></linearGradient><linearGradient xmlns="http://www.w3.org/2000/svg" xmlns:xlink="http://www.w3.org/1999/xlink" id="p" x1="-49.765" x2="440.437" xlink:href="#a" y1="413.765" y2="-76.437"></linearGradient><linearGradient xmlns="http://www.w3.org/2000/svg" xmlns:xlink="http://www.w3.org/1999/xlink" id="q" x1="118.235" x2="608.437" xlink:href="#a" y1="581.765" y2="91.563"></linearGradient></defs><g><linearGradient xmlns="http://www.w3.org/2000/svg" id="a" gradientUnits="userSpaceOnUse" x1="21.888" x2="512.09" y1="485.418" y2="-4.784" data-name="New Gradient Swatch 1"><stop stop-opacity="1" stop-color="#0ba4cd" offset="0"></stop><stop stop-opacity="1" stop-color="#242278" offset="1"></stop></linearGradient><linearGradient xmlns="http://www.w3.org/2000/svg" xmlns:xlink="http://www.w3.org/1999/xlink" id="b" x1="26.235" x2="516.437" xlink:href="#a" y1="489.765" y2="-.437"></linearGradient><linearGradient xmlns="http://www.w3.org/2000/svg" xmlns:xlink="http://www.w3.org/1999/xlink" id="c" x1="10.235" x2="500.437" xlink:href="#a" y1="473.765" y2="-16.437"></linearGradient><linearGradient xmlns="http://www.w3.org/2000/svg" xmlns:xlink="http://www.w3.org/1999/xlink" id="d" x1="42.235" x2="532.437" xlink:href="#a" y1="505.765" y2="15.563"></linearGradient><linearGradient xmlns="http://www.w3.org/2000/svg" xmlns:xlink="http://www.w3.org/1999/xlink" id="e" x1="24.21" x2="514.413" xlink:href="#a" y1="487.79" y2="-2.413"></linearGradient><linearGradient xmlns="http://www.w3.org/2000/svg" xmlns:xlink="http://www.w3.org/1999/xlink" id="f" x1="-175.765" x2="314.437" xlink:href="#a" y1="287.765" y2="-202.437"></linearGradient><linearGradient xmlns="http://www.w3.org/2000/svg" xmlns:xlink="http://www.w3.org/1999/xlink" id="g" x1="-155.765" x2="334.437" xlink:href="#a" y1="307.765" y2="-182.437"></linearGradient><linearGradient xmlns="http://www.w3.org/2000/svg" xmlns:xlink="http://www.w3.org/1999/xlink" id="h" x1="-135.765" x2="354.437" xlink:href="#a" y1="327.765" y2="-162.437"></linearGradient><linearGradient xmlns="http://www.w3.org/2000/svg" xmlns:xlink="http://www.w3.org/1999/xlink" id="i" x1="28.235" x2="518.437" xlink:href="#a" y1="491.765" y2="1.563"></linearGradient><linearGradient xmlns="http://www.w3.org/2000/svg" xmlns:xlink="http://www.w3.org/1999/xlink" id="j" x1="-99.765" x2="390.437" xlink:href="#a" y1="363.765" y2="-126.437"></linearGradient><linearGradient xmlns="http://www.w3.org/2000/svg" xmlns:xlink="http://www.w3.org/1999/xlink" id="k" x1="102.235" x2="592.437" xlink:href="#a" y1="565.765" y2="75.563"></linearGradient><linearGradient xmlns="http://www.w3.org/2000/svg" xmlns:xlink="http://www.w3.org/1999/xlink" id="l" x1="90.235" x2="580.437" xlink:href="#a" y1="553.765" y2="63.563"></linearGradient><linearGradient xmlns="http://www.w3.org/2000/svg" xmlns:xlink="http://www.w3.org/1999/xlink" id="m" x1="74.235" x2="564.437" xlink:href="#a" y1="537.765" y2="47.563"></linearGradient><linearGradient xmlns="http://www.w3.org/2000/svg" xmlns:xlink="http://www.w3.org/1999/xlink" id="n" x1="-29.765" x2="460.437" xlink:href="#a" y1="433.765" y2="-56.437"></linearGradient><linearGradient xmlns="http://www.w3.org/2000/svg" xmlns:xlink="http://www.w3.org/1999/xlink" id="o" x1="-67.765" x2="422.437" xlink:href="#a" y1="395.765" y2="-94.437"></linearGradient><linearGradient xmlns="http://www.w3.org/2000/svg" xmlns:xlink="http://www.w3.org/1999/xlink" id="p" x1="-49.765" x2="440.437" xlink:href="#a" y1="413.765" y2="-76.437"></linearGradient><linearGradient xmlns="http://www.w3.org/2000/svg" xmlns:xlink="http://www.w3.org/1999/xlink" id="q" x1="118.235" x2="608.437" xlink:href="#a" y1="581.765" y2="91.563"></linearGradient><g xmlns="http://www.w3.org/2000/svg"><path d="m168 200h17l15.07 113.058a8 8 0 0 0 7.93 6.942h1.376a24 24 0 1 0 45.248 0h26.752a24 24 0 1 0 45.248 0h1.376a8 8 0 0 0 0-16h-113l-1.067-8h106.067a8 8 0 0 0 7.951-7.116l8-72a8 8 0 0 0 -7.951-8.884h-125.8l-2.274-17.058a8 8 0 0 0 -7.926-6.942h-24a8 8 0 0 0 0 16zm72 128a8 8 0 1 1 -8-8 8.009 8.009 0 0 1 8 8zm72 0a8 8 0 1 1 -8-8 8.009 8.009 0 0 1 8 8zm7.062-104-6.222 56h-101.04l-7.467-56z" fill="url(&quot;#a&quot;)" data-original="url(#a)" class=""></path><path d="m264 272a8 8 0 0 0 8-8v-24a8 8 0 0 0 -16 0v24a8 8 0 0 0 8 8z" fill="url(&quot;#b&quot;)" data-original="url(#b)"></path><path d="m232 272a8 8 0 0 0 8-8v-24a8 8 0 0 0 -16 0v24a8 8 0 0 0 8 8z" fill="url(&quot;#c&quot;)" data-original="url(#c)"></path><path d="m296 272a8 8 0 0 0 8-8v-24a8 8 0 0 0 -16 0v24a8 8 0 0 0 8 8z" fill="url(&quot;#d&quot;)" data-original="url(#d)"></path><path d="m476 24h-440a28.031 28.031 0 0 0 -28 28v408a28.031 28.031 0 0 0 28 28h440a28.031 28.031 0 0 0 28-28v-408a28.031 28.031 0 0 0 -28-28zm12 436a12.01 12.01 0 0 1 -12 12h-440a12.01 12.01 0 0 1 -12-12v-372h464zm0-388h-464v-20a12.01 12.01 0 0 1 12-12h440a12.01 12.01 0 0 1 12 12z" fill="url(&quot;#e&quot;)" data-original="url(#e)" class=""></path><path d="m48 64h16a8 8 0 0 0 0-16h-16a8 8 0 0 0 0 16z" fill="url(&quot;#f&quot;)" data-original="url(#f)"></path><path d="m88 64h16a8 8 0 0 0 0-16h-16a8 8 0 0 0 0 16z" fill="url(&quot;#g&quot;)" data-original="url(#g)"></path><path d="m128 64h16a8 8 0 0 0 0-16h-16a8 8 0 0 0 0 16z" fill="url(&quot;#h&quot;)" data-original="url(#h)"></path><path d="m392 160h-280a8 8 0 0 0 -8 8v94.86l-46.36 11.04a7.994 7.994 0 0 0 -3.8 13.43l11.67 11.68-23.53 26.83a8.008 8.008 0 0 0 .36 10.93l22.63 22.63a8.008 8.008 0 0 0 5.66 2.34h.26a8.012 8.012 0 0 0 5.75-2.73l22.84-26.04 4.52 4.53v30.5a8 8 0 0 0 8 8h280a8 8 0 0 0 8-8v-200a8 8 0 0 0 -8-8zm-280.4 162.47-6.85-6.85a8 8 0 0 0 -11.67.38l-22.84 26.04-11.29-11.29 23.53-26.83a8 8 0 0 0 -.36-10.93l-6.85-6.85 38.33-9.12a.433.433 0 0 0 .05-.01l9.3-2.22zm272.4 37.53h-264v-14.8a7.973 7.973 0 0 0 3.84-5.1l17.68-74.25a7.989 7.989 0 0 0 -9.63-9.63l-11.89 2.83v-83.05h264z" fill="url(&quot;#i&quot;)" data-original="url(#i)" class=""></path><path d="m112 152h40a8 8 0 0 0 8-8v-24a8 8 0 0 0 -8-8h-40a8 8 0 0 0 -8 8v24a8 8 0 0 0 8 8zm8-24h24v8h-24z" fill="url(&quot;#j&quot;)" data-original="url(#j)"></path><path d="m392 408h-280a8 8 0 0 0 0 16h280a8 8 0 0 0 0-16z" fill="url(&quot;#k&quot;)" data-original="url(#k)"></path><path d="m392 384h-280a8 8 0 0 0 0 16h280a8 8 0 0 0 0-16z" fill="url(&quot;#l&quot;)" data-original="url(#l)"></path><path d="m232 432h-120a8 8 0 0 0 0 16h120a8 8 0 0 0 0-16z" fill="url(&quot;#m&quot;)" data-original="url(#m)"></path><path d="m392 112h-216a8 8 0 0 0 0 16h216a8 8 0 0 0 0-16z" fill="url(&quot;#n&quot;)" data-original="url(#n)"></path><path d="m192 152a8 8 0 0 0 0-16h-16a8 8 0 0 0 0 16z" fill="url(&quot;#o&quot;)" data-original="url(#o)"></path><path d="m224 152a8 8 0 0 0 0-16h-8a8 8 0 0 0 0 16z" fill="url(&quot;#p&quot;)" data-original="url(#p)"></path><path d="m264 432h-8a8 8 0 0 0 0 16h8a8 8 0 0 0 0-16z" fill="url(&quot;#q&quot;)" data-original="url(#q)"></path></g></g></svg>