<svg xmlns="http://www.w3.org/2000/svg" xmlns:xlink="http://www.w3.org/1999/xlink" xmlns:svgjs="http://svgjs.com/svgjs" width="512" height="512" x="0" y="0" viewBox="0 0 64 64" style="enable-background:new 0 0 512 512" xml:space="preserve"><defs><linearGradient xmlns="http://www.w3.org/2000/svg" id="linear-gradient" gradientUnits="userSpaceOnUse" x1="22.133" x2="63.232" y1="-8.867" y2="32.232"><stop stop-opacity="1" stop-color="#0ba4cd" offset="0"></stop><stop stop-opacity="1" stop-color="#242278" offset="1"></stop></linearGradient><linearGradient xmlns="http://www.w3.org/2000/svg" xmlns:xlink="http://www.w3.org/1999/xlink" id="linear-gradient-2" x1="1.133" x2="42.232" xlink:href="#linear-gradient" y1="12.133" y2="53.232"></linearGradient><linearGradient xmlns="http://www.w3.org/2000/svg" xmlns:xlink="http://www.w3.org/1999/xlink" id="linear-gradient-3" x1="6.633" x2="47.732" xlink:href="#linear-gradient" y1="6.633" y2="47.732"></linearGradient><linearGradient xmlns="http://www.w3.org/2000/svg" xmlns:xlink="http://www.w3.org/1999/xlink" id="linear-gradient-4" x1="-5.367" x2="35.732" xlink:href="#linear-gradient" y1="18.633" y2="59.732"></linearGradient><linearGradient xmlns="http://www.w3.org/2000/svg" xmlns:xlink="http://www.w3.org/1999/xlink" id="linear-gradient-5" x1="19.133" x2="60.232" xlink:href="#linear-gradient" y1="-5.867" y2="35.232"></linearGradient><linearGradient xmlns="http://www.w3.org/2000/svg" xmlns:xlink="http://www.w3.org/1999/xlink" id="linear-gradient-6" x1="8.279" x2="49.379" xlink:href="#linear-gradient" y1="4.986" y2="46.086"></linearGradient><linearGradient xmlns="http://www.w3.org/2000/svg" xmlns:xlink="http://www.w3.org/1999/xlink" id="linear-gradient-7" x1="13.986" x2="55.086" xlink:href="#linear-gradient" y1="-.721" y2="40.379"></linearGradient><linearGradient xmlns="http://www.w3.org/2000/svg" xmlns:xlink="http://www.w3.org/1999/xlink" id="linear-gradient-8" gradientTransform="matrix(.5 .866 -.866 .5 35.821 -16.007)" x1="11.015" x2="52.115" xlink:href="#linear-gradient" y1="2.25" y2="43.35"></linearGradient><linearGradient xmlns="http://www.w3.org/2000/svg" xmlns:xlink="http://www.w3.org/1999/xlink" id="linear-gradient-9" x1="7.133" x2="48.232" xlink:href="#linear-gradient" y1="6.133" y2="47.232"></linearGradient><linearGradient xmlns="http://www.w3.org/2000/svg" xmlns:xlink="http://www.w3.org/1999/xlink" id="linear-gradient-10" x1="3.633" x2="44.732" xlink:href="#linear-gradient" y1="9.633" y2="50.732"></linearGradient><linearGradient xmlns="http://www.w3.org/2000/svg" xmlns:xlink="http://www.w3.org/1999/xlink" id="linear-gradient-11" x1="1.633" x2="42.732" xlink:href="#linear-gradient" y1="11.633" y2="52.732"></linearGradient></defs><g><linearGradient xmlns="http://www.w3.org/2000/svg" id="linear-gradient" gradientUnits="userSpaceOnUse" x1="22.133" x2="63.232" y1="-8.867" y2="32.232"><stop stop-opacity="1" stop-color="#0ba4cd" offset="0"></stop><stop stop-opacity="1" stop-color="#242278" offset="1"></stop></linearGradient><linearGradient xmlns="http://www.w3.org/2000/svg" xmlns:xlink="http://www.w3.org/1999/xlink" id="linear-gradient-2" x1="1.133" x2="42.232" xlink:href="#linear-gradient" y1="12.133" y2="53.232"></linearGradient><linearGradient xmlns="http://www.w3.org/2000/svg" xmlns:xlink="http://www.w3.org/1999/xlink" id="linear-gradient-3" x1="6.633" x2="47.732" xlink:href="#linear-gradient" y1="6.633" y2="47.732"></linearGradient><linearGradient xmlns="http://www.w3.org/2000/svg" xmlns:xlink="http://www.w3.org/1999/xlink" id="linear-gradient-4" x1="-5.367" x2="35.732" xlink:href="#linear-gradient" y1="18.633" y2="59.732"></linearGradient><linearGradient xmlns="http://www.w3.org/2000/svg" xmlns:xlink="http://www.w3.org/1999/xlink" id="linear-gradient-5" x1="19.133" x2="60.232" xlink:href="#linear-gradient" y1="-5.867" y2="35.232"></linearGradient><linearGradient xmlns="http://www.w3.org/2000/svg" xmlns:xlink="http://www.w3.org/1999/xlink" id="linear-gradient-6" x1="8.279" x2="49.379" xlink:href="#linear-gradient" y1="4.986" y2="46.086"></linearGradient><linearGradient xmlns="http://www.w3.org/2000/svg" xmlns:xlink="http://www.w3.org/1999/xlink" id="linear-gradient-7" x1="13.986" x2="55.086" xlink:href="#linear-gradient" y1="-.721" y2="40.379"></linearGradient><linearGradient xmlns="http://www.w3.org/2000/svg" xmlns:xlink="http://www.w3.org/1999/xlink" id="linear-gradient-8" gradientTransform="matrix(.5 .866 -.866 .5 35.821 -16.007)" x1="11.015" x2="52.115" xlink:href="#linear-gradient" y1="2.25" y2="43.35"></linearGradient><linearGradient xmlns="http://www.w3.org/2000/svg" xmlns:xlink="http://www.w3.org/1999/xlink" id="linear-gradient-9" x1="7.133" x2="48.232" xlink:href="#linear-gradient" y1="6.133" y2="47.232"></linearGradient><linearGradient xmlns="http://www.w3.org/2000/svg" xmlns:xlink="http://www.w3.org/1999/xlink" id="linear-gradient-10" x1="3.633" x2="44.732" xlink:href="#linear-gradient" y1="9.633" y2="50.732"></linearGradient><linearGradient xmlns="http://www.w3.org/2000/svg" xmlns:xlink="http://www.w3.org/1999/xlink" id="linear-gradient-11" x1="1.633" x2="42.732" xlink:href="#linear-gradient" y1="11.633" y2="52.732"></linearGradient><g xmlns="http://www.w3.org/2000/svg" id="Mobile-Coding"><path d="m37 6h2v2h-2z" fill="url(&quot;#linear-gradient&quot;)" data-original="url(#linear-gradient)"></path><path d="m21 33h4v2h-4z" fill="url(&quot;#linear-gradient-2&quot;)" data-original="url(#linear-gradient-2)"></path><path d="m43 2h-22a6.006 6.006 0 0 0 -6 6v48a6.006 6.006 0 0 0 6 6h22a6.006 6.006 0 0 0 6-6v-48a6.006 6.006 0 0 0 -6-6zm0 58h-22a4 4 0 0 1 -4-4v-44h28v-2h-28v-2a4 4 0 0 1 4-4h22a4 4 0 0 1 4 4v42h-28v2h28v4a4 4 0 0 1 -4 4z" fill="url(&quot;#linear-gradient-3&quot;)" data-original="url(#linear-gradient-3)"></path><path d="m32 53a3 3 0 1 0 3 3 3 3 0 0 0 -3-3zm0 4a1 1 0 1 1 1-1 1 1 0 0 1 -1 1z" fill="url(&quot;#linear-gradient-4&quot;)" data-original="url(#linear-gradient-4)"></path><path d="m29 6h6v2h-6z" fill="url(&quot;#linear-gradient-5&quot;)" data-original="url(#linear-gradient-5)"></path><path d="m27.707 26.293-3.293-3.293 3.293-3.293-1.414-1.414-4.707 4.707 4.707 4.707z" fill="url(&quot;#linear-gradient-6&quot;)" data-original="url(#linear-gradient-6)"></path><path d="m37.707 27.707 4.707-4.707-4.707-4.707-1.414 1.414 3.293 3.293-3.293 3.293z" fill="url(&quot;#linear-gradient-7&quot;)" data-original="url(#linear-gradient-7)"></path><path d="m26.351 22h10.828v2h-10.828z" fill="url(&quot;#linear-gradient-8&quot;)" transform="matrix(.5 -.866 .866 .5 -4.028 39.028)" data-original="url(#linear-gradient-8)"></path><path d="m27 33h16v2h-16z" fill="url(&quot;#linear-gradient-9&quot;)" data-original="url(#linear-gradient-9)"></path><path d="m21 37h22v2h-22z" fill="url(&quot;#linear-gradient-10&quot;)" data-original="url(#linear-gradient-10)"></path><path d="m21 41h22v2h-22z" fill="url(&quot;#linear-gradient-11&quot;)" data-original="url(#linear-gradient-11)"></path></g></g></svg>