<svg xmlns="http://www.w3.org/2000/svg" version="1.1" xmlns:xlink="http://www.w3.org/1999/xlink" xmlns:svgjs="http://svgjs.com/svgjs" width="35" height="35" x="0" y="0" viewBox="0 0 448.525 448.525" style="enable-background:new 0 0 512 512" xml:space="preserve"><g>
<g>
	<g>
		<g>
			<path d="M283.841,151.966l-35.663-5.179l-15.951-32.325c-0.862-1.747-2.276-3.16-4.023-4.023
				c-4.388-2.167-9.702-0.366-11.869,4.023l-15.951,32.325l-35.673,5.179c-1.931,0.279-3.716,1.186-5.078,2.583
				c-3.418,3.503-3.348,9.114,0.155,12.531l25.807,25.157l-6.095,35.525c-0.085,0.494-0.127,0.995-0.127,1.496
				c0,4.894,3.967,8.862,8.861,8.862c1.44-0.011,2.856-0.372,4.126-1.054l31.902-16.738l31.902,16.738
				c1.724,0.914,3.702,1.233,5.626,0.909c4.826-0.815,8.077-5.387,7.263-10.213l-6.095-35.525l25.807-25.157
				c1.396-1.362,2.304-3.147,2.583-5.078C292.045,157.157,288.685,152.664,283.841,151.966z M247.233,182.725
				c-2.1,2.043-3.054,4.991-2.55,7.877l3.84,22.42l-20.135-10.585c-1.275-0.657-2.691-0.995-4.126-0.985
				c-1.44,0.011-2.856,0.372-4.126,1.054l-20.135,10.585l3.85-22.42c0.504-2.886-0.45-5.834-2.55-7.877l-16.286-15.882l22.508-3.269
				c2.887-0.418,5.383-2.229,6.676-4.844l10.063-20.401l10.063,20.401c1.292,2.615,3.789,4.427,6.676,4.844l22.518,3.21
				L247.233,182.725z" fill="#FFFFFF" data-original="#000000"></path>
			<path d="M224.262,60.465c-63.688,0-115.318,51.63-115.318,115.318c0,63.688,51.63,115.318,115.318,115.318
				c63.659-0.071,115.248-51.659,115.318-115.318C339.58,112.095,287.95,60.465,224.262,60.465z M224.262,273.378
				c-53.9,0-97.595-43.695-97.595-97.595c0-53.9,43.695-97.595,97.595-97.595c53.876,0.06,97.535,43.72,97.595,97.595
				C321.857,229.684,278.162,273.378,224.262,273.378z" fill="#FFFFFF" data-original="#000000"></path>
			<path d="M386.566,199.68l-16.581,6.272c2.58,6.823,5.79,15.311,4.687,18.708c-1.241,3.82-8.753,8.714-15.39,13.036
				c-7.877,5.14-16.837,10.969-22.991,19.436c-6.154,8.468-9.058,18.954-11.55,28.111c-1.969,7.198-4.391,16.158-7.532,18.442
				s-12.239,1.782-19.692,1.428c-9.521-0.453-20.313-0.985-30.464,2.343c-9.846,3.19-18.028,9.846-25.275,15.685
				c-6.213,5.022-13.263,10.713-17.506,10.713s-11.294-5.691-17.516-10.732c-7.247-5.859-15.458-12.495-25.265-15.675
				c-5.612-1.822-11.904-2.668-19.81-2.668c-3.653,0-7.227,0.167-10.673,0.335c-7.394,0.354-16.591,0.788-19.633-1.428
				c-3.042-2.215-5.573-11.264-7.542-18.462c-2.491-9.167-5.307-19.545-11.54-28.111c-6.233-8.566-15.104-14.287-23.001-19.436
				c-6.626-4.322-14.139-9.216-15.38-13.036c-1.103-3.377,2.117-11.874,4.697-18.708c3.417-9.029,7.276-19.259,7.276-30.149
				s-3.87-21.12-7.286-30.149c-2.58-6.823-5.79-15.321-4.697-18.708c1.241-3.82,8.753-8.714,15.39-13.046
				c7.877-5.14,16.827-10.969,22.991-19.426c6.164-8.458,9.058-18.954,11.55-28.111c1.969-7.198,4.391-16.158,7.532-18.442
				c3.141-2.284,12.239-1.782,19.643-1.428c9.521,0.453,20.323,0.985,30.523-2.343c9.846-3.19,18.018-9.846,25.275-15.685
				c6.164-5.041,13.214-10.723,17.457-10.723s11.294,5.681,17.506,10.722c7.247,5.858,15.458,12.495,25.275,15.685
				c10.161,3.298,20.962,2.786,30.523,2.343c7.394-0.345,16.591-0.778,19.633,1.428c3.042,2.206,5.524,11.234,7.493,18.442
				c2.491,9.167,5.307,19.545,11.54,28.111s15.104,14.297,23.001,19.436c6.627,4.322,14.139,9.216,15.39,13.036
				c1.103,3.387-2.117,11.884-4.697,18.708c-3.417,9.029-7.286,19.269-7.286,30.149c0,10.88,3.87,21.12,7.286,30.149l8.29-3.131
				l8.29-3.131c-3.161-8.349-6.144-16.236-6.144-23.887s2.954-15.537,6.134-23.887c4.106-10.831,7.995-21.14,4.972-30.444
				c-3.18-9.777-13.036-16.197-22.567-22.41c-6.892-4.519-14.1-9.186-18.343-15.015c-4.244-5.829-6.577-14.267-8.773-22.331
				c-3.102-11.402-6.026-22.174-14.208-28.121c-8.182-5.947-19.161-5.356-30.897-4.805c-8.399,0.394-17.093,0.807-24.172-1.497
				c-6.695-2.176-13.263-7.483-19.604-12.613C243.954,7.454,234.777,0,224.262,0s-19.692,7.454-28.652,14.671
				c-6.341,5.13-12.908,10.427-19.604,12.603c-7.079,2.294-15.39,1.91-24.172,1.497c-11.737-0.551-22.823-1.073-30.907,4.805
				c-8.084,5.878-11.106,16.738-14.208,28.13c-2.196,8.064-4.46,16.404-8.773,22.331c-4.313,5.927-11.402,10.496-18.343,15.015
				c-9.531,6.213-19.387,12.633-22.567,22.41c-3.023,9.305,0.866,19.574,4.972,30.454c3.151,8.35,6.134,16.236,6.134,23.877
				c0,7.641-2.954,15.527-6.134,23.887c-4.106,10.831-7.995,21.15-4.972,30.444c3.18,9.787,13.036,16.207,22.567,22.42
				c6.892,4.519,14.1,9.186,18.333,15.015c4.234,5.829,6.577,14.267,8.773,22.331c1.89,6.971,3.732,13.706,6.745,19.249
				l-35.899,91.806c-1.78,4.559,0.473,9.698,5.032,11.478c1.358,0.53,2.826,0.717,4.273,0.544l50.215-6.006l32.798,38.459
				c3.179,3.721,8.773,4.16,12.494,0.98c1.119-0.956,1.982-2.176,2.512-3.55l35.791-91.569c2.383,0.397,4.815,0.397,7.198,0
				l35.781,91.569c1.783,4.558,6.923,6.807,11.481,5.024c1.36-0.532,2.567-1.392,3.515-2.503l32.798-38.459l50.215,6.006
				c4.86,0.575,9.266-2.9,9.841-7.76c0.169-1.426-0.012-2.872-0.526-4.213L335.06,309.12c3.013-5.543,4.844-12.278,6.745-19.249
				c2.186-8.064,4.45-16.404,8.773-22.331c4.322-5.927,11.402-10.496,18.343-15.015c9.531-6.213,19.397-12.633,22.567-22.41
				C394.511,220.81,390.632,210.55,386.566,199.68z M173.721,422.656l-26.26-30.809c-1.926-2.255-4.853-3.397-7.798-3.042
				l-40.212,4.815l28.249-72.251c7.04,2.245,15.399,1.851,24.123,1.438c3.249-0.158,6.607-0.315,9.846-0.315
				c5.986,0,10.545,0.571,14.336,1.802c6.695,2.176,13.253,7.473,19.604,12.613c2.954,2.373,5.908,4.766,8.94,6.892L173.721,422.656
				z M349.071,393.62l-40.202-4.815c-2.946-0.352-5.874,0.793-7.798,3.052l-26.27,30.809l-30.848-78.848
				c3.033-2.146,6.006-4.539,8.94-6.892c6.341-5.13,12.908-10.427,19.604-12.603c7.07-2.294,15.37-1.91,24.182-1.497
				c8.812,0.414,17.083,0.797,24.123-1.438L349.071,393.62z" fill="#FFFFFF" data-original="#000000"></path>
		</g>
	</g>
</g>
<g>
</g>
<g>
</g>
<g>
</g>
<g>
</g>
<g>
</g>
<g>
</g>
<g>
</g>
<g>
</g>
<g>
</g>
<g>
</g>
<g>
</g>
<g>
</g>
<g>
</g>
<g>
</g>
<g>
</g>
</g></svg>