<svg xmlns="http://www.w3.org/2000/svg" xmlns:xlink="http://www.w3.org/1999/xlink" xmlns:svgjs="http://svgjs.com/svgjs" width="512" height="512" x="0" y="0" viewBox="0 0 64 64" style="enable-background:new 0 0 512 512" xml:space="preserve" class=""><defs><linearGradient xmlns="http://www.w3.org/2000/svg" xmlns:xlink="http://www.w3.org/1999/xlink" id="SVGID_1_" gradientUnits="userSpaceOnUse" x1="7.271" x2="94.938" xlink:href="#lg1" y1="-6.948" y2="76.385"></linearGradient><linearGradient xmlns="http://www.w3.org/2000/svg" xmlns:xlink="http://www.w3.org/1999/xlink" id="SVGID_2_" gradientUnits="userSpaceOnUse" x1="-11.925" x2="75.742" xlink:href="#lg1" y1="13.246" y2="96.58"></linearGradient><linearGradient xmlns="http://www.w3.org/2000/svg" xmlns:xlink="http://www.w3.org/1999/xlink" id="SVGID_3_" gradientUnits="userSpaceOnUse" x1="-1.007" x2="86.659" xlink:href="#lg1" y1="1.761" y2="85.094"></linearGradient><linearGradient xmlns="http://www.w3.org/2000/svg" xmlns:xlink="http://www.w3.org/1999/xlink" id="SVGID_4_" gradientUnits="userSpaceOnUse" x1="-22.842" x2="64.824" xlink:href="#lg1" y1="24.732" y2="108.065"></linearGradient><linearGradient xmlns="http://www.w3.org/2000/svg" xmlns:xlink="http://www.w3.org/1999/xlink" id="SVGID_5_" gradientUnits="userSpaceOnUse" x1="-5.719" x2="81.948" xlink:href="#lg1" y1="6.718" y2="90.051"></linearGradient><linearGradient xmlns="http://www.w3.org/2000/svg" xmlns:xlink="http://www.w3.org/1999/xlink" id="SVGID_6_" gradientUnits="userSpaceOnUse" x1="-22.844" x2="64.822" xlink:href="#lg1" y1="24.734" y2="108.067"></linearGradient><linearGradient xmlns="http://www.w3.org/2000/svg" xmlns:xlink="http://www.w3.org/1999/xlink" id="SVGID_7_" gradientUnits="userSpaceOnUse" x1="-12.21" x2="75.456" xlink:href="#lg1" y1="13.547" y2="96.88"></linearGradient><linearGradient xmlns="http://www.w3.org/2000/svg" xmlns:xlink="http://www.w3.org/1999/xlink" id="SVGID_8_" gradientUnits="userSpaceOnUse" x1="-1.293" x2="86.374" xlink:href="#lg1" y1="2.061" y2="85.395"></linearGradient><linearGradient xmlns="http://www.w3.org/2000/svg" xmlns:xlink="http://www.w3.org/1999/xlink" id="SVGID_9_" gradientUnits="userSpaceOnUse" x1="9.369" x2="97.036" xlink:href="#lg1" y1="-9.155" y2="74.179"></linearGradient><linearGradient xmlns="http://www.w3.org/2000/svg" xmlns:xlink="http://www.w3.org/1999/xlink" id="SVGID_10_" gradientUnits="userSpaceOnUse" x1="11.718" x2="99.384" xlink:href="#lg1" y1="-11.626" y2="71.708"></linearGradient></defs><g><linearGradient xmlns="http://www.w3.org/2000/svg" id="lg1"><stop stop-opacity="1" stop-color="#0ba4cd" offset="5.9081e-7"></stop><stop stop-opacity="1" stop-color="#242278" offset="1"></stop></linearGradient><linearGradient xmlns="http://www.w3.org/2000/svg" xmlns:xlink="http://www.w3.org/1999/xlink" id="SVGID_1_" gradientUnits="userSpaceOnUse" x1="7.271" x2="94.938" xlink:href="#lg1" y1="-6.948" y2="76.385"></linearGradient><linearGradient xmlns="http://www.w3.org/2000/svg" xmlns:xlink="http://www.w3.org/1999/xlink" id="SVGID_2_" gradientUnits="userSpaceOnUse" x1="-11.925" x2="75.742" xlink:href="#lg1" y1="13.246" y2="96.58"></linearGradient><linearGradient xmlns="http://www.w3.org/2000/svg" xmlns:xlink="http://www.w3.org/1999/xlink" id="SVGID_3_" gradientUnits="userSpaceOnUse" x1="-1.007" x2="86.659" xlink:href="#lg1" y1="1.761" y2="85.094"></linearGradient><linearGradient xmlns="http://www.w3.org/2000/svg" xmlns:xlink="http://www.w3.org/1999/xlink" id="SVGID_4_" gradientUnits="userSpaceOnUse" x1="-22.842" x2="64.824" xlink:href="#lg1" y1="24.732" y2="108.065"></linearGradient><linearGradient xmlns="http://www.w3.org/2000/svg" xmlns:xlink="http://www.w3.org/1999/xlink" id="SVGID_5_" gradientUnits="userSpaceOnUse" x1="-5.719" x2="81.948" xlink:href="#lg1" y1="6.718" y2="90.051"></linearGradient><linearGradient xmlns="http://www.w3.org/2000/svg" xmlns:xlink="http://www.w3.org/1999/xlink" id="SVGID_6_" gradientUnits="userSpaceOnUse" x1="-22.844" x2="64.822" xlink:href="#lg1" y1="24.734" y2="108.067"></linearGradient><linearGradient xmlns="http://www.w3.org/2000/svg" xmlns:xlink="http://www.w3.org/1999/xlink" id="SVGID_7_" gradientUnits="userSpaceOnUse" x1="-12.21" x2="75.456" xlink:href="#lg1" y1="13.547" y2="96.88"></linearGradient><linearGradient xmlns="http://www.w3.org/2000/svg" xmlns:xlink="http://www.w3.org/1999/xlink" id="SVGID_8_" gradientUnits="userSpaceOnUse" x1="-1.293" x2="86.374" xlink:href="#lg1" y1="2.061" y2="85.395"></linearGradient><linearGradient xmlns="http://www.w3.org/2000/svg" xmlns:xlink="http://www.w3.org/1999/xlink" id="SVGID_9_" gradientUnits="userSpaceOnUse" x1="9.369" x2="97.036" xlink:href="#lg1" y1="-9.155" y2="74.179"></linearGradient><linearGradient xmlns="http://www.w3.org/2000/svg" xmlns:xlink="http://www.w3.org/1999/xlink" id="SVGID_10_" gradientUnits="userSpaceOnUse" x1="11.718" x2="99.384" xlink:href="#lg1" y1="-11.626" y2="71.708"></linearGradient><g xmlns="http://www.w3.org/2000/svg"><path d="m46.5 3h-2.5v-2c0-.55-.45-1-1-1h-14c-.55 0-1 .45-1 1s.45 1 1 1h13v2c0 .55.45 1 1 1h3.5c1.93 0 3.5 1.57 3.5 3.5s-1.57 3.5-3.5 3.5h-2.5v-4c0-.55-.45-1-1-1s-1 .45-1 1v5c0 5.51-4.49 10-10 10s-10-4.49-10-10v-12c0-.55-.45-1-1-1s-1 .45-1 1v2h-2.5c-3.03 0-5.5 2.47-5.5 5.5s2.47 5.5 5.5 5.5h2.55c.39 4.64 3.42 8.54 7.59 10.17-.39.51-.64 1.14-.64 1.83v1c0 .48.34.86.79.96l-.61 3.04h-1.18c-1.65 0-3 1.35-3 3v3c0 .55.45 1 1 1h16c.55 0 1-.45 1-1v-3c0-1.65-1.35-3-3-3h-1.18l-.61-3.04c.45-.1.79-.48.79-.96v-1c0-.69-.25-1.32-.64-1.83 4.17-1.63 7.2-5.53 7.59-10.17h2.55c3.03 0 5.5-2.47 5.5-5.5s-2.47-5.5-5.5-5.5zm-26.5 9h-2.5c-1.93 0-3.5-1.57-3.5-3.5s1.57-3.5 3.5-3.5h2.5zm10 13h4c.55 0 1 .45 1 1h-6c0-.55.45-1 1-1zm8 8c.55 0 1 .45 1 1v2h-14v-2c0-.55.45-1 1-1h2c.22 0 .44-.1.61-.23.17-.14.33-.35.37-.57l.84-4.2h4.36l.6 3h-2.78c-.55 0-1 .45-1 1s.45 1 1 1z" fill="url(&quot;#SVGID_1_&quot;)" data-original="url(#SVGID_1_)"></path><path d="m26 64h12c1.654 0 3-1.346 3-3v-12c0-1.654-1.346-3-3-3h-12c-1.654 0-3 1.346-3 3 0 .552.448 1 1 1s1-.448 1-1c0-.551.449-1 1-1h12c.551 0 1 .449 1 1v12c0 .551-.449 1-1 1h-12c-.551 0-1-.449-1-1v-8c0-.552-.448-1-1-1s-1 .448-1 1v8c0 1.654 1.346 3 3 3z" fill="url(&quot;#SVGID_2_&quot;)" data-original="url(#SVGID_2_)"></path><path d="m62 49c0 .552.448 1 1 1s1-.448 1-1c0-1.654-1.346-3-3-3h-12c-1.654 0-3 1.346-3 3v12c0 1.654 1.346 3 3 3h12c1.654 0 3-1.346 3-3v-8c0-.552-.448-1-1-1s-1 .448-1 1v8c0 .551-.449 1-1 1h-12c-.551 0-1-.449-1-1v-12c0-.551.449-1 1-1h12c.551 0 1 .449 1 1z" fill="url(&quot;#SVGID_3_&quot;)" data-original="url(#SVGID_3_)"></path><path d="m3 64h12c1.654 0 3-1.346 3-3v-12c0-1.654-1.346-3-3-3h-12c-1.654 0-3 1.346-3 3 0 .552.448 1 1 1s1-.448 1-1c0-.551.449-1 1-1h12c.551 0 1 .449 1 1v12c0 .551-.449 1-1 1h-12c-.551 0-1-.449-1-1v-8c0-.552-.448-1-1-1s-1 .448-1 1v8c0 1.654 1.346 3 3 3z" fill="url(&quot;#SVGID_4_&quot;)" data-original="url(#SVGID_4_)"></path><path d="m7 43c0 .552.448 1 1 1s1-.448 1-1c0-.551.449-1 1-1h21v1c0 .552.448 1 1 1s1-.448 1-1v-1h21c.551 0 1 .449 1 1 0 .552.448 1 1 1s1-.448 1-1c0-1.654-1.346-3-3-3h-44c-1.654 0-3 1.346-3 3z" fill="url(&quot;#SVGID_5_&quot;)" data-original="url(#SVGID_5_)"></path><path d="m9 60c.552 0 1-.448 1-1v-8c0-.245-.113-.515-.284-.69-.182-.187-.454-.31-.716-.31h-1c-.552 0-1 .447-1 1s.447 1 1 1v7c0 .552.448 1 1 1z" fill="url(&quot;#SVGID_6_&quot;)" data-original="url(#SVGID_6_)"></path><path d="m32 50c-1.654 0-3 1.346-3 3 0 .552.448 1 1 1s1-.448 1-1c0-.551.449-1 1-1s1 .449 1 1c0 .978-1.924 3.508-3.707 5.293-.286.286-.372.716-.217 1.09s.52.617.924.617h4c.552 0 1-.448 1-1s-.448-1-1-1h-1.724c1.246-1.469 2.724-3.522 2.724-5 0-1.654-1.346-3-3-3z" fill="url(&quot;#SVGID_7_&quot;)" data-original="url(#SVGID_7_)"></path><path d="m55 50h-2c-.552 0-1 .448-1 1s.448 1 1 1h2c.551 0 1 .449 1 1s-.449 1-1 1h-2c-.552 0-1 .448-1 1s.448 1 1 1h2c.551 0 1 .449 1 1s-.449 1-1 1h-2c-.552 0-1 .448-1 1s.448 1 1 1h2c1.654 0 3-1.346 3-3 0-.771-.301-1.468-.78-2 .48-.532.78-1.229.78-2 0-1.654-1.346-3-3-3z" fill="url(&quot;#SVGID_8_&quot;)" data-original="url(#SVGID_8_)"></path><path d="m37.56 10.25c-.24-.73-.86-1.25-1.61-1.36l-1.49-.21-.67-1.35c-.34-.69-1.02-1.12-1.79-1.12s-1.45.43-1.79 1.12l-.67 1.35-1.49.21c-.75.11-1.37.63-1.61 1.36s-.04 1.52.51 2.05l1.07 1.05-.25 1.48c-.13.76.17 1.51.79 1.96.35.25.76.38 1.18.38.32 0 .64-.07.93-.23l1.33-.7 1.33.7c.68.36 1.49.3 2.11-.15s.92-1.2.79-1.96l-.25-1.48 1.07-1.05c.55-.53.75-1.32.51-2.05zm-2.98 1.67c-.47.46-.68 1.12-.57 1.77l.25 1.48-1.33-.7c-.29-.15-.61-.23-.93-.23s-.64.08-.93.23l-1.33.7.25-1.48c.11-.65-.1-1.31-.57-1.77l-1.08-1.05 1.49-.21c.65-.1 1.21-.51 1.51-1.1l.66-1.35.67 1.35c.29.59.85 1 1.5 1.1l1.49.21z" fill="url(&quot;#SVGID_9_&quot;)" data-original="url(#SVGID_9_)"></path><circle cx="25" cy="1" fill="url(&quot;#SVGID_10_&quot;)" r="1.005" data-original="url(#SVGID_10_)"></circle></g></g></svg>