<svg xmlns="http://www.w3.org/2000/svg" xmlns:xlink="http://www.w3.org/1999/xlink" xmlns:svgjs="http://svgjs.com/svgjs" width="512" height="512" x="0" y="0" viewBox="0 0 512 512" style="enable-background:new 0 0 512 512" xml:space="preserve"><defs><linearGradient xmlns="http://www.w3.org/2000/svg" id="a" gradientUnits="userSpaceOnUse" x1="1.074" x2="511.84" y1="522.926" y2="12.16" data-name="New Gradient Swatch 1"><stop stop-opacity="1" stop-color="#0ba4cd" offset="0"></stop><stop stop-opacity="1" stop-color="#242278" offset="1"></stop></linearGradient><linearGradient xmlns="http://www.w3.org/2000/svg" xmlns:xlink="http://www.w3.org/1999/xlink" id="b" x1="171.074" x2="681.84" xlink:href="#a" y1="692.926" y2="182.16"></linearGradient><linearGradient xmlns="http://www.w3.org/2000/svg" xmlns:xlink="http://www.w3.org/1999/xlink" id="c" x1="-28.926" x2="481.84" xlink:href="#a" y1="492.926" y2="-17.84"></linearGradient><linearGradient xmlns="http://www.w3.org/2000/svg" xmlns:xlink="http://www.w3.org/1999/xlink" id="d" x1="-32.926" x2="477.84" xlink:href="#a" y1="488.926" y2="-21.84"></linearGradient><linearGradient xmlns="http://www.w3.org/2000/svg" xmlns:xlink="http://www.w3.org/1999/xlink" id="e" x1="127.074" x2="637.84" xlink:href="#a" y1="648.926" y2="138.16"></linearGradient><linearGradient xmlns="http://www.w3.org/2000/svg" xmlns:xlink="http://www.w3.org/1999/xlink" id="f" x1="-38.043" x2="472.723" xlink:href="#a" y1="483.808" y2="-26.958"></linearGradient><linearGradient xmlns="http://www.w3.org/2000/svg" xmlns:xlink="http://www.w3.org/1999/xlink" id="g" x1="-66.097" x2="444.669" xlink:href="#a" y1="455.754" y2="-55.012"></linearGradient></defs><g><linearGradient xmlns="http://www.w3.org/2000/svg" id="a" gradientUnits="userSpaceOnUse" x1="1.074" x2="511.84" y1="522.926" y2="12.16" data-name="New Gradient Swatch 1"><stop stop-opacity="1" stop-color="#0ba4cd" offset="0"></stop><stop stop-opacity="1" stop-color="#242278" offset="1"></stop></linearGradient><linearGradient xmlns="http://www.w3.org/2000/svg" xmlns:xlink="http://www.w3.org/1999/xlink" id="b" x1="171.074" x2="681.84" xlink:href="#a" y1="692.926" y2="182.16"></linearGradient><linearGradient xmlns="http://www.w3.org/2000/svg" xmlns:xlink="http://www.w3.org/1999/xlink" id="c" x1="-28.926" x2="481.84" xlink:href="#a" y1="492.926" y2="-17.84"></linearGradient><linearGradient xmlns="http://www.w3.org/2000/svg" xmlns:xlink="http://www.w3.org/1999/xlink" id="d" x1="-32.926" x2="477.84" xlink:href="#a" y1="488.926" y2="-21.84"></linearGradient><linearGradient xmlns="http://www.w3.org/2000/svg" xmlns:xlink="http://www.w3.org/1999/xlink" id="e" x1="127.074" x2="637.84" xlink:href="#a" y1="648.926" y2="138.16"></linearGradient><linearGradient xmlns="http://www.w3.org/2000/svg" xmlns:xlink="http://www.w3.org/1999/xlink" id="f" x1="-38.043" x2="472.723" xlink:href="#a" y1="483.808" y2="-26.958"></linearGradient><linearGradient xmlns="http://www.w3.org/2000/svg" xmlns:xlink="http://www.w3.org/1999/xlink" id="g" x1="-66.097" x2="444.669" xlink:href="#a" y1="455.754" y2="-55.012"></linearGradient><g xmlns="http://www.w3.org/2000/svg"><path d="m476 240h-4v-140a28.031 28.031 0 0 0 -28-28h-408a28.031 28.031 0 0 0 -28 28v272a28.031 28.031 0 0 0 28 28h146.24l-4.8 24h-41.44a8 8 0 0 0 -8 8v24a8 8 0 0 0 8 8h208a8 8 0 0 0 8-8v-24a8 8 0 0 0 -8-8h-41.6l-5.4-24h63v36a28.031 28.031 0 0 0 28 28h88a28.031 28.031 0 0 0 28-28v-168a28.031 28.031 0 0 0 -28-28zm-140 200v8h-192v-8zm-142.24-16 4.8-24h82.04l5.4 24zm166.24-40h-324a12.01 12.01 0 0 1 -12-12v-12h336zm0-116v76h-336v-244a12.01 12.01 0 0 1 12-12h408a12.01 12.01 0 0 1 12 12v140h-68a28.031 28.031 0 0 0 -28 28zm92.9-12-2.67 8h-36.46l-2.67-8zm35.1 180a12.01 12.01 0 0 1 -12 12h-88a12.01 12.01 0 0 1 -12-12v-168a12.01 12.01 0 0 1 12-12h6.23l6.18 18.53a8 8 0 0 0 7.59 5.47h48a8 8 0 0 0 7.59-5.47l6.18-18.53h6.23a12.01 12.01 0 0 1 12 12z" fill="url(&quot;#a&quot;)" data-original="url(#a)"></path><path d="m440 424h-16a8 8 0 0 0 0 16h16a8 8 0 0 0 0-16z" fill="url(&quot;#b&quot;)" data-original="url(#b)"></path><path d="m176 224a64 64 0 1 0 64-64 64.072 64.072 0 0 0 -64 64zm112 0a48 48 0 1 1 -48-48 48.054 48.054 0 0 1 48 48z" fill="url(&quot;#c&quot;)" data-original="url(#c)"></path><path d="m221.657 218.343a8 8 0 0 0 -11.314 11.314l16 16a8 8 0 0 0 11.314 0l32-32a8 8 0 0 0 -11.314-11.314l-26.343 26.344z" fill="url(&quot;#d&quot;)" data-original="url(#d)"></path><path d="m450.343 330.343-26.343 26.344-10.343-10.344a8 8 0 0 0 -11.314 11.314l16 16a8 8 0 0 0 11.314 0l32-32a8 8 0 0 0 -11.314-11.314z" fill="url(&quot;#e&quot;)" data-original="url(#e)"></path><path d="m240 320a8 8 0 0 0 0-16 80.016 80.016 0 0 1 -29.09-154.549 8 8 0 1 0 -5.82-14.9 96.015 96.015 0 0 0 34.91 185.449z" fill="url(&quot;#f&quot;)" data-original="url(#f)"></path><path d="m240 144a80.144 80.144 0 0 1 21.822 3.011 8 8 0 0 0 4.356-15.4 96.2 96.2 0 0 0 -26.178-3.611 8 8 0 0 0 0 16z" fill="url(&quot;#g&quot;)" data-original="url(#g)"></path></g></g></svg>