<svg xmlns="http://www.w3.org/2000/svg" xmlns:xlink="http://www.w3.org/1999/xlink" xmlns:svgjs="http://svgjs.com/svgjs" width="512" height="512" x="0" y="0" viewBox="0 0 450 450" style="enable-background:new 0 0 512 512" xml:space="preserve" class=""><defs><linearGradient xmlns="http://www.w3.org/2000/svg" id="SVGID_1_" gradientTransform="matrix(1 0 0 -1 0 450)" gradientUnits="userSpaceOnUse" x1="45.148" x2="404.853" y1="449.438" y2="89.733"><stop stop-opacity="1" stop-color="#0ba4cd" offset="0"></stop><stop stop-opacity="1" stop-color="#242278" offset="1"></stop></linearGradient></defs><g><linearGradient xmlns="http://www.w3.org/2000/svg" id="SVGID_1_" gradientTransform="matrix(1 0 0 -1 0 450)" gradientUnits="userSpaceOnUse" x1="45.148" x2="404.853" y1="449.438" y2="89.733"><stop stop-opacity="1" stop-color="#0ba4cd" offset="0"></stop><stop stop-opacity="1" stop-color="#242278" offset="1"></stop></linearGradient><path xmlns="http://www.w3.org/2000/svg" d="m420.26 334.63h-390.52c-13.64 0-24.74-11.1-24.74-24.74v-258.95c0-13.64 11.1-24.74 24.74-24.74h390.52c13.64 0 24.74 11.1 24.74 24.74v258.95c0 13.64-11.1 24.74-24.74 24.74zm-390.52-298.43c-8.13 0-14.74 6.61-14.74 14.74v258.95c0 8.13 6.61 14.74 14.74 14.74h390.52c8.13 0 14.74-6.61 14.74-14.74v-258.95c0-8.13-6.61-14.74-14.74-14.74zm410.26 240.05h-430c-2.76 0-5-2.24-5-5s2.24-5 5-5h430c2.76 0 5 2.24 5 5s-2.24 5-5 5zm-246.69 102.9c-2.76 0-5-2.24-5-5v-44.53c0-2.76 2.24-5 5-5s5 2.24 5 5v44.53c0 2.76-2.24 5-5 5zm63.38 0c-2.76 0-5-2.24-5-5v-44.53c0-2.76 2.24-5 5-5s5 2.24 5 5v44.53c0 2.76-2.24 5-5 5zm79.64 44.65h-222.66c-2.76 0-5-2.24-5-5 0-27.37 22.27-49.64 49.64-49.64h133.37c27.37 0 49.64 22.27 49.64 49.64.01 2.76-2.23 5-4.99 5zm-217.34-10h212.03c-2.47-19.51-19.16-34.64-39.33-34.64h-133.38c-20.16-.01-36.86 15.13-39.32 34.64zm203.68-171.14h-13.72c-2.76 0-5-2.24-5-5v-7.74c-4.41-1.13-8.66-2.89-12.58-5.21l-5.48 5.47c-1.95 1.95-5.12 1.95-7.07 0l-9.7-9.7c-.94-.94-1.46-2.21-1.46-3.54s.53-2.6 1.46-3.54l5.48-5.48c-2.32-3.92-4.09-8.17-5.21-12.58h-7.74c-2.76 0-5-2.24-5-5v-13.72c0-2.76 2.24-5 5-5h7.74c1.13-4.41 2.89-8.66 5.21-12.58l-5.48-5.48c-.94-.94-1.46-2.21-1.46-3.54s.53-2.6 1.46-3.54l9.7-9.7c1.95-1.95 5.12-1.95 7.07 0l5.48 5.48c3.92-2.32 8.17-4.09 12.58-5.21v-7.74c0-2.76 2.24-5 5-5h13.72c2.76 0 5 2.24 5 5v7.74c4.41 1.13 8.66 2.89 12.58 5.21l5.48-5.48c1.95-1.95 5.12-1.95 7.07 0l9.7 9.7c.94.94 1.46 2.21 1.46 3.54s-.53 2.6-1.46 3.54l-5.48 5.48c2.32 3.92 4.09 8.17 5.21 12.58h7.74c2.76 0 5 2.24 5 5v13.72c0 2.76-2.24 5-5 5h-7.74c-1.13 4.41-2.89 8.66-5.21 12.58l5.48 5.48c.94.94 1.46 2.21 1.46 3.54s-.53 2.6-1.46 3.54l-9.7 9.7c-1.95 1.95-5.12 1.95-7.07 0l-5.48-5.48c-3.92 2.32-8.17 4.09-12.58 5.21v7.74c0 2.77-2.24 5.01-5 5.01zm-8.72-10h3.72v-6.8c0-2.46 1.78-4.55 4.21-4.94 5.78-.93 11.35-3.24 16.11-6.68 1.99-1.44 4.73-1.22 6.46.52l4.81 4.81 2.63-2.63-4.81-4.81c-1.74-1.74-1.95-4.48-.52-6.46 3.44-4.76 5.75-10.33 6.68-16.11.39-2.42 2.48-4.21 4.94-4.21h6.8v-3.72h-6.8c-2.45 0-4.55-1.78-4.94-4.21-.93-5.78-3.24-11.35-6.68-16.11-1.44-1.99-1.22-4.73.52-6.46l4.81-4.81-2.63-2.63-4.81 4.81c-1.73 1.73-4.47 1.96-6.46.52-4.76-3.44-10.33-5.75-16.11-6.68-2.42-.39-4.21-2.48-4.21-4.94v-6.8h-3.72v6.8c0 2.46-1.78 4.55-4.21 4.94-5.78.93-11.35 3.24-16.11 6.68-1.99 1.44-4.73 1.22-6.46-.52l-4.81-4.81-2.63 2.63 4.81 4.81c1.74 1.74 1.95 4.48.52 6.46-3.44 4.76-5.75 10.33-6.68 16.11-.39 2.42-2.48 4.21-4.94 4.21h-6.8v3.72h6.8c2.45 0 4.55 1.78 4.94 4.21.93 5.78 3.24 11.35 6.68 16.11 1.44 1.99 1.22 4.73-.52 6.46l-4.81 4.81 2.63 2.63 4.81-4.81c1.73-1.74 4.47-1.96 6.46-.52 4.76 3.44 10.33 5.75 16.11 6.68 2.42.39 4.21 2.48 4.21 4.94zm1.86-19.81c-16.19 0-29.35-13.17-29.35-29.35s13.17-29.35 29.35-29.35 29.35 13.17 29.35 29.35-13.16 29.35-29.35 29.35zm0-48.7c-10.67 0-19.35 8.68-19.35 19.35s8.68 19.35 19.35 19.35 19.35-8.68 19.35-19.35-8.68-19.35-19.35-19.35zm72.08-59.78h-144.16c-2.76 0-5-2.24-5-5s2.24-5 5-5h144.16c2.76 0 5 2.24 5 5s-2.24 5-5 5zm0-34.58h-144.16c-2.76 0-5-2.24-5-5s2.24-5 5-5h144.16c2.76 0 5 2.24 5 5s-2.24 5-5 5zm-280.38 58.55c-1.07 0-2.14-.34-3.05-1.04l-27.48-21.2c-1.23-.95-1.95-2.41-1.95-3.96s.72-3.01 1.95-3.96l27.48-21.2c2.19-1.69 5.33-1.28 7.01.9s1.28 5.33-.9 7.01l-22.35 17.24 22.35 17.24c2.19 1.69 2.59 4.83.9 7.01-.99 1.29-2.47 1.96-3.96 1.96zm53.36 0c-1.5 0-2.98-.67-3.96-1.95-1.69-2.19-1.28-5.33.9-7.01l22.35-17.24-22.35-17.24c-2.19-1.69-2.59-4.83-.9-7.01 1.69-2.19 4.83-2.59 7.01-.9l27.48 21.2c1.23.95 1.95 2.41 1.95 3.96s-.72 3.01-1.95 3.96l-27.48 21.2c-.91.69-1.98 1.03-3.05 1.03zm-36.69 16.16c-.43 0-.86-.06-1.3-.17-2.67-.71-4.25-3.46-3.54-6.12l20.02-74.7c.71-2.67 3.46-4.25 6.12-3.54 2.67.71 4.25 3.46 3.54 6.12l-20.02 74.7c-.59 2.23-2.61 3.71-4.82 3.71zm82.09 29h-144.16c-2.76 0-5-2.24-5-5s2.24-5 5-5h144.16c2.76 0 5 2.24 5 5s-2.24 5-5 5zm0 34.58h-144.16c-2.76 0-5-2.24-5-5s2.24-5 5-5h144.16c2.76 0 5 2.24 5 5s-2.24 5-5 5zm0 34.58h-144.16c-2.76 0-5-2.24-5-5s2.24-5 5-5h144.16c2.76 0 5 2.24 5 5s-2.24 5-5 5z" fill="url(&quot;#SVGID_1_&quot;)" data-original="url(#SVGID_1_)"></path></g></svg>