<svg xmlns="http://www.w3.org/2000/svg" xmlns:xlink="http://www.w3.org/1999/xlink" xmlns:svgjs="http://svgjs.com/svgjs" width="80" height="79.84377495117968" x="0" y="0" viewBox="0 0 511.99984 511" style="enable-background:new 0 0 512 512" xml:space="preserve" class=""><defs><linearGradient xmlns="http://www.w3.org/2000/svg" id="a" gradientUnits="userSpaceOnUse" x1="0" x2="511.9996759986" y1="256.4997079994" y2="256.4997079994"><stop stop-opacity="1" stop-color="#ffffff" offset="0"></stop><stop stop-opacity="1" stop-color="#ffffff" offset="1"></stop></linearGradient></defs><circle r="255.99992" cx="255.99992" cy="255.5" fill="#34A853"></circle><g transform="matrix(0.7,0,0,0.7,76.80007324218752,76.95000000000002)"><linearGradient xmlns="http://www.w3.org/2000/svg" id="a" gradientUnits="userSpaceOnUse" x1="0" x2="511.9996759986" y1="256.4997079994" y2="256.4997079994"><stop stop-opacity="1" stop-color="#ffffff" offset="0"></stop><stop stop-opacity="1" stop-color="#ffffff" offset="1"></stop></linearGradient><path xmlns="http://www.w3.org/2000/svg" d="m512 256.5c0 50.53125-15 99.671875-43.375 142.113281-3.855469 5.769531-10.191406 8.886719-16.644531 8.886719-3.820313 0-7.683594-1.089844-11.097657-3.375-9.183593-6.136719-11.648437-18.558594-5.511718-27.742188 23.964844-35.839843 36.628906-77.292968 36.628906-119.882812 0-18.300781-2.289062-36.476562-6.804688-54.015625-2.753906-10.695313 3.6875-21.601563 14.382813-24.355469 10.703125-2.75 21.601563 3.6875 24.355469 14.382813 5.351562 20.796875 8.066406 42.324219 8.066406 63.988281zm-144.265625 184.894531c-33.59375 20.347657-72.230469 31.105469-111.734375 31.105469-119.101562 0-216-96.898438-216-216s96.898438-216 216-216c44.097656 0 86.5 13.195312 122.628906 38.160156 9.085938 6.277344 21.542969 4 27.824219-5.085937 6.277344-9.085938 4.003906-21.542969-5.085937-27.824219-42.84375-29.601562-93.109376-45.25-145.367188-45.25-68.378906 0-132.667969 26.628906-181.019531 74.980469-48.351563 48.351562-74.980469 112.640625-74.980469 181.019531s26.628906 132.667969 74.980469 181.019531c48.351562 48.351563 112.640625 74.980469 181.019531 74.980469 46.8125 0 92.617188-12.757812 132.460938-36.894531 9.449218-5.722657 12.46875-18.019531 6.746093-27.46875-5.726562-9.449219-18.023437-12.464844-27.472656-6.742188zm-109.804687-126.902343c-3.167969.125-6.125-1-8.421876-3.1875l-104.746093-99.316407c-8.015625-7.601562-20.675781-7.265625-28.273438.75-7.601562 8.015625-7.265625 20.675781.75 28.273438l104.726563 99.300781c9.671875 9.195312 22.183594 14.1875 35.441406 14.1875.710938 0 1.421875-.015625 2.132812-.042969 14.042969-.566406 26.941407-6.644531 36.316407-17.117187.238281-.261719.464843-.53125.6875-.808594l211.042969-262.5c6.921874-8.609375 5.554687-21.199219-3.054688-28.117188-8.605469-6.921874-21.199219-5.554687-28.121094 3.054688l-210.628906 261.988281c-2.070312 2.160157-4.84375 3.414063-7.851562 3.535157zm0 0" fill="url(&quot;#a&quot;)" data-original="url(#a)" class=""></path></g></svg>