<svg xmlns="http://www.w3.org/2000/svg" xmlns:xlink="http://www.w3.org/1999/xlink" xmlns:svgjs="http://svgjs.com/svgjs" width="80" height="80" x="0" y="0" viewBox="0 0 512 512" style="enable-background:new 0 0 512 512" xml:space="preserve"><g><path xmlns="http://www.w3.org/2000/svg" d="M349.657,18.343A8,8,0,0,0,344,16H120A56.063,56.063,0,0,0,64,72V440a56.063,56.063,0,0,0,56,56H392a56.063,56.063,0,0,0,56-56V120a8,8,0,0,0-2.343-5.657ZM352,43.313,420.687,112H392a40.045,40.045,0,0,1-40-40ZM120,32H336V72a56.063,56.063,0,0,0,56,56h40V352H80V72A40.045,40.045,0,0,1,120,32ZM392,480H120a40.045,40.045,0,0,1-40-40V368H432v72A40.045,40.045,0,0,1,392,480Z" fill="#000000" data-original="#000000"></path><path xmlns="http://www.w3.org/2000/svg" d="M320,384H304a8,8,0,0,0-8,8v64a8,8,0,0,0,16,0V432h8a24,24,0,0,0,0-48Zm0,32h-8V400h8a8,8,0,0,1,0,16Z" fill="#000000" data-original="#000000"></path><path xmlns="http://www.w3.org/2000/svg" d="M192,384H176a8,8,0,0,0-8,8v64a8,8,0,0,0,16,0V432h8a24,24,0,0,0,0-48Zm0,32h-8V400h8a8,8,0,0,1,0,16Z" fill="#000000" data-original="#000000"></path><path xmlns="http://www.w3.org/2000/svg" d="M272,384a8,8,0,0,0-8,8v24H248V392a8,8,0,0,0-16,0v64a8,8,0,0,0,16,0V432h16v24a8,8,0,0,0,16,0V392A8,8,0,0,0,272,384Z" fill="#000000" data-original="#000000"></path><path xmlns="http://www.w3.org/2000/svg" d="M186.343,269.657a8,8,0,1,0,11.314-11.314L155.313,216l42.344-42.343a8,8,0,0,0-11.314-11.314l-48,48a8,8,0,0,0,0,11.314Z" fill="#000000" data-original="#000000"></path><path xmlns="http://www.w3.org/2000/svg" d="M314.343,269.657a8,8,0,0,0,11.314,0l48-48a8,8,0,0,0,0-11.314l-48-48a8,8,0,0,0-11.314,11.314L356.687,216l-42.344,42.343A8,8,0,0,0,314.343,269.657Z" fill="#000000" data-original="#000000"></path><circle xmlns="http://www.w3.org/2000/svg" cx="256" cy="280" r="8" fill="#000000" data-original="#000000"></circle><path xmlns="http://www.w3.org/2000/svg" d="M224,192a8,8,0,0,0,8-8,24,24,0,1,1,24,24,8,8,0,0,0-8,8v32a8,8,0,0,0,16,0V223.2A40,40,0,1,0,216,184,8,8,0,0,0,224,192Z" fill="#000000" data-original="#000000"></path></g></svg>