<svg xmlns="http://www.w3.org/2000/svg" xmlns:xlink="http://www.w3.org/1999/xlink" xmlns:svgjs="http://svgjs.com/svgjs" width="80" height="80" x="0" y="0" viewBox="0 0 512 512" style="enable-background:new 0 0 512 512" xml:space="preserve"><g transform="matrix(1,0,0,1,65,0)"><path xmlns="http://www.w3.org/2000/svg" d="m152.699219 334.871094c-1.273438 0-2.5625-.324219-3.746094-1.007813-3.585937-2.070312-4.8125-6.65625-2.742187-10.242187l39.5-68.410156c1.339843-2.320313 3.816406-3.75 6.492187-3.75 2.679687 0 5.15625 1.429687 6.496094 3.75l39.5 68.410156c2.070312 3.585937.84375 8.171875-2.746094 10.242187-3.585937 2.070313-8.171875.84375-10.242187-2.742187l-33.003907-57.160156-33.007812 57.160156c-1.386719 2.40625-3.910157 3.75-6.5 3.75zm0 0" fill="#000000" data-original="#000000"></path><path xmlns="http://www.w3.org/2000/svg" d="m359.121094 354.519531h-92.003906c-4.144532 0-7.5 3.359375-7.5 7.5 0 4.144531 3.355468 7.5 7.5 7.5h92.003906c5.679687 0 10.300781 4.621094 10.300781 10.300781v106.878907c0 5.679687-4.621094 10.300781-10.300781 10.300781h-333.820313c-5.679687 0-10.300781-4.621094-10.300781-10.300781v-106.878907c0-5.679687 4.621094-10.300781 10.300781-10.300781h212.910157c4.140624 0 7.5-3.355469 7.5-7.5 0-4.140625-3.359376-7.5-7.5-7.5h-13.617188l11.34375-19.648437h140.984375c2.679687 0 5.152344-1.429688 6.492187-3.75 1.339844-2.320313 1.339844-5.179688 0-7.503906l-43.660156-75.605469c-2.074218-3.585938-6.660156-4.816407-10.246094-2.746094-3.585937 2.074219-4.816406 6.660156-2.746093 10.246094l37.167969 64.359375h-57.070313l-31.128906-53.910156 28.53125-49.410157 7.804687 13.511719c1.386719 2.40625 3.910156 3.75 6.5 3.75 1.273438 0 2.5625-.324219 3.742188-1.003906 3.589844-2.074219 4.816406-6.660156 2.746094-10.246094l-12.132813-21.007812 70.492187-122.074219c1.339844-2.320313 1.339844-5.179688 0-7.5-1.339843-2.320313-3.8125-3.75-6.492187-3.75h-74.382813c-.003906 0-.007812 0-.015624 0h-66.585938l-37.242188-64.480469c-1.339843-2.320312-3.816406-3.75-6.496093-3.75-2.675781 0-5.152344 1.429688-6.492188 3.75l-37.238281 64.480469h-66.5625c-.003906 0-.011719 0-.015625 0h-74.390625c-2.679688 0-5.15625 1.429687-6.492188 3.75-1.34375 2.320312-1.34375 5.179687 0 7.5l70.484376 122.066406-70.484376 122.074219c-1.34375 2.320312-1.34375 5.179687 0 7.5 1.335938 2.320312 3.8125 3.75 6.492188 3.75h140.984375l11.34375 19.648437h-134.527344c-13.949219 0-25.300781 11.351563-25.300781 25.300781v106.878907c0 13.949219 11.351562 25.300781 25.300781 25.300781h333.820313c13.949218 0 25.300781-11.351562 25.300781-25.300781v-106.878907c0-13.949218-11.351563-25.300781-25.300781-25.300781zm-69.582032-34.648437h-44.9375l22.46875-38.914063zm-97.335937-297.375 30.800781 53.328125-30.789062 53.320312-30.796875-53.339843zm-112.050781 194.046875 28.53125 49.402343-31.132813 53.925782h-57.058593zm37.191406 64.402343 22.476562 38.925782h-44.949218zm-96.851562-197.714843h57.070312l26.933594 46.644531c2.074218 3.589844 6.660156 4.816406 10.246094 2.746094 3.585937-2.070313 4.816406-6.65625 2.746093-10.246094l-4.265625-7.386719c-.003906-.007812-.007812-.019531-.015625-.027343l-18.320312-31.730469h53.5l34.917969 60.472656c.066406.125.136718.246094.210937.367187l2.207031 3.820313c1.339844 2.320313 3.8125 3.75 6.492188 3.75 2.679687 0 5.15625-1.429687 6.496094-3.75l37.335937-64.660156h53.5l-53.941406 93.417969-43.394531 75.152343-61.285157-106.152343c-2.074219-3.585938-6.660156-4.8125-10.246093-2.742188-3.585938 2.070312-4.816407 6.65625-2.746094 10.242188l65.515625 113.480468 2.273437 3.921875c.019532.035157.042969.0625.0625.097657.140625.230468.289063.457031.457032.675781.058593.078125.125.152343.191406.230469.121094.148437.246094.292968.378906.429687.089844.089844.175781.175781.269531.261719.121094.117187.25.226562.378907.332031.101562.082031.199218.164063.300781.242187.148437.109376.308593.210938.46875.3125.636719.398438 1.328125.710938 2.0625.90625.09375.023438.1875.035157.28125.058594.222656.046875.441406.097656.667969.128906.191406.027344.382812.027344.570312.039063.132812.007813.265625.023437.398438.023437h.003906c.21875 0 .433594-.023437.648437-.042968.105469-.007813.210938-.007813.316407-.019532.210937-.027343.414062-.074218.617187-.121093.113281-.023438.226563-.039063.339844-.066407.167969-.046874.328125-.109374.496093-.164062.144532-.050781.289063-.089844.433594-.148438.113282-.046874.222656-.109374.335938-.164062.183594-.085938.367187-.167969.546875-.269531.058593-.035157.113281-.078125.171875-.113281.222656-.132813.441406-.273438.644531-.429688.007813-.007812.015625-.011719.023437-.019531.757813-.582031 1.414063-1.3125 1.921876-2.191407l66.507812-115.179687 41.652344-72.128906h57.058594l-66.042969 114.367187c-.027344.042969-.050781.085938-.078125.132813l-72.617188 125.753906c-.039062.066406-.078125.132813-.117187.199219l-17.804688 30.835937h-30.117187zm0 0" fill="#000000" data-original="#000000"></path><path xmlns="http://www.w3.org/2000/svg" d="m99.792969 393.097656c-2.777344 0-4.429688.976563-4.953125 2.929688l-17.109375 61-17.222657-61c-.527343-1.953125-2.179687-2.929688-4.953124-2.929688-2.175782 0-4.261719.582032-6.25 1.746094-1.988282 1.164062-2.980469 2.605469-2.980469 4.332031 0 .152344.074219.527344.222656 1.125l21.726563 70.792969c1.125 3.304688 4.277343 4.953125 9.457031 4.953125 2.25 0 4.277343-.433594 6.078125-1.292969 1.800781-.863281 2.925781-2.082031 3.378906-3.660156l21.613281-70.792969c.148438-.597656.222657-.972656.222657-1.125 0-1.648437-1.011719-3.074219-3.039063-4.277343-2.023437-1.199219-4.089844-1.800782-6.191406-1.800782zm0 0" fill="#000000" data-original="#000000"></path><path xmlns="http://www.w3.org/2000/svg" d="m123.601562 423.371094c-1.460937-.972656-3.132812-1.460938-5.007812-1.460938-1.953125 0-3.660156.488282-5.121094 1.464844-1.464844.976562-2.195312 2.023438-2.195312 3.148438v27.011718c0 6.078125 2.417968 11.40625 7.257812 15.984375 4.84375 4.578125 10.566406 6.863281 17.167969 6.863281 6.605469 0 12.308594-2.285156 17.109375-6.863281 4.804688-4.578125 7.207031-9.90625 7.207031-15.984375v-27.121094c0-1.199218-.675781-2.253906-2.027343-3.152343-1.351563-.898438-3.078126-1.351563-5.175782-1.351563-1.953125 0-3.660156.449219-5.125 1.347656-1.460937.898438-2.195312 1.945313-2.195312 3.144532v27.050781c0 2.617187-.957032 4.957031-2.867188 7.015625-1.914062 2.058594-4.222656 3.085938-6.925781 3.085938-2.699219 0-5.027344-1.027344-6.976563-3.085938-1.953124-2.058594-2.929687-4.394531-2.929687-7.015625v-26.9375c0-1.125-.730469-2.171875-2.195313-3.144531zm0 0" fill="#000000" data-original="#000000"></path><path xmlns="http://www.w3.org/2000/svg" d="m206.171875 452.410156c1.574219 0 2.851563-.070312 3.824219-.222656.976562-.148438 2.046875-.519531 3.210937-1.113281 1.160157-.59375 2.023438-1.617188 2.589844-3.066407.5625-1.449218.84375-3.285156.84375-5.515624 0-6.105469-2.273437-11.175782-6.8125-15.207032-4.542969-4.03125-10-6.050781-16.378906-6.050781-6.832031 0-12.644531 2.214844-17.449219 6.640625-4.804688 4.429688-7.203125 9.71875-7.203125 15.871094v9.566406c0 6.902344 2.53125 12.476562 7.597656 16.714844 5.066407 4.238281 11.613281 6.355468 19.644531 6.355468 5.628907 0 10.335938-1.027343 14.125-3.09375 3.789063-2.0625 5.6875-4.144531 5.6875-6.246093 0-1.351563-.527343-2.757813-1.578124-4.222657-1.050782-1.460937-2.363282-2.191406-3.9375-2.191406-.828126 0-2.628907.710938-5.402344 2.136719-2.777344 1.425781-5.59375 2.140625-8.445313 2.140625-3.976562 0-7.164062-.996094-9.566406-2.984375-2.402344-1.984375-3.601563-4.59375-3.601563-7.820313v-1.6875h22.851563zm-22.855469-11.496094c0-2.449218.976563-4.433593 2.929688-5.9375 1.949218-1.503906 4.238281-2.261718 6.867187-2.261718 2.773438 0 5.121094.773437 7.035157 2.3125 1.914062 1.542968 2.871093 3.542968 2.871093 5.992187 0 1.121094-.246093 1.875-.730469 2.261719-.488281.386719-1.335937.578125-2.535156.578125h-16.433594v-2.945313zm0 0" fill="#000000" data-original="#000000"></path><path xmlns="http://www.w3.org/2000/svg" d="m247.371094 463.21875c-7.429688 0-11.296875-4.015625-11.59375-12.042969-.300782-3.078125-2.742188-4.617187-7.316406-4.617187-2.628907 0-4.503907.507812-5.628907 1.519531-1.125 1.015625-1.6875 2.871094-1.6875 5.574219 0 6.902344 2.492188 12.359375 7.484375 16.375 4.988282 4.015625 11.464844 6.019531 19.417969 6.019531 7.730469 0 13.976563-2.082031 18.742187-6.246094 4.765626-4.164062 7.148438-10.671875 7.148438-19.527343v-52.558594c0-1.425782-.636719-2.550782-1.914062-3.378906-1.277344-.824219-2.777344-1.238282-4.503907-1.238282h-19.699219c-1.5 0-2.644531.621094-3.433593 1.859375-.785157 1.234375-1.179688 2.71875-1.179688 4.445313 0 1.800781.410157 3.339844 1.238281 4.613281.824219 1.277344 1.949219 1.914063 3.375 1.914063h11.484376v44.34375c-.003907 8.628906-3.980469 12.945312-11.933594 12.945312zm0 0" fill="#000000" data-original="#000000"></path><path xmlns="http://www.w3.org/2000/svg" d="m317.609375 461.078125c-2.398437 1.652344-5.402344 2.476563-9.003906 2.476563-2.628907 0-5.027344-.46875-7.203125-1.402344-2.179688-.9375-3.847656-1.96875-5.011719-3.097656-1.164063-1.128907-2.363281-2.164063-3.601563-3.101563-1.238281-.933594-2.34375-1.402344-3.320312-1.402344-1.652344 0-3.132812.882813-4.445312 2.644531-1.3125 1.765626-1.96875 3.507813-1.96875 5.234376 0 3.453124 2.546874 6.640624 7.652343 9.566406 5.105469 2.925781 11.21875 4.390625 18.351563 4.390625 8.027344 0 14.5-2.089844 19.417968-6.273438 4.914063-4.179687 7.371094-10.117187 7.371094-17.8125 0-4.578125-.898437-8.570312-2.703125-11.988281-1.800781-3.414062-4.035156-6.019531-6.695312-7.820312-2.667969-1.800782-5.554688-3.46875-8.667969-5.007813-3.117188-1.539063-6.007812-2.8125-8.667969-3.828125-2.664062-1.011719-4.898437-2.324219-6.699219-3.9375-1.800781-1.613281-2.699218-3.507812-2.699218-5.683594 0-2.703125 1.105468-4.820312 3.320312-6.359375 2.210938-1.539062 5.347656-2.308593 9.398438-2.308593 3.675781 0 7.015625.714843 10.019531 2.140624 3 1.425782 4.839844 2.136719 5.515625 2.136719 1.800781 0 3.226562-.890625 4.277344-2.675781 1.050781-1.785156 1.578125-3.515625 1.578125-5.1875 0-1.769531-.773438-3.3125-2.308594-4.621094-1.539063-1.308594-3.527344-2.273437-5.964844-2.890625-2.441406-.613281-4.75-1.058593-6.925781-1.328125-2.175781-.269531-4.238281-.40625-6.191406-.40625-3.453125 0-6.714844.402344-9.792969 1.199219-3.078125.800781-5.964844 2.058594-8.667969 3.773437-2.699218 1.710938-4.859375 4.109376-6.472656 7.195313-1.613281 3.082031-2.417969 6.644531-2.417969 10.683594 0 3.601562.65625 6.808593 1.96875 9.621093s3.039063 5.0625 5.179688 6.753907c2.136719 1.6875 4.5 3.207031 7.089843 4.558593 2.589844 1.351563 5.160157 2.570313 7.710938 3.65625 2.550781 1.089844 4.898438 2.214844 7.035156 3.375 2.140625 1.164063 3.867188 2.628907 5.179688 4.390626 1.3125 1.765624 1.96875 3.773437 1.96875 6.023437 0 3.222656-1.203125 5.664063-3.605469 7.3125zm0 0" fill="#000000" data-original="#000000"></path></g></svg>