<svg xmlns="http://www.w3.org/2000/svg" xmlns:xlink="http://www.w3.org/1999/xlink" xmlns:svgjs="http://svgjs.com/svgjs" width="80" height="80" x="0" y="0" viewBox="0 0 64 64" style="enable-background:new 0 0 512 512" xml:space="preserve" class=""><defs><linearGradient xmlns="http://www.w3.org/2000/svg" id="SVGID_1_" gradientUnits="userSpaceOnUse" x1="32" x2="32" y1="63" y2="1"><stop stop-opacity="1" stop-color="#ffffff" offset="0"></stop><stop stop-opacity="1" stop-color="#ffffff" offset="1"></stop></linearGradient></defs><circle r="32" cx="32" cy="32" fill="#0993FA"></circle><g transform="matrix(0.7,0,0,0.7,9.600000143051147,9.600000000000001)"><linearGradient xmlns="http://www.w3.org/2000/svg" id="SVGID_1_" gradientUnits="userSpaceOnUse" x1="32" x2="32" y1="63" y2="1"><stop stop-opacity="1" stop-color="#ffffff" offset="0"></stop><stop stop-opacity="1" stop-color="#ffffff" offset="1"></stop></linearGradient><path xmlns="http://www.w3.org/2000/svg" d="m58 9h-3.184c-.414-1.161-1.514-2-2.816-2h-1.189c-.932-3.519-4.103-6-7.811-6-3.685 0-6.84 2.45-7.804 6h-1.196c-1.302 0-2.402.839-2.816 2h-3.184c-2.757 0-5 2.243-5 5v6.305c-1.594-.773-3.339-1.208-5.138-1.281 1.316-1.273 2.138-3.053 2.138-5.024 0-3.859-3.141-7-7-7s-7 3.141-7 7c0 2.047.889 3.886 2.294 5.167-4.149.8-7.294 4.454-7.294 8.833v8c0 2.757 2.243 5 5 5v18c0 2.206 1.794 4 4 4 1.201 0 2.266-.542 3-1.382.734.84 1.799 1.382 3 1.382 2.206 0 4-1.794 4-4v-31.654l3 2.7v27.954c0 2.757 2.243 5 5 5h30c2.757 0 5-2.243 5-5v-44c0-2.757-2.243-5-5-5zm-1 40h-8v8h-20v-21.626c.612.402 1.325.626 2.066.626h.155c2.084 0 3.779-1.695 3.779-3.778 0-1.056-.446-2.07-1.225-2.785l-4.775-4.377v-10.06h2.184c.414 1.161 1.514 2 2.816 2h18c1.302 0 2.402-.839 2.816-2h2.184zm-1.414 2-4.586 4.586v-4.586zm-22.586-41c0-.552.448-1 1-1h2l.86-.082.14-.836c.491-2.944 3.015-5.082 6-5.082s5.509 2.138 6 5.082l.153.918h2.847c.552 0 1 .448 1 1v4c0 .552-.448 1-1 1h-18c-.552 0-1-.448-1-1zm-8 4c0-1.654 1.346-3 3-3h3v2h-2c-1.103 0-2 .897-2 2v8.227l-.884-.81c-.356-.326-.731-.623-1.116-.905zm-16.318 7.128c.428-.081.867-.128 1.318-.128h.418l-.4 2.8zm3.757-.128h1.122l.849 5.944-1.41 2.82-1.41-2.82zm3.543 2.8-.4-2.8h1.75c.016 0 .032.002.049.002zm-7.982-9.8c0-2.757 2.243-5 5-5s5 2.243 5 5-2.243 5-5 5-5-2.243-5-5zm10 11v34c0 1.103-.897 2-2 2s-2-.897-2-2v-22h-2v22c0 1.103-.897 2-2 2s-2-.897-2-2v-34h-2v14c-1.654 0-3-1.346-3-3v-8c0-2.697 1.537-5.039 3.778-6.208l6.222 12.444 6.507-13.015c1.95.392 3.767 1.303 5.257 2.67l7.658 7.019c.368.337.578.815.578 1.312 0 .98-.798 1.778-1.778 1.778h-.155c-.44 0-.862-.162-1.189-.456l-9.494-8.544zm43 33c0 1.654-1.346 3-3 3h-30c-1.654 0-3-1.346-3-3v-26.155l2 1.8v23.355c0 1.103.897 2 2 2h21.414l8.586-8.586v-35.414c0-1.103-.897-2-2-2h-2v-2h3c1.654 0 3 1.346 3 3zm-24-45h-2v-2h2zm14 0h-2v-2h2zm-8-2c1.654 0 3-1.346 3-3s-1.346-3-3-3-3 1.346-3 3 1.346 3 3 3zm0-4c.552 0 1 .448 1 1s-.448 1-1 1-1-.448-1-1 .448-1 1-1zm9 34c-1.654 0-3 1.346-3 3s1.346 3 3 3 3-1.346 3-3-1.346-3-3-3zm0 4c-.552 0-1-.448-1-1s.448-1 1-1 1 .448 1 1-.448 1-1 1zm-19.707-1.707 2.293-2.293-2.293-2.293 1.414-1.414 2.293 2.293 2.293-2.293 1.414 1.414-2.293 2.293 2.293 2.293-1.414 1.414-2.293-2.293-2.293 2.293zm23.414-11.586-2.293 2.293 2.293 2.293-1.414 1.414-2.293-2.293-2.293 2.293-1.414-1.414 2.293-2.293-2.293-2.293 1.414-1.414 2.293 2.293 2.293-2.293zm-19.707-8.293-2.293 2.293-1.414-1.414 2.293-2.293-2.293-2.293 1.414-1.414 2.293 2.293 2.293-2.293 1.414 1.414-2.293 2.293 2.293 2.293-1.414 1.414zm13 4.586v-7h-7v2h3.586l-5.232 5.232c-.861.861-1.354 2.051-1.354 3.268s.493 2.407 1.354 3.268l2.879 2.879c.487.488.767 1.163.767 1.853s-.28 1.365-.768 1.854l-7.947 7.947c-.391-.188-.823-.301-1.285-.301-1.654 0-3 1.346-3 3s1.346 3 3 3 3-1.346 3-3c0-.462-.113-.894-.301-1.285l7.947-7.947c.861-.861 1.354-2.051 1.354-3.268s-.493-2.407-1.354-3.268l-2.879-2.879c-.487-.488-.767-1.163-.767-1.853s.28-1.365.768-1.854l5.232-5.232v3.586zm-15 25c-.552 0-1-.448-1-1s.448-1 1-1 1 .448 1 1-.448 1-1 1zm23 0h2v2h-2zm0 4h2v2h-2z" fill="url(&quot;#SVGID_1_&quot;)" data-original="url(#SVGID_1_)"></path></g></svg>