<svg xmlns="http://www.w3.org/2000/svg" xmlns:xlink="http://www.w3.org/1999/xlink" xmlns:svgjs="http://svgjs.com/svgjs" width="80" height="80" x="0" y="0" viewBox="0 0 128 128" style="enable-background:new 0 0 512 512" xml:space="preserve"><circle r="64" cx="64" cy="64" fill="#FBBC05"></circle><g transform="matrix(0.7,0,0,0.7,19.199999749660492,19.199886131286625)"><path xmlns="http://www.w3.org/2000/svg" d="m125.5996094 37.609375c-1.1708984-1.0029297-2.8144531-1.2402344-4.2216797-.6162109-5.3720703 2.3828125-12.5322266 1.0429688-17.0253906-3.1914062l-7.1337891-6.7216798c-4.5581055-4.2958374-10.9644165-6.6343994-17.2543945-6.5084229l.0219727-.0872803c.5390625-2.1425781-.7597656-4.3164062-2.9023438-4.8554688-2.1435547-.5419922-4.3164062.7607422-4.8554688 2.9023438l-8.2285156 32.687317-8.2285156-32.6873169c-.5390625-2.1416016-2.7109375-3.4443359-4.8554688-2.9023438-2.1425781.5390625-3.4414062 2.7128906-2.9023438 4.8554688l.0218506.0869141c-6.2903442-.1263428-12.696106 2.2128906-17.2542725 6.5087891l-7.1337891 6.7216797c-4.4931641 4.234375-11.6533203 5.5742188-17.0253906 3.1914062-1.4082031-.6230469-3.0507812-.3857422-4.2216797.6162109s-1.6630859 2.5869141-1.2636719 4.0751953l7.4306641 27.7314453c.3125 1.1679688 1.1357422 2.1308594 2.2412109 2.6210938 2.828125 1.2548828 5.9189453 1.8613281 9.0361328 1.8613281 6.0527344 0 12.203125-2.2861328 16.7197266-6.5429688l7.1328125-6.7226562c3.4356079-3.2365723 8.6502686-4.8349609 13.3660278-4.1992798l2.8119507 11.1703491-10.047119 39.9117432c-.5390625 2.1425781.7597656 4.3164062 2.9023438 4.8554688.328125.0830078.65625.1220703.9794922.1220703 1.7900391 0 3.4189453-1.2099609 3.8759766-3.0244141l6.4140624-25.4795532 6.4140625 25.4795532c.4570312 1.8144531 2.0859375 3.0244141 3.8759766 3.0244141.3232422 0 .6513672-.0390625.9794922-.1220703 2.1425781-.5390625 3.4414062-2.7128906 2.9023438-4.8554688l-10.0471192-39.9117432 2.8120117-11.1705322c4.7166138-.6363525 9.9312134.9628906 13.3659668 4.1994629l7.1328125 6.7226562c4.5175781 4.2578125 10.6669922 6.5429688 16.7197266 6.5429688 3.1162109 0 6.2080078-.6064453 9.0361328-1.8613281 1.1054688-.4902344 1.9287109-1.453125 2.2412109-2.6210938l7.4306641-27.7314453c.399414-1.4882812-.0927735-3.0732422-1.2636719-4.0751953zm-87.3886719 17.2011719-7.1328125 6.7226562c-4.0322266 3.8007812-10.2128906 5.2695312-15.3203125 3.8085938l-5.1572266-19.2441406c6.6162109.5126953 13.5644531-1.7900391 18.5332031-6.4736328l7.1337891-6.7216797c3.2207031-3.0351562 8.0185547-4.6455078 12.4775391-4.2998047l5.2802734 19.7041016c-5.8154297.2294921-11.6035156 2.5361327-15.8144531 6.5039062zm74.03125 10.53125c-5.1054688 1.4609375-11.2890625-.0097656-15.3203125-3.8085938l-7.1328125-6.7226562c-4.2109375-3.96875-9.9990234-6.2744141-15.8144531-6.5039062l5.2802734-19.7041016c4.4638672-.3457031 9.2578125 1.2646484 12.4775391 4.2998047l7.1337891 6.7216797c4.9697266 4.6845703 11.9072266 6.9775391 18.5332031 6.4736328z" fill="#FFFFFF" data-original="#000000"></path></g></svg>