<svg xmlns="http://www.w3.org/2000/svg" xmlns:xlink="http://www.w3.org/1999/xlink" xmlns:svgjs="http://svgjs.com/svgjs" width="80" height="80" x="0" y="0" viewBox="0 0 510.684 510.684" style="enable-background:new 0 0 512 512" xml:space="preserve" class=""><circle r="255.342" cx="255.342" cy="255.342" fill="#EF6517"></circle><g transform="matrix(0.7,0,0,0.7,76.60259456634523,76.60259971618655)"><g xmlns="http://www.w3.org/2000/svg"><path d="m499.521 438.484h-7.755v-274.263c0-11.868-9.656-21.524-21.524-21.524h-51.955v-92.228c0-20.782-16.908-37.69-37.69-37.69h-249.51c-20.782 0-37.69 16.908-37.69 37.69v92.228h-53.7c-11.868 0-21.524 9.656-21.524 21.524v274.263h-7.01c-6.156 0-11.163 5.008-11.163 11.163v21.546c0 14.729 11.983 26.712 26.713 26.712h457.258c14.729 0 26.713-11.983 26.713-26.712v-21.546c0-6.155-5.007-11.163-11.163-11.163zm-3.837 32.709c0 6.458-5.254 11.712-11.713 11.712h-457.258c-6.459 0-11.713-5.254-11.713-11.712v-17.709h379.806c4.143 0 7.5-3.357 7.5-7.5s-3.357-7.5-7.5-7.5h-361.634v-274.263c0-3.598 2.927-6.524 6.524-6.524h53.7v15h-37.724c-4.143 0-7.5 3.357-7.5 7.5v156.766c0 4.143 3.357 7.5 7.5 7.5s7.5-3.357 7.5-7.5v-149.266h30.225v41.484c0 20.782 16.908 37.69 37.69 37.69h.755c4.143 0 7.5-3.357 7.5-7.5s-3.357-7.5-7.5-7.5h-.755c-12.512 0-22.69-10.179-22.69-22.69v-178.712c0-12.512 10.179-22.69 22.69-22.69h249.51c12.512 0 22.69 10.179 22.69 22.69v178.712c0 12.512-10.179 22.69-22.69 22.69h-115.264c-4.143 0-7.5 3.357-7.5 7.5s3.357 7.5 7.5 7.5h115.264c20.782 0 37.69-16.908 37.69-37.69v-41.484h28.479v220.787h-383.594v-39.56c0-4.143-3.357-7.5-7.5-7.5s-7.5 3.357-7.5 7.5v47.06c0 4.143 3.357 7.5 7.5 7.5h398.595c4.143 0 7.5-3.357 7.5-7.5v-235.787c0-4.143-3.357-7.5-7.5-7.5h-35.979v-15h51.955c3.598 0 6.524 2.927 6.524 6.524v274.263h-49.999c-4.143 0-7.5 3.357-7.5 7.5s3.357 7.5 7.5 7.5h68.916z" fill="#FFFFFF" data-original="#000000" class=""></path><path d="m159.02 229.372c0-4.143-3.357-7.5-7.5-7.5h-12.457l68.337-87.506 15.602 20.578c2.502 3.299 7.204 3.947 10.508 1.445 3.301-2.503 3.947-7.207 1.445-10.508l-17.324-22.851c-2.421-3.193-6.106-5.041-10.112-5.069-.032-.001-.063-.001-.095-.001-3.97 0-7.644 1.792-10.089 4.924l-58.937 75.468v-140.573h234.889v136.817l-41.451-54.675c-2.42-3.191-6.105-5.039-10.11-5.067-.032-.001-.063-.001-.095-.001-3.97 0-7.643 1.791-10.09 4.924l-41.21 52.768-16.056-21.178c-2.503-3.3-7.205-3.95-10.508-1.445-3.301 2.502-3.948 7.207-1.445 10.508l31.42 41.443h-8.292c-4.143 0-7.5 3.357-7.5 7.5s3.357 7.5 7.5 7.5h115.337c4.143 0 7.5-3.357 7.5-7.5v-179.094c0-4.143-3.357-7.5-7.5-7.5h-249.89c-4.143 0-7.5 3.357-7.5 7.5v179.093c0 4.143 3.357 7.5 7.5 7.5h20.622c4.143 0 7.501-3.358 7.501-7.5zm133.545-7.5-12.859-16.961 41.901-53.653 51.68 68.167v2.447z" fill="#FFFFFF" data-original="#000000" class=""></path><path d="m312.885 104.029c0-13.745-11.183-24.928-24.929-24.928s-24.929 11.183-24.929 24.928c0 13.746 11.183 24.929 24.929 24.929s24.929-11.183 24.929-24.929zm-34.858 0c0-5.475 4.454-9.928 9.929-9.928s9.929 4.453 9.929 9.928-4.454 9.929-9.929 9.929-9.929-4.455-9.929-9.929z" fill="#FFFFFF" data-original="#000000" class=""></path><path d="m231.286 207.493c-.017 0-.034 0-.051 0l-47.037.182c-4.742.019-8.973 2.863-10.779 7.248s-.806 9.385 2.547 12.738l5.99 5.99-25.034 25.034c-2.213 2.211-3.431 5.151-3.431 8.279s1.218 6.068 3.429 8.278l18.316 18.315c2.211 2.213 5.151 3.431 8.279 3.431s6.068-1.218 8.277-3.429l25.037-25.036 5.99 5.991c3.354 3.354 8.351 4.353 12.737 2.546 4.385-1.806 7.229-6.037 7.248-10.779l.183-47.038c.012-3.145-1.207-6.101-3.431-8.324-2.21-2.211-5.147-3.426-8.27-3.426zm-3.45 50.824-2.727-2.727c-2.211-2.213-5.151-3.431-8.279-3.431s-6.068 1.218-8.277 3.429l-25.037 25.036-13.66-13.66 25.036-25.035c4.564-4.565 4.564-11.992 0-16.558l-2.729-2.728 35.813-.139z" fill="#FFFFFF" data-original="#000000" class=""></path></g></g></svg>